<svg width="24" height="25" viewBox="0 0 24 25" fill="none" xmlns="http://www.w3.org/2000/svg">
<g id="gridicons:location">
<path id="Vector" d="M19 9.4834C19 8.56415 18.8189 7.65389 18.4672 6.80461C18.1154 5.95534 17.5998 5.18366 16.9497 4.53365C16.2997 3.88364 15.5281 3.36802 14.6788 3.01624C13.8295 2.66446 12.9193 2.4834 12 2.4834C11.0807 2.4834 10.1705 2.66446 9.32122 3.01624C8.47194 3.36802 7.70026 3.88364 7.05025 4.53365C6.40024 5.18366 5.88463 5.95534 5.53284 6.80461C5.18106 7.65389 5 8.56415 5 9.4834C5 10.8704 5.409 12.1604 6.105 13.2484H6.097L12 22.4834L17.903 13.2484H17.896C18.6169 12.125 19.0001 10.8182 19 9.4834ZM12 12.4834C11.2044 12.4834 10.4413 12.1673 9.87868 11.6047C9.31607 11.0421 9 10.279 9 9.4834C9 8.68775 9.31607 7.92469 9.87868 7.36208C10.4413 6.79947 11.2044 6.4834 12 6.4834C12.7956 6.4834 13.5587 6.79947 14.1213 7.36208C14.6839 7.92469 15 8.68775 15 9.4834C15 10.279 14.6839 11.0421 14.1213 11.6047C13.5587 12.1673 12.7956 12.4834 12 12.4834Z" fill="#232F3E"/>
</g>
</svg>
