<svg width="50" height="41" viewBox="0 0 50 41" fill="none" xmlns="http://www.w3.org/2000/svg">
<path fill-rule="evenodd" clip-rule="evenodd" d="M20 0.483398C14.4772 0.483398 10 4.96055 10 10.4834L10 13.5552L0.999999 18.7513C-0.333334 19.5211 -0.333332 21.4457 1 22.2155L10 27.4116V30.4834C10 36.0062 14.4772 40.4834 20 40.4834H40C45.5228 40.4834 50 36.0062 50 30.4834V10.4834C50 4.96055 45.5228 0.483398 40 0.483398H20Z" fill="#FF9900"/>
<path d="M38.8445 27.6872L35.063 23.903C34.3343 23.1738 33.1524 23.1736 32.4235 23.9025C31.6948 24.6312 31.6948 25.8128 32.4235 26.5415L36.2087 30.3267C36.6276 30.7456 37.3172 30.7456 37.7361 30.3267L38.8445 29.2183C39.2634 28.7957 39.2634 28.1024 38.8445 27.6872Z" fill="#FEFDFE"/>
<path d="M30.5278 23.3926C30.9096 23.7744 31.5287 23.7744 31.9106 23.3926C32.2924 23.0107 32.2924 22.3916 31.9106 22.0098L31.7437 21.8429C31.3284 21.4277 31.2844 20.7794 31.5247 20.2436C32.433 18.2183 32.0584 15.7555 30.3962 14.0932C28.2498 11.9468 24.7613 11.9468 22.6112 14.0932C20.4611 16.2396 20.4648 19.7281 22.6112 21.8782C24.2735 23.5404 26.7363 23.915 28.7616 23.0067C29.2974 22.7664 29.9457 22.8105 30.3609 23.2257L30.5278 23.3926ZM23.6789 20.7957C22.1219 19.2387 22.1219 16.7142 23.6789 15.1609C25.2359 13.6039 27.7604 13.6039 29.3137 15.1609C30.8707 16.7179 30.8707 19.2424 29.3137 20.7957C27.7604 22.3527 25.2359 22.3527 23.6789 20.7957Z" fill="#FEFDFE"/>
</svg>
