<svg width="80" height="80" viewBox="0 0 80 80" fill="none" xmlns="http://www.w3.org/2000/svg">
<path d="M30.911 28.2075H24.861L22.671 21.3075C22.541 20.8975 21.861 20.8975 21.731 21.3075L19.541 28.2075H13.491C13.271 28.2075 13.081 28.3475 13.021 28.5575C12.961 28.7675 13.031 28.9875 13.211 29.1075L18.151 32.4775L16.051 39.3175C15.991 39.5275 16.061 39.7475 16.241 39.8675C16.421 39.9875 16.651 39.9875 16.821 39.8575L22.201 35.7775L27.581 39.8575C27.671 39.9275 27.771 39.9575 27.881 39.9575C27.981 39.9575 28.081 39.9275 28.161 39.8675C28.341 39.7475 28.411 39.5275 28.351 39.3175L26.251 32.4775L31.191 29.1075C31.371 28.9875 31.451 28.7575 31.381 28.5575C31.321 28.3475 31.121 28.2075 30.911 28.2075Z" fill="#FEE7E7" stroke="#1C1B1A" stroke-width="2" stroke-miterlimit="10"/>
<path d="M66.5311 28.2075H60.4811L58.2911 21.3075C58.1611 20.8975 57.4811 20.8975 57.3511 21.3075L55.1611 28.2075H49.1111C48.8911 28.2075 48.7011 28.3475 48.6411 28.5575C48.5811 28.7675 48.6511 28.9875 48.8311 29.1075L53.7711 32.4775L51.6711 39.3175C51.6111 39.5275 51.6811 39.7475 51.8611 39.8675C52.0411 39.9875 52.2711 39.9875 52.4411 39.8575L57.8211 35.7775L63.2011 39.8575C63.2911 39.9275 63.3911 39.9575 63.5011 39.9575C63.6011 39.9575 63.7011 39.9275 63.7811 39.8675C63.9611 39.7475 64.0311 39.5275 63.9711 39.3175L61.8711 32.4775L66.8111 29.1075C66.9911 28.9875 67.0711 28.7575 67.0011 28.5575C66.9411 28.3475 66.7411 28.2075 66.5311 28.2075Z" fill="#FEE7E7" stroke="#1C1B1A" stroke-width="2" stroke-miterlimit="10"/>
<path d="M48.9003 47.018H42.8503L40.6603 40.118C40.5303 39.708 39.8503 39.708 39.7203 40.118L37.5303 47.018H31.4803C31.2603 47.018 31.0703 47.158 31.0103 47.368C30.9503 47.578 31.0203 47.798 31.2003 47.918L36.1403 51.288L34.0403 58.128C33.9803 58.338 34.0503 58.558 34.2303 58.678C34.4103 58.798 34.6403 58.798 34.8103 58.668L40.1903 54.588L45.5703 58.668C45.6603 58.738 45.7603 58.768 45.8703 58.768C45.9703 58.768 46.0703 58.738 46.1503 58.678C46.3303 58.558 46.4003 58.338 46.3403 58.128L44.2403 51.288L49.1803 47.918C49.3603 47.798 49.4403 47.568 49.3703 47.368C49.3103 47.158 49.1103 47.018 48.9003 47.018Z" fill="#FEE7E7" stroke="#1C1B1A" stroke-width="2" stroke-miterlimit="10"/>
</svg>
