<svg width="80" height="80" viewBox="0 0 80 80" fill="none" xmlns="http://www.w3.org/2000/svg">
<path d="M30.911 38.2075H24.861L22.671 31.3075C22.541 30.8975 21.861 30.8975 21.731 31.3075L19.541 38.2075H13.491C13.271 38.2075 13.081 38.3475 13.021 38.5575C12.961 38.7675 13.031 38.9875 13.211 39.1075L18.151 42.4775L16.051 49.3175C15.991 49.5275 16.061 49.7475 16.241 49.8675C16.421 49.9875 16.651 49.9875 16.821 49.8575L22.201 45.7775L27.581 49.8575C27.671 49.9275 27.771 49.9575 27.881 49.9575C27.981 49.9575 28.081 49.9275 28.161 49.8675C28.341 49.7475 28.411 49.5275 28.351 49.3175L26.251 42.4775L31.191 39.1075C31.371 38.9875 31.451 38.7575 31.381 38.5575C31.321 38.3475 31.121 38.2075 30.911 38.2075Z" fill="#FEE7E7"/>
<path fill-rule="evenodd" clip-rule="evenodd" d="M22.2011 30C22.6921 30 23.3879 30.2597 23.6243 31.0053L25.5928 37.2075H30.9111C31.5337 37.2075 32.136 37.6084 32.3344 38.255C32.5431 38.892 32.2852 39.5764 31.7513 39.9358L27.4233 42.8884L29.3099 49.0334L29.3126 49.0428C29.4776 49.6204 29.2982 50.2968 28.7378 50.6846C28.4726 50.8753 28.1662 50.9575 27.8811 50.9575C27.5744 50.9575 27.2549 50.8684 26.9732 50.6515L22.2011 47.0325L17.4285 50.6519C17.4278 50.6524 17.4272 50.6529 17.4265 50.6534C16.8915 51.0611 16.1936 51.0377 15.6864 50.6996C15.1087 50.3144 14.9224 49.6279 15.0895 49.0428L15.0922 49.0334L16.9789 42.8884L12.6508 39.9358C12.0775 39.55 11.8929 38.866 12.0595 38.2828C12.2457 37.6313 12.8374 37.2075 13.4911 37.2075H18.8093L20.7778 31.0053C21.0142 30.2597 21.71 30 22.2011 30ZM21.7179 31.61C21.718 31.6103 21.7178 31.6097 21.7179 31.61ZM22.2011 33.1323L24.1293 39.2075H29.27L25.0789 42.0666L26.9351 48.1126L22.2011 44.5225L17.4671 48.1126L19.3233 42.0666L15.1321 39.2075H20.2728L22.2011 33.1323ZM16.2136 49.0631C16.2147 49.0623 16.2157 49.0615 16.2168 49.0607L16.2136 49.0631ZM22.684 31.6106C22.6841 31.6103 22.6839 31.6109 22.684 31.6106Z" fill="#1C1B1A"/>
<path d="M66.5419 38.2075H60.4919L58.3019 31.3075C58.1719 30.8975 57.4919 30.8975 57.3619 31.3075L55.1719 38.2075H49.1219C48.9019 38.2075 48.7119 38.3475 48.6519 38.5575C48.5919 38.7675 48.6619 38.9875 48.8419 39.1075L53.7819 42.4775L51.6819 49.3175C51.6219 49.5275 51.6919 49.7475 51.8719 49.8675C52.0519 49.9875 52.2819 49.9875 52.4519 49.8575L57.8319 45.7775L63.2119 49.8575C63.3019 49.9275 63.4019 49.9575 63.5119 49.9575C63.6119 49.9575 63.7119 49.9275 63.7919 49.8675C63.9719 49.7475 64.0419 49.5275 63.9819 49.3175L61.8819 42.4775L66.8219 39.1075C67.0019 38.9875 67.0819 38.7575 67.0119 38.5575C66.9519 38.3475 66.7519 38.2075 66.5419 38.2075Z" fill="#FEE7E7"/>
<path fill-rule="evenodd" clip-rule="evenodd" d="M57.8319 30C58.323 30 59.0188 30.2597 59.2552 31.0053L61.2237 37.2075H66.5419C67.1646 37.2075 67.7669 37.6084 67.9652 38.255C68.174 38.8919 67.9161 39.5764 67.3822 39.9358L63.0541 42.8884L64.9408 49.0334L64.9434 49.0428C65.1085 49.6204 64.9291 50.2968 64.3687 50.6846C64.1034 50.8753 63.7971 50.9575 63.5119 50.9575C63.2052 50.9575 62.8858 50.8684 62.604 50.6515L57.8319 47.0325L53.0594 50.6519C53.0587 50.6524 53.058 50.6529 53.0574 50.6534C52.5223 51.0611 51.8245 51.0377 51.3172 50.6996C50.7395 50.3144 50.5532 49.6279 50.7204 49.0428L50.7231 49.0334L52.6097 42.8884L48.2816 39.9358C47.7083 39.55 47.5238 38.866 47.6904 38.2828C47.8765 37.6313 48.4682 37.2075 49.1219 37.2075H54.4402L56.4087 31.0053C56.6451 30.2597 57.3409 30 57.8319 30ZM57.8319 33.1323L55.9037 39.2075H50.763L54.9541 42.0666L53.0979 48.1126L57.8319 44.5225L62.5659 48.1126L60.7097 42.0666L64.9009 39.2075H59.7602L57.8319 33.1323ZM51.8445 49.0631C51.8455 49.0623 51.8466 49.0615 51.8477 49.0607L51.8445 49.0631ZM58.3149 31.6106C58.315 31.6103 58.3148 31.6109 58.3149 31.6106Z" fill="#1C1B1A"/>
</svg>
