<svg width="80" height="80" viewBox="0 0 80 80" fill="none" xmlns="http://www.w3.org/2000/svg">
<path d="M20.9155 13H60.24V9H20.9155V13Z" fill="#E7E2F2"/>
<path d="M22.8818 13H58.2739V71H22.8818V13Z" fill="white"/>
<path fill-rule="evenodd" clip-rule="evenodd" d="M58.0952 60.2727C58.0953 60.2727 58.0954 60.2727 58.0954 60.2727V54.1364L59.4343 48.153C58.6064 47.9614 57.7481 47.9496 56.9154 48.1185C56.0827 48.2875 55.2945 48.6333 54.6022 49.1334C53.91 49.6335 53.3293 50.2766 52.8982 51.0206C52.4671 51.7647 52.1952 52.5929 52.1004 53.4511C52.099 53.4641 52.0976 53.4771 52.0962 53.4901C51.8084 53.7224 51.5324 53.9723 51.27 54.2393C49.4598 56.0805 48.4429 58.5778 48.4429 61.1818C48.4429 63.7857 49.4598 66.283 51.27 68.1243C53.0802 69.9655 55.5353 71 58.0952 71V61.1818V60.2727Z" fill="#1C1B1A" fill-opacity="0.1"/>
<path fill-rule="evenodd" clip-rule="evenodd" d="M23.2378 60.2727C23.2377 60.2727 23.2376 60.2727 23.2376 60.2727V54.1364L21.8987 48.153C22.7266 47.9614 23.5849 47.9496 24.4176 48.1185C25.2503 48.2875 26.0385 48.6333 26.7308 49.1334C27.423 49.6335 28.0037 50.2766 28.4348 51.0206C28.8659 51.7647 29.1378 52.5929 29.2326 53.4511C29.234 53.4641 29.2354 53.4771 29.2368 53.4901C29.5246 53.7224 29.8006 53.9723 30.063 54.2393C31.8732 56.0805 32.8901 58.5778 32.8901 61.1818C32.8901 63.7857 31.8732 66.283 30.063 68.1243C28.2529 69.9655 25.7977 71 23.2378 71V61.1818V60.2727Z" fill="#1C1B1A" fill-opacity="0.1"/>
<path fill-rule="evenodd" clip-rule="evenodd" d="M61.3695 56.4394C61.642 55.9149 61.7963 55.3171 61.7963 54.6827C61.7963 52.6035 60.1392 50.918 58.0951 50.918C56.0511 50.918 54.394 52.6035 54.394 54.6827C54.394 55.3171 54.5483 55.9149 54.8208 56.4394C53.2251 57.5185 52.1733 59.3639 52.1733 61.4591C52.1733 64.7858 54.8246 67.4827 58.0951 67.4827C61.3657 67.4827 64.0169 64.7858 64.0169 61.4591C64.0169 59.3639 62.9652 57.5185 61.3695 56.4394Z" fill="#FEE7E7"/>
<path fill-rule="evenodd" clip-rule="evenodd" d="M26.179 56.4394C26.4515 55.9149 26.6058 55.3171 26.6058 54.6827C26.6058 52.6035 24.9488 50.918 22.9047 50.918C20.8606 50.918 19.2036 52.6035 19.2036 54.6827C19.2036 55.3171 19.3579 55.9149 19.6304 56.4394C18.0346 57.5185 16.9829 59.3639 16.9829 61.4591C16.9829 64.7858 19.6342 67.4827 22.9047 67.4827C26.1752 67.4827 28.8265 64.7858 28.8265 61.4591C28.8265 59.3639 27.7748 57.5185 26.179 56.4394Z" fill="#FEE7E7"/>
<path fill-rule="evenodd" clip-rule="evenodd" d="M19.9324 13C19.9324 13.5523 20.3726 14 20.9156 14H21.8987V50.0279C19.7952 50.4962 18.2207 52.4023 18.2207 54.6824C18.2207 55.1776 18.2952 55.6562 18.4338 56.1065C16.946 57.3937 16 59.3137 16 61.4588C16 64.9902 18.5621 67.9128 21.8987 68.4083V70H16.9831V72H22.8818H58.2738H64.1725V70H59.2569V68.3834C62.5172 67.8215 65 64.9351 65 61.4588C65 59.3137 64.054 57.3937 62.5662 56.1065C62.7048 55.6562 62.7793 55.1776 62.7793 54.6824C62.7793 52.4588 61.2819 50.591 59.2569 50.0654V14H60.24C60.783 14 61.2231 13.5523 61.2231 13V9C61.2231 8.44772 60.783 8 60.24 8H20.9156C20.3726 8 19.9324 8.44772 19.9324 9V13ZM23.8649 68.415V70H33.696V60.6824C33.696 57.1559 36.2597 54.2385 39.5947 53.7533L39.5947 14H23.8649V50.0178C25.9915 50.4683 27.5892 52.3856 27.5892 54.6824C27.5892 55.1776 27.5146 55.6562 27.376 56.1065C28.8638 57.3937 29.8098 59.3137 29.8098 61.4588C29.8098 65.0065 27.224 67.9398 23.8649 68.415ZM58.2738 12H22.8818H21.8987V10H59.2569V12H58.2738ZM41.5609 53.7533L41.5609 14H57.2907V49.9876C55.0869 50.3756 53.4108 52.3299 53.4108 54.6824C53.4108 55.1776 53.4854 55.6562 53.624 56.1065C52.1362 57.3937 51.1902 59.3137 51.1902 61.4588C51.1902 65.0611 53.8562 68.0299 57.2907 68.4352V70H47.4596V60.6824C47.4596 57.1559 44.8959 54.2385 41.5609 53.7533ZM35.6622 60.6824C35.6622 57.9209 37.863 55.6824 40.5778 55.6824C43.2926 55.6824 45.4934 57.9209 45.4934 60.6824V69.6824H35.6622V60.6824ZM58.0951 51.9177C56.594 51.9177 55.3771 53.1555 55.3771 54.6824C55.3771 55.1501 55.4904 55.5879 55.6899 55.9718C55.9258 56.4257 55.7854 56.9876 55.365 57.2718C54.0317 58.1735 53.1564 59.7124 53.1564 61.4588C53.1564 64.2333 55.3675 66.4824 58.0951 66.4824C60.8226 66.4824 63.0338 64.2333 63.0338 61.4588C63.0338 59.7124 62.1584 58.1735 60.8251 57.2718C60.4048 56.9876 60.2644 56.4257 60.5002 55.9718C60.6997 55.5879 60.8131 55.1501 60.8131 54.6824C60.8131 53.1555 59.5962 51.9177 58.0951 51.9177ZM20.1869 54.6824C20.1869 53.1555 21.4038 51.9177 22.9049 51.9177C24.406 51.9177 25.6229 53.1555 25.6229 54.6824C25.6229 55.1501 25.5096 55.5879 25.3101 55.9718C25.0742 56.4257 25.2146 56.9876 25.635 57.2718C26.9683 58.1735 27.8436 59.7124 27.8436 61.4588C27.8436 64.2333 25.6325 66.4824 22.9049 66.4824C20.1774 66.4824 17.9662 64.2333 17.9662 61.4588C17.9662 59.7124 18.8416 58.1735 20.1749 57.2718C20.5952 56.9876 20.7356 56.4257 20.4998 55.9718C20.3003 55.5879 20.1869 55.1501 20.1869 54.6824Z" fill="#1C1B1A"/>
<path d="M27.7974 25H35.6623V17H27.7974V25Z" fill="#E7E2F2"/>
<path fill-rule="evenodd" clip-rule="evenodd" d="M26.8145 25C26.8145 25.5523 27.2546 26 27.7976 26H35.6625C36.2054 26 36.6456 25.5523 36.6456 25V17C36.6456 16.4477 36.2054 16 35.6625 16H27.7976C27.2546 16 26.8145 16.4477 26.8145 17V25ZM28.7807 24V18H34.6793V24H28.7807Z" fill="#1C1B1A"/>
<path d="M45.4932 25H53.3581V17H45.4932V25Z" fill="#E7E2F2"/>
<path fill-rule="evenodd" clip-rule="evenodd" d="M44.5103 25C44.5103 25.5523 44.9504 26 45.4934 26H53.3583C53.9012 26 54.3414 25.5523 54.3414 25V17C54.3414 16.4477 53.9012 16 53.3583 16H45.4934C44.9504 16 44.5103 16.4477 44.5103 17V25ZM46.4765 24V18H52.3751V24H46.4765Z" fill="#1C1B1A"/>
<path d="M27.7974 38H35.6623V30H27.7974V38Z" fill="#E7E2F2"/>
<path fill-rule="evenodd" clip-rule="evenodd" d="M26.8145 38C26.8145 38.5523 27.2546 39 27.7976 39H35.6625C36.2054 39 36.6456 38.5523 36.6456 38V30C36.6456 29.4477 36.2054 29 35.6625 29H27.7976C27.2546 29 26.8145 29.4477 26.8145 30V38ZM28.7807 37V31H34.6793V37H28.7807Z" fill="#1C1B1A"/>
<path d="M45.4932 38H53.3581V30H45.4932V38Z" fill="#E7E2F2"/>
<path fill-rule="evenodd" clip-rule="evenodd" d="M44.5103 38C44.5103 38.5523 44.9504 39 45.4934 39H53.3583C53.9012 39 54.3414 38.5523 54.3414 38V30C54.3414 29.4477 53.9012 29 53.3583 29H45.4934C44.9504 29 44.5103 29.4477 44.5103 30V38ZM46.4765 37V31H52.3751V37H46.4765Z" fill="#1C1B1A"/>
<path d="M27.7974 51H35.6623V43H27.7974V51Z" fill="#E7E2F2"/>
<path fill-rule="evenodd" clip-rule="evenodd" d="M26.8145 51C26.8145 51.5523 27.2546 52 27.7976 52H35.6625C36.2054 52 36.6456 51.5523 36.6456 51V43C36.6456 42.4477 36.2054 42 35.6625 42H27.7976C27.2546 42 26.8145 42.4477 26.8145 43V51ZM28.7807 50V44H34.6793V50H28.7807Z" fill="#1C1B1A"/>
<path d="M45.4932 51H53.3581V43H45.4932V51Z" fill="#E7E2F2"/>
<path fill-rule="evenodd" clip-rule="evenodd" d="M44.5103 51C44.5103 51.5523 44.9504 52 45.4934 52H53.3583C53.9012 52 54.3414 51.5523 54.3414 51V43C54.3414 42.4477 53.9012 42 53.3583 42H45.4934C44.9504 42 44.5103 42.4477 44.5103 43V51ZM46.4765 50V44H52.3751V50H46.4765Z" fill="#1C1B1A"/>
<path fill-rule="evenodd" clip-rule="evenodd" d="M57.2906 72L57.2906 58L59.2568 58L59.2568 72L57.2906 72Z" fill="#1C1B1A"/>
<path d="M23.8647 13H58.2737V19H23.8647V13Z" fill="#1C1B1A" fill-opacity="0.1"/>
<path fill-rule="evenodd" clip-rule="evenodd" d="M21.922 71.1875L21.922 57.1875L23.8882 57.1875L23.8882 71.1875L21.922 71.1875Z" fill="#1C1B1A"/>
</svg>
