<svg width="42" height="42" viewBox="0 0 42 42" fill="none" xmlns="http://www.w3.org/2000/svg">
<circle cx="21" cy="21" r="21" fill="#F91111"/>
<path d="M16.8431 15.3677L21 19.5246L25.1354 15.3892C25.2268 15.292 25.3368 15.2142 25.4589 15.1605C25.5811 15.1069 25.7128 15.0784 25.8462 15.0769C26.1318 15.0769 26.4057 15.1904 26.6077 15.3923C26.8097 15.5943 26.9231 15.8682 26.9231 16.1538C26.9256 16.2859 26.9011 16.417 26.8511 16.5392C26.8011 16.6615 26.7267 16.7722 26.6323 16.8646L22.4431 21L26.6323 25.1892C26.8098 25.3629 26.9139 25.598 26.9231 25.8461C26.9231 26.1318 26.8097 26.4057 26.6077 26.6076C26.4057 26.8096 26.1318 26.9231 25.8462 26.9231C25.7089 26.9288 25.572 26.9058 25.4441 26.8558C25.3162 26.8057 25.2 26.7296 25.1031 26.6323L21 22.4754L16.8539 26.6215C16.7629 26.7155 16.6542 26.7905 16.534 26.8423C16.4139 26.894 16.2847 26.9215 16.1539 26.9231C15.8683 26.9231 15.5943 26.8096 15.3924 26.6076C15.1904 26.4057 15.077 26.1318 15.077 25.8461C15.0744 25.7141 15.0989 25.5829 15.1489 25.4607C15.1989 25.3385 15.2734 25.2278 15.3677 25.1354L19.557 21L15.3677 16.8108C15.1902 16.6371 15.0862 16.402 15.077 16.1538C15.077 15.8682 15.1904 15.5943 15.3924 15.3923C15.5943 15.1904 15.8683 15.0769 16.1539 15.0769C16.4123 15.0801 16.66 15.1846 16.8431 15.3677Z" fill="white"/>
</svg>
