<svg width="80" height="80" viewBox="0 0 80 80" fill="none" xmlns="http://www.w3.org/2000/svg">
<path fill-rule="evenodd" clip-rule="evenodd" d="M17.5801 55.5801L39.2139 55.581L39.2138 57.581L17.58 57.5801L17.5801 55.5801Z" fill="#1C1B1A"/>
<path fill-rule="evenodd" clip-rule="evenodd" d="M17.5801 44.9199H40.2227V46.9199H17.5801V44.9199Z" fill="#1C1B1A"/>
<path fill-rule="evenodd" clip-rule="evenodd" d="M17.5801 50.25H36.4092V52.25H17.5801V50.25Z" fill="#1C1B1A"/>
<path d="M30.4996 30.6203C29.6096 30.6203 28.8696 30.3203 28.2796 29.7203C27.6896 29.1203 27.3896 28.3703 27.3896 27.4703C27.3896 26.5703 27.6896 25.8203 28.2796 25.2203C28.8696 24.6203 29.6096 24.3203 30.4996 24.3203C31.3896 24.3203 32.1297 24.6203 32.7197 25.2203C33.3097 25.8203 33.6096 26.5703 33.6096 27.4703C33.6096 28.3703 33.3097 29.1203 32.7197 29.7203C32.1297 30.3203 31.3896 30.6203 30.4996 30.6203Z" fill="#E7E2F2"/>
<path fill-rule="evenodd" clip-rule="evenodd" d="M30.4996 25.3203C29.8606 25.3203 29.3829 25.5246 28.9927 25.9215C28.5974 26.3234 28.3896 26.8168 28.3896 27.4703C28.3896 28.1239 28.5974 28.6172 28.9927 29.0192C29.3829 29.4161 29.8606 29.6203 30.4996 29.6203C31.1387 29.6203 31.6164 29.4161 32.0066 29.0192C32.4019 28.6172 32.6096 28.1239 32.6096 27.4703C32.6096 26.8168 32.4019 26.3234 32.0066 25.9215C31.6164 25.5246 31.1387 25.3203 30.4996 25.3203ZM27.5666 24.5192C28.3564 23.7161 29.3587 23.3203 30.4996 23.3203C31.6406 23.3203 32.6429 23.7161 33.4327 24.5192C34.2174 25.3172 34.6096 26.3239 34.6096 27.4703C34.6096 28.6168 34.2174 29.6234 33.4327 30.4215C32.6429 31.2246 31.6406 31.6203 30.4996 31.6203C29.3587 31.6203 28.3564 31.2246 27.5666 30.4215C26.7819 29.6234 26.3896 28.6168 26.3896 27.4703C26.3896 26.3239 26.7819 25.3172 27.5666 24.5192Z" fill="#1C1B1A"/>
<path d="M23.0703 40.1304C23.0703 38.2104 24.1403 36.6204 25.5503 35.3504C26.9603 34.0804 28.3703 33.4404 30.5003 33.4404C32.6303 33.4404 34.0403 34.0804 35.4503 35.3504C36.8603 36.6204 37.9303 38.2204 37.9303 40.1304H23.0803H23.0703Z" fill="#E7E2F2"/>
<path fill-rule="evenodd" clip-rule="evenodd" d="M30.5003 34.4404C28.6381 34.4404 27.4618 34.9746 26.2196 36.0935C25.2076 37.0049 24.4737 38.0152 24.1944 39.1304H36.8052C36.525 38.0182 35.7912 37.0033 34.7811 36.0935C33.5388 34.9746 32.3625 34.4404 30.5003 34.4404ZM24.8811 34.6074C26.4588 33.1863 28.1025 32.4404 30.5003 32.4404C32.8981 32.4404 34.5418 33.1863 36.1196 34.6074C37.6341 35.9716 38.9303 37.8204 38.9303 40.1304C38.9303 40.6827 38.4826 41.1304 37.9303 41.1304H23.0703C22.518 41.1304 22.0703 40.6827 22.0703 40.1304C22.0703 37.8096 23.3674 35.9708 24.8811 34.6074Z" fill="#1C1B1A"/>
<path d="M46.3521 48.1087L47.7221 46.7487L53.6121 52.2587C53.7821 52.4587 53.9921 52.6087 54.2421 52.7287C54.8021 52.9887 55.3821 52.9787 55.8921 52.4887C56.1821 52.2087 56.3121 51.9187 56.3121 51.5987C56.3121 51.3887 56.2621 51.1887 56.1721 50.9787C56.0721 50.7587 55.9321 50.5687 55.7521 50.3887L49.5421 44.1987L49.1721 43.8287C48.7721 43.4387 48.3321 43.1387 47.8521 42.9387C46.9021 42.5387 45.8221 42.5387 44.8021 42.9387C44.3021 43.1387 43.8421 43.4387 43.4421 43.8287L38.0521 49.1287C37.6621 49.5187 37.3621 49.9487 37.1621 50.4187C36.9721 50.8887 36.8721 51.3887 36.8721 51.9287C36.8721 52.4687 36.9721 52.9387 37.1621 53.3987C37.3621 53.8587 37.6521 54.2987 38.0521 54.6887L39.0421 55.5987L46.3521 48.1287V48.1087Z" fill="#FEE7E7"/>
<path d="M65.2802 49.8996L58.9102 43.6196C58.4302 43.1496 57.9002 42.7896 57.3202 42.5596C56.1902 42.0996 54.8102 42.0796 53.6402 42.5596C53.0702 42.7896 52.5302 43.1496 52.0502 43.6196L51.5102 44.1496L56.7802 49.4096C57.0702 49.6896 57.3002 50.0196 57.4702 50.3796C57.6502 50.7596 57.7402 51.1496 57.7402 51.5596C57.7402 52.2396 57.4702 52.8596 56.9302 53.3896C56.3902 53.9196 55.7702 54.1896 55.0702 54.1896C54.6202 54.1896 54.1802 54.0896 53.7502 53.8896C53.3402 53.6996 52.9902 53.4396 52.7002 53.1096L47.8302 48.5696L46.8602 49.5296L39.9802 56.5596C39.7302 56.7696 39.5502 57.0096 39.4102 57.2996C39.2702 57.5896 39.2002 57.8796 39.2002 58.1796C39.2002 58.5796 39.3702 58.9396 39.7102 59.2796C40.2802 59.8396 40.9502 59.8996 41.5902 59.6096C41.8602 59.4896 42.1002 59.3196 42.3102 59.1096C42.3602 59.0696 42.4002 59.0096 42.4602 58.9596L48.6402 52.7096L49.6002 53.6396L43.3602 59.9496C43.1102 60.1596 42.9302 60.3996 42.7902 60.6896C42.6502 60.9796 42.5802 61.2696 42.5802 61.5696C42.5802 61.9696 42.7502 62.3196 43.0902 62.6596C43.6602 63.2196 44.3302 63.2896 44.9702 62.9896C45.2302 62.8696 45.4802 62.6996 45.6902 62.4896H45.7002C45.7702 62.4296 45.8302 62.3396 45.9102 62.2796L52.0902 56.0296L53.0502 56.9596L46.8102 63.2696C46.5602 63.4796 46.3802 63.7196 46.2402 64.0096C46.1002 64.2996 46.0302 64.5896 46.0302 64.8896C46.0302 65.2896 46.2002 65.6496 46.5402 65.9896C47.1102 66.5496 47.7802 66.6096 48.4202 66.3196C48.6902 66.1996 48.9302 66.0296 49.1402 65.8196C49.1902 65.7796 49.2302 65.7196 49.2902 65.6696L55.4702 59.4196L56.4302 60.3496L50.1902 66.6596C49.9402 66.8696 49.7602 67.1096 49.6202 67.3996C49.4802 67.6896 49.4102 67.9796 49.4102 68.2796C49.4102 68.6796 49.5802 69.0396 49.9202 69.3696C50.4902 69.9296 51.1702 69.9996 51.8002 69.6996C52.0502 69.5896 52.2802 69.4296 52.4802 69.2396L52.5602 69.1596L65.2102 56.7196C65.6902 56.2496 66.0602 55.7196 66.3102 55.1496C66.5602 54.5896 66.6802 53.9796 66.6802 53.3596C66.6802 52.7396 66.5502 52.1096 66.3002 51.4996C66.0502 50.8996 65.6802 50.3496 65.2002 49.8796L65.2802 49.8996Z" fill="#FEE7E7"/>
<path fill-rule="evenodd" clip-rule="evenodd" d="M53.8784 42.8851C54.4119 42.6669 54.9726 42.5596 55.5798 42.5596C56.1943 42.5596 56.7939 42.6694 57.3211 42.8851C57.8532 43.1028 58.3427 43.4267 58.7927 43.8767L58.7926 43.8767L58.7977 43.8817L65.1627 50.1567L65.165 50.1591C65.6192 50.6138 65.9589 51.1128 66.1832 51.6656C66.4204 52.2501 66.5398 52.8227 66.5398 53.3996C66.5398 53.9847 66.4271 54.5253 66.1965 55.0421C65.9599 55.5725 65.6231 56.0614 65.1655 56.5197L52.5486 68.9266L52.5486 68.9265L52.5427 68.9325L52.4727 69.0025L52.4726 69.0025L52.4676 69.0076L52.4621 69.0021C52.2733 69.1909 52.0746 69.3276 51.8555 69.4243C51.6297 69.5239 51.4167 69.5692 51.2092 69.5692C50.9211 69.5692 50.6285 69.4643 50.3263 69.1621L50.3263 69.162L50.3186 69.1545C50.0083 68.8508 49.9092 68.5779 49.9092 68.3092C49.9092 68.0663 49.9623 67.8235 50.0807 67.5719C50.1666 67.3963 50.2683 67.244 50.391 67.1096C50.4233 67.0792 50.4552 67.0483 50.4866 67.0169L50.4844 67.0146C50.5101 66.9903 50.5366 66.9666 50.564 66.9435L50.5985 66.9144L50.6302 66.8823L56.8302 60.6123L55.4081 59.2061L49.2375 65.4463C49.1479 65.5238 49.0631 65.6043 48.983 65.6875C48.8209 65.8333 48.6507 65.9433 48.4659 66.0249C48.2401 66.1245 48.027 66.1698 47.8195 66.1698C47.5315 66.1698 47.2389 66.0649 46.9366 65.7627L46.9367 65.7626L46.929 65.7551C46.6187 65.4514 46.5195 65.1785 46.5195 64.9098C46.5195 64.6669 46.5727 64.4241 46.6911 64.1725C46.7735 64.0039 46.8706 63.8568 46.9867 63.7264L47.0169 63.6966L47.0154 63.695C47.0649 63.642 47.1178 63.5918 47.1744 63.5441L47.2089 63.515L47.2406 63.4829L53.4406 57.2129L52.0185 55.8066L45.8478 62.0469C45.7432 62.1374 45.6452 62.232 45.5534 62.3302C45.3793 62.4945 45.1963 62.6163 44.9962 62.7045C44.7704 62.8042 44.5573 62.8495 44.3498 62.8495C44.0618 62.8495 43.7692 62.7446 43.4669 62.4423L43.467 62.4423L43.4593 62.4348C43.149 62.1311 43.0498 61.8582 43.0498 61.5895C43.0498 61.3466 43.1029 61.1038 43.2213 60.8522C43.3087 60.6736 43.4124 60.5191 43.538 60.383C43.5678 60.3549 43.5972 60.3262 43.6263 60.2971L43.6245 60.2954C43.6504 60.2709 43.6771 60.247 43.7047 60.2237L43.7392 60.1947L43.7709 60.1626L49.9709 53.8926L48.5487 52.4863L42.3781 58.7266C42.291 58.802 42.2085 58.8801 42.1303 58.9609C41.966 59.1101 41.7932 59.2223 41.6055 59.3051C41.3797 59.4047 41.1667 59.45 40.9592 59.45C40.6711 59.45 40.3786 59.3452 40.0763 59.0429L40.0763 59.0429L40.0686 59.0354C39.7583 58.7317 39.6592 58.4588 39.6592 58.19C39.6592 57.9472 39.7123 57.7043 39.8307 57.4528C39.9541 57.2006 40.1101 56.9964 40.314 56.8243L40.3505 56.7936L40.3838 56.7595L47.2511 49.7429L47.9589 49.0451L52.5896 53.3653C52.9163 53.7342 53.309 54.0084 53.7235 54.2094L53.7347 54.2148L53.746 54.2199C54.1962 54.4246 54.6868 54.5396 55.1898 54.5396C55.9959 54.5396 56.7024 54.2112 57.2769 53.6367C57.8347 53.0789 58.1898 52.3861 58.1898 51.5696C58.1898 51.1031 58.0832 50.655 57.8803 50.2348C57.6958 49.8526 57.4509 49.4945 57.1193 49.1749L52.0988 44.1719L52.3934 43.8802L52.3969 43.8767C52.8432 43.4304 53.3415 43.1047 53.8784 42.8851ZM41.0498 61.5895C41.0498 61.5424 41.0507 61.4955 41.0525 61.4488C41.0215 61.4496 40.9904 61.45 40.9592 61.45C40.089 61.45 39.303 61.0963 38.6659 60.461C38.0385 59.8453 37.6592 59.0795 37.6592 58.19C37.6592 57.6619 37.7732 57.1518 37.9907 56.6674L37.0946 55.8474L37.0823 55.8362L37.0704 55.8245C36.5258 55.2918 36.0944 54.6826 35.8071 53.9955C35.5235 53.3173 35.3896 52.6155 35.3896 51.8797C35.3896 51.1395 35.5214 50.4169 35.8071 49.7339C36.0942 49.0472 36.5253 48.4383 37.0695 47.9057L37.0704 47.9049L42.4585 42.6067L42.4604 42.6049C43.0088 42.0683 43.6492 41.6426 44.3696 41.3607C45.0728 41.0756 45.7982 40.9297 46.5496 40.9297C47.3049 40.9297 48.0189 41.0771 48.7036 41.3705C49.3793 41.6601 49.9923 42.0701 50.5389 42.6049L50.5427 42.6085L50.5427 42.6086L50.689 42.7532L50.9845 42.4606C51.6178 41.8278 52.3388 41.3541 53.1211 41.034C53.9077 40.7123 54.727 40.5596 55.5798 40.5596C56.4253 40.5596 57.2856 40.7097 58.0784 41.034C58.8652 41.3559 59.5749 41.8312 60.2043 42.4599L60.2069 42.4625L66.5718 48.7374L66.5769 48.7424L66.5769 48.7425C67.2015 49.3671 67.7011 50.0873 68.0364 50.9136C68.3592 51.709 68.5398 52.5364 68.5398 53.3996C68.5398 54.2545 68.3724 55.0739 68.023 55.857C67.6801 56.6255 67.1978 57.3157 66.5769 57.9367L66.5709 57.9426L66.5709 57.9426L53.9539 70.3496L53.8869 70.4167L53.8869 70.4167L53.7669 70.5367L53.7593 70.529C53.4366 70.8285 53.0733 71.073 52.6628 71.2541C52.2086 71.4545 51.7217 71.5692 51.2092 71.5692C50.339 71.5692 49.553 71.2155 48.9159 70.5801C48.2885 69.9645 47.9092 69.1987 47.9092 68.3092C47.9092 68.2621 47.9101 68.2153 47.9119 68.1685C47.8812 68.1693 47.8504 68.1698 47.8195 68.1698C46.9493 68.1698 46.1633 67.816 45.5263 67.1807C44.8988 66.5651 44.5195 65.7993 44.5195 64.9098C44.5195 64.8882 44.5197 64.8667 44.5201 64.8452C44.4637 64.848 44.4069 64.8495 44.3498 64.8495C43.4796 64.8495 42.6936 64.4957 42.0566 63.8604C41.4291 63.2447 41.0498 62.4789 41.0498 61.5895ZM49.2677 44.1604L49.1404 44.0345L49.1386 44.0328C48.7657 43.6684 48.3593 43.399 47.9157 43.2088C47.4804 43.0222 47.0344 42.9297 46.5496 42.9297C46.0634 42.9297 45.5911 43.0229 45.1164 43.216L45.1097 43.2187L45.1029 43.2214C44.6464 43.3993 44.2294 43.6723 43.8599 44.0336L43.8589 44.0345L38.4708 49.3327L38.4689 49.3345C38.0935 49.7018 37.8249 50.0926 37.6522 50.5055C37.4779 50.9224 37.3896 51.3799 37.3896 51.8797C37.3896 52.3639 37.4758 52.8021 37.6522 53.2239C37.8232 53.6326 38.0881 54.0197 38.4576 54.3838L39.2241 55.0851L45.8081 48.358L45.8077 48.3575L45.8342 48.3313L46.3145 47.8406L46.3232 47.8491L47.2377 46.9475L47.9206 46.2741L48.6219 46.9284L53.9919 51.9384L54.0338 51.9775L54.071 52.0211C54.1942 52.1657 54.3623 52.2948 54.5847 52.4042C54.7907 52.4961 54.9962 52.5396 55.1898 52.5396C55.4037 52.5396 55.6172 52.468 55.8627 52.2225C56.1248 51.9603 56.1898 51.753 56.1898 51.5696C56.1898 51.416 56.1564 51.2641 56.0792 51.1043C55.9852 50.9095 55.8724 50.7501 55.7279 50.6116L55.7208 50.6048L55.7139 50.5979L49.9739 44.8779L49.2608 44.1673L49.2677 44.1604Z" fill="#1C1B1A"/>
<path fill-rule="evenodd" clip-rule="evenodd" d="M11.4697 10.4297C11.4697 9.32512 12.3652 8.42969 13.4697 8.42969H47.5197C48.6243 8.42969 49.5197 9.32512 49.5197 10.4297V42.375H47.5197V10.4297H13.4697V62.7997H44.375V64.7997H13.4697C12.3652 64.7997 11.4697 63.9043 11.4697 62.7997V10.4297Z" fill="#1C1B1A"/>
<path fill-rule="evenodd" clip-rule="evenodd" d="M43.5379 39.367C45.4445 38.5936 47.545 38.5956 49.3975 39.3778L47.8416 43.0628C46.9949 42.7053 45.9962 42.687 45.0435 43.0728C44.5777 43.2634 44.1539 43.5392 43.7742 43.9039L38.3908 49.1974C38.0139 49.5674 37.7432 49.9688 37.5749 50.3715C37.4024 50.7843 37.3096 51.2407 37.3096 51.7503C37.3096 52.2451 37.3968 52.663 37.5749 53.0891C37.7394 53.4827 37.9933 53.8683 38.3907 54.2634L40.3238 56.0461L39.7341 57.3595C39.6162 57.6221 39.5696 57.8541 39.5696 58.0603C39.5696 58.3162 39.6511 58.5864 39.9777 58.9102C40.2822 59.2038 40.5431 59.3024 40.7937 59.318C40.8459 59.3137 40.9087 59.3103 40.9796 59.3103H42.9796V61.3103C42.9796 61.4054 42.9733 61.4903 42.9651 61.5619C42.9883 61.7865 43.0894 62.0261 43.3731 62.3055L40.566 65.1551C39.9492 64.5475 39.4861 63.8373 39.2194 63.0474C38.4646 62.7881 37.7811 62.3522 37.1869 61.7758L37.1815 61.7705L37.176 61.7651C36.1671 60.7713 35.5696 59.5031 35.5696 58.0603C35.5696 57.7574 35.5951 57.4604 35.6431 57.1708L35.6303 57.159L35.6077 57.1368C34.857 56.3991 34.2769 55.5711 33.8842 54.6315C33.5023 53.7176 33.3096 52.7755 33.3096 51.7503C33.3096 50.74 33.4967 49.7564 33.8842 48.8291C34.2758 47.8921 34.8649 47.0536 35.5879 46.3437L40.9843 41.0374L40.9913 41.0306C41.7294 40.3189 42.5826 39.7571 43.5333 39.3688L43.5379 39.367ZM41.2074 63.2952C41.2133 63.2944 41.2079 63.2952 41.2009 63.2961L41.2074 63.2952ZM40.6418 59.3354C40.6358 59.3363 40.6412 59.3355 40.6483 59.3345L40.6418 59.3354Z" fill="#1C1B1A" fill-opacity="0.1"/>
<path fill-rule="evenodd" clip-rule="evenodd" d="M22.2197 15.5801C22.2197 14.4755 23.1152 13.5801 24.2197 13.5801H36.7797C37.8843 13.5801 38.7797 14.4755 38.7797 15.5801V17.5301C38.7797 18.6346 37.8843 19.5301 36.7797 19.5301H24.2197C23.1152 19.5301 22.2197 18.6346 22.2197 17.5301V15.5801ZM36.7797 15.5801H24.2197V17.5301H36.7797V15.5801Z" fill="#1C1B1A"/>
</svg>
