<svg width="80" height="80" viewBox="0 0 80 80" fill="none" xmlns="http://www.w3.org/2000/svg">
<path d="M30.7099 18.9096H24.6599L22.4699 12.0096C22.3399 11.5996 21.6599 11.5996 21.5299 12.0096L19.3399 18.9096H13.2899C13.0699 18.9096 12.8798 19.0496 12.8198 19.2596C12.7598 19.4696 12.8299 19.6896 13.0099 19.8096L17.9499 23.1796L15.8499 30.0196C15.7899 30.2296 15.8599 30.4496 16.0399 30.5696C16.2199 30.6896 16.4499 30.6896 16.6199 30.5596L21.9999 26.4796L27.3799 30.5596C27.4699 30.6296 27.5699 30.6596 27.6799 30.6596C27.7799 30.6596 27.8799 30.6296 27.9599 30.5696C28.1399 30.4496 28.2099 30.2296 28.1499 30.0196L26.0499 23.1796L30.9899 19.8096C31.1699 19.6896 31.2499 19.4596 31.1799 19.2596C31.1199 19.0496 30.9199 18.9096 30.7099 18.9096Z" fill="#FEE7E7"/>
<path fill-rule="evenodd" clip-rule="evenodd" d="M21.9999 10.7021C22.491 10.7021 23.1867 10.9618 23.4231 11.7074L25.3917 17.9096H30.7099C31.3325 17.9096 31.9349 18.3106 32.1332 18.9571C32.3419 19.5941 32.0841 20.2784 31.5503 20.6379L27.2221 23.5905L29.1087 29.7355L29.1114 29.7449C29.2765 30.3226 29.097 30.999 28.5367 31.3867C28.2714 31.5774 27.9651 31.6596 27.6799 31.6596C27.3732 31.6596 27.0538 31.5706 26.772 31.3537L21.9999 27.7347L17.2273 31.354C17.2266 31.3545 17.2259 31.3551 17.2252 31.3556C16.6902 31.7633 15.9924 31.7398 15.4852 31.4017C14.9075 31.0166 14.7212 30.3301 14.8884 29.7449L14.8911 29.7355L16.7777 23.5905L12.4496 20.638C11.8763 20.2521 11.6917 19.5682 11.8584 18.9849C12.0445 18.3335 12.6362 17.9096 13.2899 17.9096H18.6081L20.5767 11.7074C20.8131 10.9618 21.5088 10.7021 21.9999 10.7021ZM21.5168 12.3122C21.5168 12.3124 21.5167 12.3119 21.5168 12.3122ZM21.9999 13.8344L23.9281 19.9096H29.0688L24.8777 22.7688L26.7339 28.8147L21.9999 25.2246L17.2659 28.8147L19.1221 22.7688L14.931 19.9096H20.0717L21.9999 13.8344ZM16.0124 29.7653C16.0135 29.7645 16.0146 29.7637 16.0156 29.7629L16.0124 29.7653ZM22.4829 12.3127C22.483 12.3124 22.4828 12.313 22.4829 12.3127Z" fill="#1C1B1A"/>
<path d="M66.3397 18.9096H60.2897L58.0997 12.0096C57.9697 11.5996 57.2897 11.5996 57.1597 12.0096L54.9697 18.9096H48.9197C48.6997 18.9096 48.5097 19.0496 48.4497 19.2596C48.3897 19.4696 48.4597 19.6896 48.6397 19.8096L53.5797 23.1796L51.4797 30.0196C51.4197 30.2296 51.4897 30.4496 51.6697 30.5696C51.8497 30.6896 52.0797 30.6896 52.2497 30.5596L57.6297 26.4796L63.0097 30.5596C63.0997 30.6296 63.1997 30.6596 63.3097 30.6596C63.4097 30.6596 63.5097 30.6296 63.5897 30.5696C63.7697 30.4496 63.8397 30.2296 63.7797 30.0196L61.6797 23.1796L66.6197 19.8096C66.7997 19.6896 66.8797 19.4596 66.8097 19.2596C66.7497 19.0496 66.5497 18.9096 66.3397 18.9096Z" fill="#FEE7E7"/>
<path fill-rule="evenodd" clip-rule="evenodd" d="M57.6298 10.7021C58.1208 10.7021 58.8164 10.9618 59.0529 11.7071C59.0529 11.7072 59.0529 11.707 59.0529 11.7071L61.0215 17.9096H66.3398C66.9624 17.9096 67.5648 18.3106 67.7631 18.9571C67.9718 19.5941 67.7139 20.2785 67.18 20.638L62.852 23.5905L64.7386 29.7355L64.7413 29.7449C64.9063 30.3226 64.7269 30.999 64.1665 31.3867C63.9013 31.5774 63.5949 31.6596 63.3098 31.6596C63.0031 31.6596 62.6836 31.5706 62.4019 31.3537L57.6298 27.7347L52.8572 31.354C52.8566 31.3545 52.8559 31.355 52.8552 31.3555C52.3202 31.7633 51.6223 31.7399 51.1151 31.4017C50.5374 31.0166 50.3511 30.3301 50.5183 29.7449L50.5209 29.7355L52.4076 23.5905L48.0795 20.638C47.5062 20.2521 47.3216 19.5682 47.4883 18.9849C47.6744 18.3335 48.2661 17.9096 48.9198 17.9096H54.238L56.2065 11.7074C56.4429 10.9618 57.1387 10.7021 57.6298 10.7021ZM57.6298 13.8344L55.7015 19.9096H50.5608L54.752 22.7688L52.8958 28.8147L57.6298 25.2246L62.3638 28.8147L60.5076 22.7688L64.6987 19.9096H59.558L57.6298 13.8344ZM51.6423 29.7653C51.6434 29.7645 51.6445 29.7637 51.6455 29.7629L51.6423 29.7653ZM58.1127 12.3128C58.1128 12.3125 58.1126 12.3131 58.1127 12.3128Z" fill="#1C1B1A"/>
<path d="M31.08 56.5395H25.03L22.84 49.6395C22.71 49.2295 22.03 49.2295 21.9 49.6395L19.71 56.5395H13.66C13.44 56.5395 13.25 56.6795 13.19 56.8895C13.13 57.0995 13.2 57.3195 13.38 57.4395L18.32 60.8095L16.22 67.6495C16.16 67.8595 16.23 68.0795 16.41 68.1995C16.59 68.3195 16.82 68.3195 16.99 68.1895L22.37 64.1095L27.75 68.1895C27.84 68.2595 27.94 68.2895 28.05 68.2895C28.15 68.2895 28.25 68.2595 28.33 68.1995C28.51 68.0795 28.58 67.8595 28.52 67.6495L26.42 60.8095L31.36 57.4395C31.54 57.3195 31.62 57.0895 31.55 56.8895C31.49 56.6795 31.29 56.5395 31.08 56.5395Z" fill="#FEE7E7"/>
<path fill-rule="evenodd" clip-rule="evenodd" d="M22.37 48.332C22.8611 48.332 23.5568 48.5917 23.7932 49.3373L25.7618 55.5395H31.08C31.7027 55.5395 32.305 55.9405 32.5033 56.587C32.7121 57.2239 32.4542 57.9083 31.9204 58.2678L27.5922 61.2204L29.4788 67.3654L29.4815 67.3748C29.6466 67.9525 29.4671 68.6288 28.9068 69.0166C28.6415 69.2073 28.3352 69.2895 28.05 69.2895C27.7434 69.2895 27.4239 69.2005 27.1422 68.9836L22.37 65.3646L17.5975 68.9839C17.5968 68.9844 17.5961 68.985 17.5954 68.9855C17.0603 69.3932 16.3625 69.3697 15.8553 69.0316C15.2776 68.6464 15.0913 67.96 15.2585 67.3748L15.2612 67.3654L17.1478 61.2204L12.8197 58.2678C12.2464 57.882 12.0618 57.1981 12.2285 56.6148C12.4146 55.9633 13.0063 55.5395 13.66 55.5395H18.9782L20.9468 49.3373C21.1832 48.5917 21.879 48.332 22.37 48.332ZM21.8869 49.9421C21.887 49.9423 21.8868 49.9418 21.8869 49.9421ZM22.37 51.4643L24.2982 57.5395H29.4389L25.2478 60.3987L27.104 66.4446L22.37 62.8545L17.636 66.4446L19.4922 60.3987L15.3011 57.5395H20.4418L22.37 51.4643ZM16.3826 67.3952C16.3836 67.3944 16.3847 67.3935 16.3858 67.3927L16.3826 67.3952ZM22.853 49.9426C22.8531 49.9423 22.8529 49.9429 22.853 49.9426Z" fill="#1C1B1A"/>
<path d="M66.7001 56.5395H60.6501L58.4601 49.6395C58.3301 49.2295 57.6501 49.2295 57.5201 49.6395L55.3301 56.5395H49.2801C49.0601 56.5395 48.8701 56.6795 48.8101 56.8895C48.7501 57.0995 48.8201 57.3195 49.0001 57.4395L53.9401 60.8095L51.8401 67.6495C51.7801 67.8595 51.8501 68.0795 52.0301 68.1995C52.2101 68.3195 52.4401 68.3195 52.6101 68.1895L57.9901 64.1095L63.3701 68.1895C63.4601 68.2595 63.5601 68.2895 63.6701 68.2895C63.7701 68.2895 63.8701 68.2595 63.9501 68.1995C64.1301 68.0795 64.2001 67.8595 64.1401 67.6495L62.0401 60.8095L66.9801 57.4395C67.1601 57.3195 67.2401 57.0895 67.1701 56.8895C67.1101 56.6795 66.9101 56.5395 66.7001 56.5395Z" fill="#FEE7E7"/>
<path fill-rule="evenodd" clip-rule="evenodd" d="M57.9901 48.332C58.4812 48.332 59.177 48.5917 59.4134 49.3373L61.3819 55.5395H66.7001C67.3228 55.5395 67.9251 55.9405 68.1234 56.587C68.3322 57.2239 68.0743 57.9083 67.5405 58.2678L63.2123 61.2204L65.099 67.3654L65.1017 67.3748C65.2667 67.9524 65.0873 68.6288 64.5269 69.0166C64.2616 69.2073 63.9553 69.2895 63.6701 69.2895C63.3635 69.2895 63.044 69.2005 62.7623 68.9836L57.9901 65.3646L53.2176 68.9839C53.2169 68.9844 53.2162 68.9849 53.2156 68.9854C52.6805 69.3932 51.9826 69.3697 51.4754 69.0316C50.8977 68.6464 50.7114 67.96 50.8786 67.3748L50.8813 67.3654L52.7679 61.2204L48.4399 58.2679C47.8665 57.8821 47.682 57.1981 47.8486 56.6148C48.0347 55.9633 48.6264 55.5395 49.2801 55.5395H54.5984L56.5669 49.3373C56.8033 48.5917 57.4991 48.332 57.9901 48.332ZM57.9901 51.4643L56.0619 57.5395H50.9212L55.1123 60.3987L53.2561 66.4446L57.9901 62.8545L62.7241 66.4446L60.8679 60.3987L65.0591 57.5395H59.9184L57.9901 51.4643ZM52.0027 67.3952C52.0037 67.3944 52.0048 67.3935 52.0059 67.3927L52.0027 67.3952ZM58.4731 49.9427C58.4732 49.9424 58.473 49.943 58.4731 49.9427Z" fill="#1C1B1A"/>
<path d="M48.7099 37.73H42.6599L40.4699 30.83C40.3399 30.42 39.6599 30.42 39.5299 30.83L37.3399 37.73H31.2899C31.0699 37.73 30.8798 37.87 30.8198 38.08C30.7598 38.29 30.8299 38.51 31.0099 38.63L35.9499 42L33.8498 48.84C33.7898 49.05 33.8599 49.27 34.0399 49.39C34.2199 49.51 34.4498 49.51 34.6198 49.38L39.9999 45.3L45.3799 49.38C45.4699 49.45 45.5699 49.48 45.6799 49.48C45.7799 49.48 45.8799 49.45 45.9599 49.39C46.1399 49.27 46.2099 49.05 46.1499 48.84L44.0499 42L48.9899 38.63C49.1699 38.51 49.2499 38.28 49.1799 38.08C49.1199 37.87 48.9199 37.73 48.7099 37.73Z" fill="#FEE7E7"/>
<path fill-rule="evenodd" clip-rule="evenodd" d="M39.9999 29.5225C40.491 29.5225 41.1867 29.7822 41.4231 30.5277L43.3917 36.73H48.7099C49.3326 36.73 49.9349 37.1309 50.1332 37.7774C50.342 38.4144 50.084 39.0988 49.5502 39.4583L45.2221 42.4108L47.1087 48.5558L47.1114 48.5652C47.2765 49.1429 47.097 49.8193 46.5367 50.207C46.2714 50.3977 45.9651 50.48 45.6799 50.48C45.3732 50.48 45.0538 50.3909 44.772 50.174L39.9999 46.555L35.2273 50.1743C35.2266 50.1749 35.2259 50.1754 35.2252 50.1759C34.6902 50.5836 33.9924 50.5601 33.4852 50.222C32.9075 49.8369 32.7212 49.1504 32.8884 48.5652L32.8911 48.5558L34.7777 42.4108L30.4496 39.4583C29.8763 39.0725 29.6917 38.3885 29.8584 37.8052C30.0445 37.1538 30.6362 36.73 31.2899 36.73H36.6081L38.5767 30.5277C38.8131 29.7822 39.5088 29.5225 39.9999 29.5225ZM39.5168 31.1325C39.5168 31.1328 39.5167 31.1322 39.5168 31.1325ZM39.9999 32.6547L41.9281 38.73H47.0688L42.8777 41.5891L44.7339 47.635L39.9999 44.0449L35.2659 47.635L37.1221 41.5891L32.931 38.73H38.0717L39.9999 32.6547ZM34.0124 48.5856C34.0135 48.5848 34.0146 48.584 34.0156 48.5832L34.0124 48.5856ZM40.4828 31.1331C40.4829 31.1328 40.4828 31.1334 40.4828 31.1331Z" fill="#1C1B1A"/>
</svg>
