<svg width="24" height="24" viewBox="0 0 24 24" fill="none" xmlns="http://www.w3.org/2000/svg">
<path d="M6.72855 2.31692L8.38883 1.81635C8.93678 1.65141 9.52602 1.69143 10.0466 1.92895C10.5673 2.16647 10.9837 2.58526 11.2183 3.10721L12.3823 5.69578C12.5843 6.14486 12.6406 6.64593 12.5433 7.12865C12.446 7.61136 12.1999 8.05148 11.8397 8.38721L10.068 10.0381C9.83055 10.2635 10.0105 11.1421 10.878 12.6455C11.7463 14.1498 12.4174 14.7446 12.7268 14.6521L15.048 13.9424C15.5185 13.7984 16.0222 13.8054 16.4886 13.9621C16.9549 14.1189 17.3605 14.4177 17.6485 14.8166L19.3028 17.1095C19.637 17.5725 19.7917 18.141 19.7382 18.7095C19.6848 19.278 19.4268 19.8077 19.0123 20.2003L17.7334 21.4115C17.3206 21.8025 16.8114 22.0769 16.2579 22.2069C15.7043 22.3368 15.1262 22.3176 14.5825 22.1512C11.9031 21.3309 9.42169 18.8966 7.10483 14.8826C4.78283 10.8626 3.90598 7.47178 4.51712 4.7015C4.64038 4.14328 4.91028 3.62805 5.299 3.20889C5.68772 2.78974 6.18119 2.48184 6.72855 2.31692Z" fill="#146EB4"/>
</svg>
