<svg width="80" height="80" viewBox="0 0 80 80" fill="none" xmlns="http://www.w3.org/2000/svg">
<path d="M32.91 21.2075H26.86L24.67 14.3075C24.54 13.8975 23.86 13.8975 23.73 14.3075L21.54 21.2075H15.49C15.27 21.2075 15.08 21.3475 15.02 21.5575C14.96 21.7675 15.03 21.9875 15.21 22.1075L20.15 25.4775L18.05 32.3175C17.99 32.5275 18.06 32.7475 18.24 32.8675C18.42 32.9875 18.65 32.9875 18.82 32.8575L24.2 28.7775L29.58 32.8575C29.67 32.9275 29.77 32.9575 29.88 32.9575C29.98 32.9575 30.08 32.9275 30.16 32.8675C30.34 32.7475 30.41 32.5275 30.35 32.3175L28.25 25.4775L33.19 22.1075C33.37 21.9875 33.45 21.7575 33.38 21.5575C33.32 21.3475 33.12 21.2075 32.91 21.2075Z" fill="#FEE7E7"/>
<path fill-rule="evenodd" clip-rule="evenodd" d="M24.2001 13C24.6911 13 25.3869 13.2597 25.6233 14.0053L27.5919 20.2075H32.9101C33.5328 20.2075 34.1351 20.6084 34.3334 21.255C34.5421 21.8919 34.2843 22.5763 33.7505 22.9357L29.4223 25.8884L31.3089 32.0334L31.3116 32.0428C31.4767 32.6204 31.2972 33.2968 30.7368 33.6846C30.4716 33.8753 30.1653 33.9575 29.8801 33.9575C29.5734 33.9575 29.254 33.8684 28.9722 33.6516L24.2001 30.0325L19.4275 33.6519C19.4268 33.6524 19.4261 33.6529 19.4254 33.6535C18.8904 34.0611 18.1926 34.0377 17.6854 33.6996C17.1077 33.3144 16.9214 32.6279 17.0886 32.0428L17.0913 32.0334L18.9779 25.8884L14.6498 22.9358C14.0765 22.55 13.8919 21.866 14.0586 21.2828C14.2447 20.6313 14.8364 20.2075 15.4901 20.2075H20.8083L22.7769 14.0053C23.0133 13.2597 23.709 13 24.2001 13ZM23.7169 14.61C23.717 14.6103 23.7169 14.6098 23.7169 14.61ZM24.2001 16.1323L26.1283 22.2075H31.269L27.0779 25.0666L28.9341 31.1126L24.2001 27.5225L19.4661 31.1126L21.3223 25.0666L17.1312 22.2075H22.2719L24.2001 16.1323ZM18.2126 32.0631C18.2137 32.0623 18.2148 32.0615 18.2158 32.0607L18.2126 32.0631ZM24.6831 14.6105C24.6832 14.6103 24.683 14.6108 24.6831 14.6105Z" fill="#1C1B1A"/>
<path d="M64.5302 21.2075H58.4802L56.2902 14.3075C56.1602 13.8975 55.4802 13.8975 55.3502 14.3075L53.1602 21.2075H47.1102C46.8902 21.2075 46.7002 21.3475 46.6402 21.5575C46.5802 21.7675 46.6502 21.9875 46.8302 22.1075L51.7702 25.4775L49.6702 32.3175C49.6102 32.5275 49.6802 32.7475 49.8602 32.8675C50.0402 32.9875 50.2702 32.9875 50.4402 32.8575L55.8202 28.7775L61.2002 32.8575C61.2902 32.9275 61.3902 32.9575 61.5002 32.9575C61.6002 32.9575 61.7002 32.9275 61.7802 32.8675C61.9602 32.7475 62.0302 32.5275 61.9702 32.3175L59.8702 25.4775L64.8102 22.1075C64.9902 21.9875 65.0702 21.7575 65.0002 21.5575C64.9402 21.3475 64.7402 21.2075 64.5302 21.2075Z" fill="#FEE7E7"/>
<path fill-rule="evenodd" clip-rule="evenodd" d="M55.8202 13C56.3112 13 57.0069 13.2596 57.2433 14.005C57.2434 14.0051 57.2433 14.0049 57.2433 14.005L59.212 20.2075H64.5302C65.1529 20.2075 65.7552 20.6084 65.9535 21.255C66.1623 21.8919 65.9043 22.5764 65.3705 22.9358L61.0424 25.8884L62.929 32.0334L62.9317 32.0428C63.0968 32.6204 62.9173 33.2968 62.357 33.6846C62.0917 33.8753 61.7854 33.9575 61.5002 33.9575C61.1936 33.9575 60.8741 33.8684 60.5924 33.6516L55.8202 30.0325L51.0477 33.6519C51.047 33.6524 51.0463 33.6529 51.0456 33.6534C50.5106 34.0611 49.8127 34.0377 49.3055 33.6996C48.7278 33.3144 48.5415 32.6279 48.7087 32.0428L48.7114 32.0334L50.598 25.8884L46.2699 22.9358C45.6966 22.55 45.512 21.866 45.6787 21.2828C45.8648 20.6313 46.4565 20.2075 47.1102 20.2075H52.4284L54.397 14.0053C54.6334 13.2597 55.3291 13 55.8202 13ZM55.8202 16.1323L53.892 22.2075H48.7513L52.9424 25.0666L51.0862 31.1126L55.8202 27.5225L60.5542 31.1126L58.698 25.0666L62.8891 22.2075H57.7484L55.8202 16.1323ZM49.8328 32.0631C49.8338 32.0623 49.8349 32.0615 49.836 32.0607L49.8328 32.0631ZM56.3032 14.6106C56.3033 14.6103 56.3031 14.6109 56.3032 14.6106Z" fill="#1C1B1A"/>
<path d="M33.2704 54.8374H27.2204L25.0304 47.9374C24.9004 47.5274 24.2204 47.5274 24.0904 47.9374L21.9004 54.8374H15.8504C15.6304 54.8374 15.4404 54.9774 15.3804 55.1874C15.3204 55.3974 15.3904 55.6174 15.5704 55.7374L20.5104 59.1074L18.4104 65.9474C18.3504 66.1574 18.4204 66.3774 18.6004 66.4974C18.7804 66.6174 19.0104 66.6174 19.1804 66.4874L24.5604 62.4074L29.9404 66.4874C30.0304 66.5574 30.1304 66.5874 30.2404 66.5874C30.3404 66.5874 30.4404 66.5574 30.5204 66.4974C30.7004 66.3774 30.7704 66.1574 30.7104 65.9474L28.6104 59.1074L33.5504 55.7374C33.7304 55.6174 33.8104 55.3874 33.7404 55.1874C33.6804 54.9774 33.4804 54.8374 33.2704 54.8374Z" fill="#FEE7E7"/>
<path fill-rule="evenodd" clip-rule="evenodd" d="M24.5604 46.6299C25.0515 46.6299 25.7473 46.8896 25.9837 47.6351L27.9522 53.8374H33.2704C33.8931 53.8374 34.4954 54.2383 34.6937 54.8849C34.9025 55.5218 34.6446 56.2061 34.1109 56.5656L29.7827 59.5182L31.6693 65.6632L31.672 65.6727C31.837 66.2503 31.6576 66.9267 31.0972 67.3145C30.8319 67.5052 30.5256 67.5874 30.2404 67.5874C29.9338 67.5874 29.6144 67.4983 29.3326 67.2815L24.5604 63.6624L19.7879 67.2817C19.7872 67.2823 19.7865 67.2828 19.7858 67.2834C19.2508 67.691 18.5529 67.6676 18.0457 67.3294C17.468 66.9443 17.2817 66.2578 17.4489 65.6727L17.4516 65.6632L19.3382 59.5182L15.0101 56.5657C14.4368 56.1798 14.2523 55.4959 14.4189 54.9127C14.6051 54.2612 15.1967 53.8374 15.8504 53.8374H21.1687L23.1372 47.6351C23.3736 46.8896 24.0694 46.6299 24.5604 46.6299ZM24.0773 48.2399C24.0774 48.2402 24.0772 48.2396 24.0773 48.2399ZM24.5604 49.7621L26.4887 55.8374H31.6294L27.4382 58.6965L29.2944 64.7424L24.5604 61.1523L19.8265 64.7424L21.6827 58.6965L17.4915 55.8374H22.6322L24.5604 49.7621ZM18.573 65.693C18.5741 65.6922 18.5751 65.6914 18.5762 65.6906L18.573 65.693ZM25.0434 48.2404C25.0435 48.2402 25.0433 48.2407 25.0434 48.2404Z" fill="#1C1B1A"/>
<path d="M64.8905 54.8374H58.8405L56.6505 47.9374C56.5205 47.5274 55.8405 47.5274 55.7105 47.9374L53.5205 54.8374H47.4705C47.2505 54.8374 47.0605 54.9774 47.0005 55.1874C46.9405 55.3974 47.0105 55.6174 47.1905 55.7374L52.1305 59.1074L50.0305 65.9474C49.9705 66.1574 50.0405 66.3774 50.2205 66.4974C50.4005 66.6174 50.6305 66.6174 50.8005 66.4874L56.1805 62.4074L61.5605 66.4874C61.6505 66.5574 61.7505 66.5874 61.8605 66.5874C61.9605 66.5874 62.0605 66.5574 62.1405 66.4974C62.3205 66.3774 62.3905 66.1574 62.3305 65.9474L60.2305 59.1074L65.1705 55.7374C65.3505 55.6174 65.4305 55.3874 65.3605 55.1874C65.3005 54.9774 65.1005 54.8374 64.8905 54.8374Z" fill="#FEE7E7"/>
<path fill-rule="evenodd" clip-rule="evenodd" d="M56.1806 46.6299C56.6716 46.6299 57.3674 46.8896 57.6038 47.6351L59.5723 53.8374H64.8906C65.5132 53.8374 66.1155 54.2383 66.3138 54.8849C66.5226 55.5218 66.2647 56.2061 65.731 56.5656L61.4028 59.5182L63.2894 65.6632L63.2921 65.6727C63.4571 66.2503 63.2777 66.9267 62.7173 67.3145C62.4521 67.5052 62.1457 67.5874 61.8606 67.5874C61.5539 67.5874 61.2345 67.4983 60.9527 67.2815L56.1806 63.6624L51.408 67.2817C51.4073 67.2823 51.4067 67.2828 51.406 67.2833C50.871 67.691 50.1731 67.6676 49.6659 67.3294C49.0882 66.9443 48.9019 66.2578 49.069 65.6727L49.0717 65.6632L50.9583 59.5182L46.6303 56.5657C46.057 56.1799 45.8724 55.4959 46.039 54.9127C46.2252 54.2612 46.8169 53.8374 47.4706 53.8374H52.7888L54.7573 47.6351C54.9937 46.8896 55.6895 46.6299 56.1806 46.6299ZM56.1806 49.7621L54.2523 55.8374H49.1116L53.3028 58.6965L51.4466 64.7424L56.1806 61.1523L60.9145 64.7424L59.0583 58.6965L63.2495 55.8374H58.1088L56.1806 49.7621ZM50.1931 65.693C50.1942 65.6922 50.1952 65.6914 50.1963 65.6906L50.1931 65.693ZM56.6635 48.2405C56.6636 48.2402 56.6634 48.2408 56.6635 48.2405Z" fill="#1C1B1A"/>
</svg>
