<svg width="80" height="80" viewBox="0 0 80 80" fill="none" xmlns="http://www.w3.org/2000/svg">
<path d="M39.6804 42.13C37.3804 42.13 35.2304 41.69 33.2304 40.82C31.2204 39.95 29.4704 38.76 27.9704 37.27C26.4704 35.77 25.2904 34.02 24.4204 32.01C23.5504 30 23.1104 27.85 23.1104 25.56C23.1104 23.26 23.5504 21.11 24.4204 19.11C25.2904 17.11 26.4804 15.35 27.9704 13.86C29.4704 12.36 31.2204 11.18 33.2304 10.31C35.2404 9.44 37.3904 9 39.6804 9C41.9704 9 44.1304 9.44 46.1304 10.31C48.1404 11.18 49.8904 12.37 51.3804 13.86C52.8804 15.36 54.0604 17.11 54.9304 19.11C55.8004 21.12 56.2404 23.27 56.2404 25.56C56.2404 27.85 55.8004 30.01 54.9304 32.01C54.515 32.9696 54.0267 33.87 53.4677 34.7121C52.8557 35.634 52.159 36.4861 51.3804 37.27C50.1619 38.4884 48.7786 39.4957 47.2302 40.2972C46.8724 40.4824 46.5058 40.6567 46.1304 40.82C44.1204 41.69 41.9704 42.13 39.6804 42.13Z" fill="#FEE7E7"/>
<path fill-rule="evenodd" clip-rule="evenodd" d="M39.6804 10C37.5222 10 35.5078 10.4139 33.6276 11.2277C31.729 12.0495 30.0852 13.1594 28.6775 14.5671C27.2793 15.9653 26.1591 17.6197 25.3373 19.5089C24.5245 21.3776 24.1104 23.3912 24.1104 25.56C24.1104 27.7182 24.5242 29.7325 25.3381 31.6128C25.7182 32.491 26.1595 33.3136 26.6624 34.0828L24.9885 35.1773C24.421 34.3094 23.9263 33.386 23.5026 32.4072C22.5765 30.2675 22.1104 27.9818 22.1104 25.56C22.1104 23.1288 22.5762 20.8424 23.5034 18.7111C24.4216 16.6003 25.6814 14.7347 27.2632 13.1529C28.8555 11.5606 30.7117 10.3105 32.8331 9.39228C34.9729 8.46613 37.2585 8 39.6804 8C42.1009 8 44.3971 8.46564 46.5284 9.39264C48.6515 10.3117 50.5069 11.5724 52.0875 13.1529C53.6796 14.745 54.9293 16.6007 55.8473 18.7111L55.8481 18.7128C56.7742 20.8525 57.2404 23.1382 57.2404 25.56C57.2404 27.9806 56.7747 30.2768 55.8477 32.4081C55.4094 33.4206 54.8931 34.3729 54.3008 35.2652L52.6345 34.1591C53.1601 33.3673 53.6203 32.5192 54.0126 31.6128L54.0134 31.6111C54.8261 29.7427 55.2404 27.7191 55.2404 25.56C55.2404 23.4021 54.8266 21.388 54.013 19.508C53.191 17.6188 52.0809 15.9748 50.6732 14.5671C49.274 13.1679 47.6296 12.0486 45.7331 11.2277L45.7315 11.227C43.863 10.4142 41.8395 10 39.6804 10ZM32.4484 39.3365C32.8298 39.5384 33.2229 39.7271 33.6276 39.9023L33.6292 39.903C35.4979 40.7159 37.5115 41.13 39.6804 41.13C41.8382 41.13 43.8522 40.7163 45.7322 39.9027C46.0872 39.7482 46.4333 39.5837 46.7705 39.4091L47.69 41.1853C47.3118 41.381 46.9249 41.5649 46.5292 41.737L46.5276 41.7377C44.3878 42.6639 42.1022 43.13 39.6804 43.13C37.2495 43.13 34.9634 42.6642 32.8323 41.7374C32.3806 41.5418 31.9407 41.3307 31.5127 41.1042L32.4484 39.3365Z" fill="#1C1B1A"/>
<path fill-rule="evenodd" clip-rule="evenodd" d="M35.9035 17.4198C37.9538 15.724 41.0545 15.72 43.1702 17.2261L43.1715 17.2271C43.6058 17.5373 43.9981 17.9187 44.3377 18.3674L42.7428 19.5742C42.5225 19.2831 42.2751 19.0447 42.0096 18.855C40.5856 17.8418 38.4872 17.8778 37.1777 18.9613L37.1763 18.9624C36.6993 19.3557 36.4203 19.9146 36.4203 20.7708C36.4203 21.4929 36.6232 22.0122 36.9829 22.4112L36.989 22.4179C37.354 22.8302 38.137 23.317 39.5075 23.8087L40.5452 24.108L40.5725 24.1176C42.2086 24.6938 43.4974 25.3835 44.2701 26.2592C45.0532 27.1467 45.4203 28.2525 45.4203 29.4808C45.4203 30.961 44.9119 32.2117 43.8195 33.1198L43.8168 33.122C41.5535 34.9902 38.1943 34.9682 35.8837 33.3379L35.8752 33.3319C35.1362 32.7988 34.5282 32.1014 34.0605 31.2363L35.82 30.2853C36.1514 30.8984 36.5619 31.3601 37.0411 31.7067C38.6698 32.853 41.027 32.8303 42.5423 31.5807C43.1091 31.1089 43.4203 30.4598 43.4203 29.4808C43.4203 28.6691 43.1873 28.0549 42.7704 27.5824C42.3456 27.1009 41.4623 26.5542 39.9349 26.0135L38.8934 25.7131L38.8643 25.7027C37.3947 25.1786 36.2074 24.5503 35.4946 23.7471C34.7564 22.9266 34.4203 21.9071 34.4203 20.7708C34.4203 19.4073 34.901 18.2465 35.9035 17.4198Z" fill="#1C1B1A"/>
<path fill-rule="evenodd" clip-rule="evenodd" d="M38.6807 16.7807V14.1807H40.6807V16.7807H38.6807Z" fill="#1C1B1A"/>
<path fill-rule="evenodd" clip-rule="evenodd" d="M38.6807 36.4906V33.8906H40.6807V36.4906H38.6807Z" fill="#1C1B1A"/>
<path fill-rule="evenodd" clip-rule="evenodd" d="M64.2087 24.6532C64.0036 24.6994 63.7996 24.7637 63.5961 24.8464C63.1513 25.0271 63.0107 25.2286 62.9535 25.4102C62.9469 25.4315 62.9395 25.4525 62.9314 25.4732L56.7714 41.2732C56.7093 41.4324 56.6074 41.5731 56.4755 41.6818L50.6855 46.4518L49.4138 44.9081L55.0027 40.3039L56.195 37.2457C56.1269 37.2142 56.0582 37.1821 55.9897 37.1499C55.7968 37.0594 55.6009 36.9662 55.4 36.8707C55.1385 36.7464 54.8686 36.6181 54.5859 36.4863C54.0983 36.2589 53.6362 36.0514 53.2658 35.9064C53.0796 35.8335 52.9353 35.7838 52.8333 35.7554C52.8196 35.7516 52.8077 35.7484 52.7974 35.7458C52.4649 35.8063 52.2068 35.9506 51.9854 36.195L40.6797 49.7032V65.0899H38.6797V49.3399C38.6797 49.1053 38.7622 48.8781 38.9128 48.6981L50.4628 34.8981C50.4661 34.8943 50.4693 34.8905 50.4726 34.8867C50.4761 34.8826 50.4796 34.8786 50.4832 34.8746C51.0598 34.2276 51.7922 33.8583 52.6297 33.7484L52.6457 33.7465C52.9327 33.7135 53.2161 33.7859 53.3702 33.8288C53.5651 33.8831 53.7799 33.9598 53.9951 34.0441C54.4275 34.2134 54.9373 34.4434 55.431 34.6736C55.7085 34.803 56.0024 34.9426 56.2775 35.0734C56.4796 35.1694 56.6716 35.2606 56.8394 35.3394C56.8679 35.3527 56.8958 35.3658 56.9229 35.3785L61.0572 24.7744C61.3466 23.8961 62.0191 23.3283 62.8433 22.9935C63.6098 22.6821 64.4129 22.5343 65.2438 22.5709C65.7752 22.5944 66.1952 23.0297 66.1997 23.5616L66.3497 41.4616C66.3506 41.5693 66.334 41.6765 66.3007 41.779L66.1707 42.179C66.1349 42.2891 66.0803 42.3922 66.0092 42.4836L52.9597 59.2729V63.9502H50.9597V58.9299C50.9597 58.7077 51.0337 58.4917 51.1701 58.3163L64.3227 41.3944L64.3484 41.3156L64.2087 24.6532ZM52.7468 35.7349C52.7468 35.7349 52.7476 35.735 52.7493 35.7352Z" fill="#1C1B1A"/>
<path d="M54.5797 63.8398H40.6797C40.1274 63.8398 39.6797 64.2876 39.6797 64.8398V69.5898C39.6797 70.1421 40.1274 70.5898 40.6797 70.5898H54.5797C55.132 70.5898 55.5797 70.1421 55.5797 69.5898V64.8398C55.5797 64.2876 55.132 63.8398 54.5797 63.8398Z" fill="#E7E2F2"/>
<path d="M54.5797 63.8398H40.6797C40.1274 63.8398 39.6797 64.2876 39.6797 64.8398V69.5898C39.6797 70.1421 40.1274 70.5898 40.6797 70.5898H54.5797C55.132 70.5898 55.5797 70.1421 55.5797 69.5898V64.8398C55.5797 64.2876 55.132 63.8398 54.5797 63.8398Z" fill="#E7E2F2"/>
<path fill-rule="evenodd" clip-rule="evenodd" d="M38.6797 64.8398C38.6797 63.7353 39.5751 62.8398 40.6797 62.8398H54.5797C55.6843 62.8398 56.5797 63.7353 56.5797 64.8398V69.5898C56.5797 70.6944 55.6843 71.5898 54.5797 71.5898H40.6797C39.5751 71.5898 38.6797 70.6944 38.6797 69.5898V64.8398ZM54.5797 64.8398H40.6797V69.5898H54.5797V64.8398Z" fill="#1C1B1A"/>
<path fill-rule="evenodd" clip-rule="evenodd" d="M15.1409 24.5865L15.0013 41.246L15.0269 41.3248L28.1796 58.2467C28.316 58.4222 28.39 58.6381 28.39 58.8603V63.9502H26.39V59.2033L13.3404 42.414C13.2694 42.3226 13.2148 42.2195 13.179 42.1094L13.049 41.7094C13.0157 41.6069 12.9991 41.4997 13 41.392L13.15 23.492C13.1545 22.9544 13.5832 22.5166 14.1206 22.5008C14.9316 22.4769 15.7305 22.6087 16.5064 22.9239C17.3384 23.2619 18.0038 23.8418 18.2916 24.7025L22.4239 35.3015C22.4536 35.2876 22.4842 35.2733 22.5156 35.2585C22.6861 35.1784 22.8867 35.0829 23.0981 34.9822C23.3696 34.853 23.659 34.7152 23.9252 34.5907C24.4187 34.36 24.9284 34.1294 25.3602 33.9603C25.5749 33.8762 25.79 33.7995 25.9854 33.7456C26.1352 33.7043 26.4196 33.6319 26.7099 33.6675C27.5677 33.7674 28.2987 34.158 28.8665 34.795C28.8734 34.8027 28.8802 34.8106 28.8869 34.8185L40.4369 48.6185C40.5875 48.7985 40.67 49.0257 40.67 49.2603V65.0103H38.67V49.6236L27.3642 36.1154C27.1336 35.8605 26.8723 35.7165 26.5523 35.6644C26.5423 35.6669 26.5306 35.6699 26.5171 35.6736C26.4174 35.7011 26.2749 35.75 26.0895 35.8226C25.721 35.9669 25.26 36.1745 24.7723 36.4025C24.493 36.533 24.2326 36.6571 23.9794 36.7778C23.7723 36.8765 23.5699 36.9729 23.366 37.0687C23.2945 37.1023 23.2229 37.1358 23.1518 37.1687L24.347 40.2343L29.9358 44.8385L28.6642 46.3822L22.8742 41.6122C22.7422 41.5035 22.6404 41.3628 22.5783 41.2036L16.4183 25.4036C16.4109 25.3845 16.404 25.3652 16.3978 25.3458C16.3396 25.1644 16.1912 24.9546 15.7536 24.7768C15.5523 24.695 15.3483 24.6318 15.1409 24.5865ZM26.5997 35.6544C26.5996 35.6544 26.5979 35.6547 26.5947 35.6551C26.5981 35.6545 26.5997 35.6543 26.5997 35.6544ZM26.471 35.6532C26.4667 35.6527 26.4623 35.6522 26.4578 35.6516L26.471 35.6532Z" fill="#1C1B1A"/>
<path d="M38.6696 63.7598H24.8496C24.2973 63.7598 23.8496 64.2075 23.8496 64.7598V69.5098C23.8496 70.0621 24.2973 70.5098 24.8496 70.5098H38.6696C39.2219 70.5098 39.6696 70.0621 39.6696 69.5098V64.7598C39.6696 64.2075 39.2219 63.7598 38.6696 63.7598Z" fill="#E7E2F2"/>
<path d="M38.6696 63.7598H24.8496C24.2973 63.7598 23.8496 64.2075 23.8496 64.7598V69.5098C23.8496 70.0621 24.2973 70.5098 24.8496 70.5098H38.6696C39.2219 70.5098 39.6696 70.0621 39.6696 69.5098V64.7598C39.6696 64.2075 39.2219 63.7598 38.6696 63.7598Z" fill="#E7E2F2"/>
<path fill-rule="evenodd" clip-rule="evenodd" d="M22.8496 64.7598C22.8496 63.6552 23.745 62.7598 24.8496 62.7598H38.6696C39.7742 62.7598 40.6696 63.6552 40.6696 64.7598V69.5098C40.6696 70.6143 39.7742 71.5098 38.6696 71.5098H24.8496C23.745 71.5098 22.8496 70.6143 22.8496 69.5098V64.7598ZM38.6696 64.7598H24.8496V69.5098H38.6696V64.7598Z" fill="#1C1B1A"/>
<path fill-rule="evenodd" clip-rule="evenodd" d="M26.2287 31.6886C26.4444 31.669 26.6818 31.6649 26.9306 31.6926L26.9407 31.6937C28.296 31.8513 29.4561 32.469 30.3517 33.4573L30.3777 33.4859L34.1223 37.9532C34.2284 38.0042 34.3251 38.0487 34.419 38.0884L34.4292 38.0927L34.4393 38.0971C36.0521 38.8006 37.818 39.1604 39.7097 39.1604C41.6015 39.1604 43.3674 38.8006 44.9801 38.0971L44.9975 38.0896L45.015 38.0823C45.1203 38.0388 45.2313 37.9884 45.3724 37.9235C45.3785 37.9207 45.3847 37.9179 45.3909 37.915L49.0081 33.6004L49.0298 33.5761C49.945 32.5542 51.117 31.9328 52.4661 31.7741L52.5825 31.7604H53.3671L54.942 32.4297L53.3775 36.111L52.6565 35.8046C52.431 35.8757 52.2284 36.0061 52.0281 36.2243L47.856 41.2008L47.4176 41.3886C47.318 41.4313 47.2173 41.4777 47.0861 41.5381L47.0446 41.5572C46.9078 41.6201 46.7405 41.6968 46.5625 41.7709C44.42 42.7025 42.1117 43.1604 39.7097 43.1604C37.3051 43.1604 34.9945 42.7015 32.8499 41.7678C32.5346 41.6339 32.2302 41.4817 31.9871 41.3601L31.5938 41.1635L27.366 36.1198C27.1702 35.9105 26.965 35.7819 26.7224 35.714L26.2193 35.9205L24.7002 32.2202L25.9288 31.7158L26.2287 31.6886Z" fill="#1C1B1A" fill-opacity="0.1"/>
</svg>
