<svg width="80" height="80" viewBox="0 0 80 80" fill="none" xmlns="http://www.w3.org/2000/svg">
<path fill-rule="evenodd" clip-rule="evenodd" d="M19.4903 60.5498C16.8929 60.5498 14.7094 62.3507 14.132 64.7701L9.26855 63.6095C10.3712 58.9889 14.5276 55.5498 19.4903 55.5498C24.4494 55.5498 28.5702 58.9532 29.6981 63.5433L24.8425 64.7363C24.2503 62.3264 22.0912 60.5498 19.4903 60.5498Z" fill="#1C1B1A" fill-opacity="0.1"/>
<path fill-rule="evenodd" clip-rule="evenodd" d="M53.75 59.6201C51.1527 59.6201 48.9691 61.421 48.3918 63.8404L43.5283 62.6798C44.631 58.0592 48.7874 54.6201 53.75 54.6201C58.7091 54.6201 62.83 58.0235 63.9578 62.6136L59.1023 63.8067C58.5101 61.3968 56.3509 59.6201 53.75 59.6201Z" fill="#1C1B1A" fill-opacity="0.1"/>
<path fill-rule="evenodd" clip-rule="evenodd" d="M26.8501 66.2998C26.8501 70.1658 23.7161 73.2998 19.8501 73.2998C15.9841 73.2998 12.8501 70.1658 12.8501 66.2998C12.8501 62.4338 15.9841 59.2998 19.8501 59.2998C23.7161 59.2998 26.8501 62.4338 26.8501 66.2998ZM22.9597 66.3004C22.9597 68.018 21.5674 69.4104 19.8497 69.4104C18.1321 69.4104 16.7397 68.018 16.7397 66.3004C16.7397 64.5828 18.1321 63.1904 19.8497 63.1904C21.5674 63.1904 22.9597 64.5828 22.9597 66.3004Z" fill="#FEE7E7"/>
<path fill-rule="evenodd" clip-rule="evenodd" d="M60.8501 65.2998C60.8501 69.1658 57.7161 72.2998 53.8501 72.2998C49.9841 72.2998 46.8501 69.1658 46.8501 65.2998C46.8501 61.4338 49.9841 58.2998 53.8501 58.2998C57.7161 58.2998 60.8501 61.4338 60.8501 65.2998ZM56.9597 65.2995C56.9597 67.0171 55.5674 68.4095 53.8497 68.4095C52.1321 68.4095 50.7397 67.0171 50.7397 65.2995C50.7397 63.5818 52.1321 62.1895 53.8497 62.1895C55.5674 62.1895 56.9597 63.5818 56.9597 65.2995Z" fill="#FEE7E7"/>
<path fill-rule="evenodd" clip-rule="evenodd" d="M71.0201 26.2698L73.6901 42.1398H52.8501V26.2998C52.8501 25.1998 53.7501 24.2998 54.8501 24.2998H68.6901C69.7901 24.2998 70.8401 25.1898 71.0201 26.2698ZM68.6702 36.4997C68.8302 37.5897 68.0602 38.4797 66.9602 38.4797H58.6802C57.5802 38.4797 56.6802 37.5797 56.6802 36.4797V29.9697C56.6802 28.8697 57.5802 27.9697 58.6802 27.9697H65.4202C66.5202 27.9697 67.5502 28.8597 67.7102 29.9497L68.6702 36.4997Z" fill="#E7E2F2"/>
<path fill-rule="evenodd" clip-rule="evenodd" d="M51.6401 26.3301C51.6401 24.6778 52.9879 23.3301 54.6401 23.3301H68.4801C70.0675 23.3301 71.5351 24.5717 71.7963 26.1342M71.7965 26.1357L74.4663 42.0042L72.494 42.336L69.824 26.466L69.8237 26.4645C69.7243 25.8676 69.0923 25.3301 68.4801 25.3301H54.6401C54.0924 25.3301 53.6401 25.7824 53.6401 26.3301V42.1701H51.6401V26.3301" fill="#1C1B1A"/>
<path fill-rule="evenodd" clip-rule="evenodd" d="M55.4702 30C55.4702 28.3477 56.8179 27 58.4702 27H65.2102C66.8069 27 68.2576 28.2544 68.4896 29.8348L68.4896 29.835L69.4496 36.3848C69.6983 38.0786 68.4601 39.51 66.7502 39.51H58.4702C56.8179 39.51 55.4702 38.1623 55.4702 36.51V30ZM58.4702 29C57.9225 29 57.4702 29.4523 57.4702 30V36.51C57.4702 37.0577 57.9225 37.51 58.4702 37.51H66.7502C67.2403 37.51 67.5422 37.1614 67.4708 36.6752L67.4708 36.675L66.5108 30.1252C66.4228 29.5256 65.8135 29 65.2102 29H58.4702Z" fill="#1C1B1A"/>
<path d="M21.21 54.2402V35.9102H33.55V54.2402" fill="#E7E2F2"/>
<path fill-rule="evenodd" clip-rule="evenodd" d="M20.21 34.9102H34.55V54.2402H32.55V36.9102H22.21V54.2402H20.21V34.9102Z" fill="#1C1B1A"/>
<path fill-rule="evenodd" clip-rule="evenodd" d="M51.6602 42.1699C51.6602 41.6176 52.1079 41.1699 52.6602 41.1699H73.4702C74.0224 41.1699 74.4702 41.6176 74.4702 42.1699V63.8799C74.4702 64.4322 74.0224 64.8799 73.4702 64.8799H60.8501V62.8799H72.4702V43.1699H53.6602V58.2998H51.6602V42.1699Z" fill="#1C1B1A"/>
<path fill-rule="evenodd" clip-rule="evenodd" d="M5 54.2402C5 53.6879 5.44772 53.2402 6 53.2402H52.69C53.2423 53.2402 53.69 53.6879 53.69 54.2402V58.2998H51.69V55.2402H7V62.8802H12.675V64.8802H6C5.44772 64.8802 5 64.4325 5 63.8802V54.2402ZM26.3501 62.8802H46.8501V64.8802H26.3501V62.8802Z" fill="#1C1B1A"/>
<path fill-rule="evenodd" clip-rule="evenodd" d="M58.9502 47.6699H52.6802V45.6699H58.9502V47.6699Z" fill="#1C1B1A"/>
<path fill-rule="evenodd" clip-rule="evenodd" d="M13.0801 26.8398V54.2398H11.0801V26.8398H13.0801Z" fill="#1C1B1A"/>
<path fill-rule="evenodd" clip-rule="evenodd" d="M42.1001 54.2498V26.8398H44.1001V54.2498H42.1001Z" fill="#1C1B1A"/>
<path d="M27.3803 11.45L43.3203 27.44H48.7603L27.3803 6L6.01025 27.44H11.4503L27.3903 11.45H27.3803Z" fill="#FEE7E7"/>
<path fill-rule="evenodd" clip-rule="evenodd" d="M27.3802 5C27.6459 4.99997 27.9007 5.10571 28.0884 5.29388L49.4684 26.7339C49.7538 27.0201 49.8388 27.45 49.6839 27.8233C49.5289 28.1967 49.1645 28.44 48.7603 28.44H43.3203C43.0545 28.44 42.7997 28.3342 42.6121 28.146L27.3853 12.8714L12.1585 28.146C11.9709 28.3342 11.716 28.44 11.4503 28.44H6.01028C5.60612 28.44 5.24169 28.1967 5.08672 27.8234C4.93174 27.4502 5.0167 27.0203 5.30202 26.734L26.672 5.29405C26.8596 5.10583 27.1144 5.00003 27.3802 5ZM28.1776 10.8334C27.9911 10.5952 27.7025 10.45 27.3903 10.45H27.3803C27.068 10.45 26.7795 10.5952 26.5929 10.8334L11.0352 26.44H8.41892L27.3804 7.41637L46.3508 26.44H43.7354L28.1776 10.8334Z" fill="#1C1B1A"/>
<path d="M27.0903 28.9793C29.2055 28.9793 30.9203 27.2646 30.9203 25.1493C30.9203 23.0341 29.2055 21.3193 27.0903 21.3193C24.975 21.3193 23.2603 23.0341 23.2603 25.1493C23.2603 27.2646 24.975 28.9793 27.0903 28.9793Z" fill="#E7E2F2"/>
<path fill-rule="evenodd" clip-rule="evenodd" d="M27.0903 22.3193C25.5273 22.3193 24.2603 23.5864 24.2603 25.1493C24.2603 26.7123 25.5273 27.9793 27.0903 27.9793C28.6532 27.9793 29.9203 26.7123 29.9203 25.1493C29.9203 23.5864 28.6532 22.3193 27.0903 22.3193ZM22.2603 25.1493C22.2603 22.4818 24.4227 20.3193 27.0903 20.3193C29.7578 20.3193 31.9203 22.4818 31.9203 25.1493C31.9203 27.8169 29.7578 29.9793 27.0903 29.9793C24.4227 29.9793 22.2603 27.8169 22.2603 25.1493Z" fill="#1C1B1A"/>
<path d="M30.0403 44.4596C30.4269 44.4596 30.7403 44.1462 30.7403 43.7596C30.7403 43.373 30.4269 43.0596 30.0403 43.0596C29.6537 43.0596 29.3403 43.373 29.3403 43.7596C29.3403 44.1462 29.6537 44.4596 30.0403 44.4596Z" fill="#1C1B1A"/>
<path fill-rule="evenodd" clip-rule="evenodd" d="M19.4902 60.0596C16.1765 60.0596 13.4902 62.7459 13.4902 66.0596C13.4902 69.3733 16.1765 72.0596 19.4902 72.0596C22.8039 72.0596 25.4902 69.3733 25.4902 66.0596C25.4902 62.7459 22.8039 60.0596 19.4902 60.0596ZM11.4902 66.0596C11.4902 61.6413 15.072 58.0596 19.4902 58.0596C23.9085 58.0596 27.4902 61.6413 27.4902 66.0596C27.4902 70.4779 23.9085 74.0596 19.4902 74.0596C15.072 74.0596 11.4902 70.4779 11.4902 66.0596Z" fill="#1C1B1A"/>
<path fill-rule="evenodd" clip-rule="evenodd" d="M19.4899 63.9502C18.3246 63.9502 17.3799 64.8949 17.3799 66.0602C17.3799 67.2255 18.3246 68.1702 19.4899 68.1702C20.6552 68.1702 21.5999 67.2255 21.5999 66.0602C21.5999 64.8949 20.6552 63.9502 19.4899 63.9502ZM15.3799 66.0602C15.3799 63.7903 17.22 61.9502 19.4899 61.9502C21.7598 61.9502 23.5999 63.7903 23.5999 66.0602C23.5999 68.3301 21.7598 70.1702 19.4899 70.1702C17.22 70.1702 15.3799 68.3301 15.3799 66.0602Z" fill="#1C1B1A"/>
<path fill-rule="evenodd" clip-rule="evenodd" d="M53.7402 59.2998C50.4265 59.2998 47.7402 61.9861 47.7402 65.2998C47.7402 68.6135 50.4265 71.2998 53.7402 71.2998C57.0539 71.2998 59.7402 68.6135 59.7402 65.2998C59.7402 61.9861 57.0539 59.2998 53.7402 59.2998ZM45.7402 65.2998C45.7402 60.8815 49.322 57.2998 53.7402 57.2998C58.1585 57.2998 61.7402 60.8815 61.7402 65.2998C61.7402 69.7181 58.1585 73.2998 53.7402 73.2998C49.322 73.2998 45.7402 69.7181 45.7402 65.2998Z" fill="#1C1B1A"/>
<path fill-rule="evenodd" clip-rule="evenodd" d="M53.7399 63.1895C52.5746 63.1895 51.6299 64.1341 51.6299 65.2995C51.6299 66.4648 52.5746 67.4095 53.7399 67.4095C54.9052 67.4095 55.8499 66.4648 55.8499 65.2995C55.8499 64.1341 54.9052 63.1895 53.7399 63.1895ZM49.6299 65.2995C49.6299 63.0296 51.47 61.1895 53.7399 61.1895C56.0098 61.1895 57.8499 63.0296 57.8499 65.2995C57.8499 67.5693 56.0098 69.4095 53.7399 69.4095C51.47 69.4095 49.6299 67.5693 49.6299 65.2995Z" fill="#1C1B1A"/>
</svg>
