<svg width="26" height="26" viewBox="0 0 26 26" fill="none" xmlns="http://www.w3.org/2000/svg">
<path d="M13 2.1665C16.5859 2.1665 19.5 5.04817 19.5 8.61234C19.5 13.444 13 20.5832 13 20.5832C13 20.5832 6.50004 13.444 6.50004 8.61234C6.50004 5.04817 9.41421 2.1665 13 2.1665ZM13 6.49984C12.4254 6.49984 11.8743 6.72811 11.468 7.13444C11.0616 7.54077 10.8334 8.09187 10.8334 8.6665C10.8334 9.24114 11.0616 9.79224 11.468 10.1986C11.8743 10.6049 12.4254 10.8332 13 10.8332C13.5747 10.8332 14.1258 10.6049 14.5321 10.1986C14.9384 9.79224 15.1667 9.24114 15.1667 8.6665C15.1667 8.09187 14.9384 7.54077 14.5321 7.13444C14.1258 6.72811 13.5747 6.49984 13 6.49984ZM21.6667 20.5832C21.6667 22.9773 17.7884 24.9165 13 24.9165C8.21171 24.9165 4.33337 22.9773 4.33337 20.5832C4.33337 19.1857 5.65504 17.9398 7.70254 17.149L8.39587 18.1348C7.22587 18.6223 6.50004 19.294 6.50004 20.0415C6.50004 21.5365 9.41421 22.7498 13 22.7498C16.5859 22.7498 19.5 21.5365 19.5 20.0415C19.5 19.294 18.7742 18.6223 17.6042 18.1348L18.2975 17.149C20.345 17.9398 21.6667 19.1857 21.6667 20.5832Z" fill="#146EB4"/>
</svg>
