<svg xmlns="http://www.w3.org/2000/svg" width="46" height="46" viewBox="0 0 46 46" fill="none"><path d="M33.0004 34.1528C32.4828 34.6704 31.7808 34.9612 31.0489 34.9612C30.3169 34.9612 29.6149 34.6704 29.0973 34.1528L23 27.1838L16.9027 34.1505C16.6472 34.4103 16.3428 34.6168 16.007 34.7583C15.6713 34.8998 15.3108 34.9734 14.9465 34.9749C14.5822 34.9763 14.2212 34.9057 13.8843 34.7669C13.5474 34.6282 13.2413 34.4241 12.9837 34.1665C12.726 33.9089 12.522 33.6028 12.3832 33.2659C12.2445 32.929 12.1738 32.568 12.1753 32.2036C12.1768 31.8393 12.2504 31.4789 12.3919 31.1431C12.5333 30.8074 12.7399 30.503 12.9996 30.2474L19.343 23.0024L12.9973 15.7528C12.7376 15.4973 12.531 15.1929 12.3896 14.8572C12.2481 14.5214 12.1745 14.161 12.173 13.7966C12.1715 13.4323 12.2422 13.0713 12.3809 12.7344C12.5197 12.3975 12.7237 12.0914 12.9814 11.8338C13.239 11.5761 13.5451 11.3721 13.882 11.2333C14.2189 11.0946 14.5799 11.0239 14.9442 11.0254C15.3085 11.0269 15.669 11.1005 16.0047 11.242C16.3405 11.3835 16.6449 11.59 16.9004 11.8497L23 18.821L29.0973 11.8497C29.3528 11.59 29.6572 11.3835 29.993 11.242C30.3287 11.1005 30.6892 11.0269 31.0535 11.0254C31.4179 11.0239 31.7789 11.0946 32.1158 11.2333C32.4527 11.3721 32.7587 11.5761 33.0164 11.8338C33.274 12.0914 33.4781 12.3975 33.6168 12.7344C33.7556 13.0713 33.8262 13.4323 33.8247 13.7966C33.8232 14.161 33.7496 14.5214 33.6082 14.8572C33.4667 15.1929 33.2601 15.4973 33.0004 15.7528L26.657 23.0024L33.0004 30.2474C33.257 30.5038 33.4606 30.8082 33.5995 31.1432C33.7384 31.4783 33.8099 31.8374 33.8099 32.2001C33.8099 32.5628 33.7384 32.922 33.5995 33.2571C33.4606 33.5921 33.257 33.8965 33.0004 34.1528Z" fill="#FF9900"></path></svg>