<svg width="31" height="21" viewBox="0 0 31 21" fill="none" xmlns="http://www.w3.org/2000/svg">
<path fill-rule="evenodd" clip-rule="evenodd" d="M1.69444 3.38889C0.7625 3.38889 0 2.62639 0 1.69445C0 0.7625 0.7625 0 1.69444 0H28.8056C29.7375 0 30.5 0.7625 30.5 1.69445C30.5 2.62639 29.7375 3.38889 28.8056 3.38889H1.69444ZM1.69444 11.8605H28.8056C29.7375 11.8605 30.5 11.098 30.5 10.166C30.5 9.23411 29.7375 8.47161 28.8056 8.47161H1.69444C0.7625 8.47161 0 9.23411 0 10.166C0 11.098 0.7625 11.8605 1.69444 11.8605ZM1.69444 20.3326H28.8056C29.7375 20.3326 30.5 19.5701 30.5 18.6382C30.5 17.7062 29.7375 16.9437 28.8056 16.9437H1.69444C0.7625 16.9437 0 17.7062 0 18.6382C0 19.5701 0.7625 20.3326 1.69444 20.3326Z" fill="#FF9900"/>
</svg>
