<svg width="80" height="80" viewBox="0 0 80 80" fill="none" xmlns="http://www.w3.org/2000/svg">
<path d="M41.0835 24.6832L52.2616 17.6582L63.4397 24.6832V63.0007H41.0835V24.6832Z" fill="white"/>
<path fill-rule="evenodd" clip-rule="evenodd" d="M51.7295 16.8115C52.0548 16.6071 52.4684 16.6071 52.7937 16.8115L63.9718 23.8365C64.2629 24.0195 64.4397 24.3393 64.4397 24.6832V63.0007C64.4397 63.553 63.9919 64.0007 63.4397 64.0007H41.0835C40.5312 64.0007 40.0835 63.553 40.0835 63.0007V24.6832C40.0835 24.3393 40.2602 24.0195 40.5514 23.8365L51.7295 16.8115ZM42.0835 25.2358V62.0007H62.4397V25.2358L52.2616 18.8393L42.0835 25.2358Z" fill="#1C1B1A"/>
<path d="M48.3164 30.8085C48.3164 28.6296 50.0827 26.8633 52.2616 26.8633L-nan -nanL52.2616 26.8633C54.4405 26.8633 56.2068 28.6296 56.2068 30.8085V40.014H48.3164V30.8085Z" fill="#E7E2F2"/>
<path fill-rule="evenodd" clip-rule="evenodd" d="M47.3164 30.8085C47.3164 28.0773 49.5305 25.8633 52.2616 25.8633C54.9928 25.8633 57.2068 28.0773 57.2068 30.8085V40.014C57.2068 40.5663 56.7591 41.014 56.2068 41.014H48.3164C47.7641 41.014 47.3164 40.5663 47.3164 40.014V30.8085ZM52.2616 27.8633C50.635 27.8633 49.3164 29.1819 49.3164 30.8085V39.014H55.2068V30.8085C55.2068 29.1819 53.8882 27.8633 52.2616 27.8633Z" fill="#1C1B1A"/>
<path d="M44.3164 53.7948C44.3164 51.6159 46.0827 49.8496 48.2616 49.8496L-nan -nanL48.2616 49.8496C50.4405 49.8496 52.2068 51.6159 52.2068 53.7948V63.0003H44.3164V53.7948Z" fill="#E7E2F2"/>
<path fill-rule="evenodd" clip-rule="evenodd" d="M43.3164 53.7948C43.3164 51.0636 45.5305 48.8496 48.2616 48.8496C50.9928 48.8496 53.2068 51.0637 53.2068 53.7948V63.0003C53.2068 63.5526 52.7591 64.0003 52.2068 64.0003H44.3164C43.7641 64.0003 43.3164 63.5526 43.3164 63.0003V53.7948ZM48.2616 50.8496C46.635 50.8496 45.3164 52.1682 45.3164 53.7948V62.0003H51.2068V53.7948C51.2068 52.1682 49.8882 50.8496 48.2616 50.8496Z" fill="#1C1B1A"/>
<path fill-rule="evenodd" clip-rule="evenodd" d="M51.2002 40.014L51.2002 26.8633L53.2002 26.8633L53.2002 40.014L51.2002 40.014Z" fill="#1C1B1A"/>
<path fill-rule="evenodd" clip-rule="evenodd" d="M56.2068 36.7266H48.3164V34.7266H56.2068V36.7266Z" fill="#1C1B1A"/>
<path fill-rule="evenodd" clip-rule="evenodd" d="M42.7134 17C42.7134 16.4477 43.1611 16 43.7134 16H48.3161C48.8684 16 49.3161 16.4477 49.3161 17V19.9589C49.3161 20.2992 49.1431 20.6161 48.8569 20.8001L44.2541 23.759C43.9464 23.9568 43.5553 23.9708 43.2342 23.7955C42.9131 23.6202 42.7134 23.2836 42.7134 22.9178V17ZM44.7134 18V21.0861L47.3161 19.413V18H44.7134Z" fill="#1C1B1A"/>
<path d="M47.6313 57.4238C47.6313 57.9761 47.1836 58.4238 46.6313 58.4238C46.0791 58.4238 45.6313 57.9761 45.6313 57.4238C45.6313 56.8715 46.0791 56.4238 46.6313 56.4238C47.1836 56.4238 47.6313 56.8715 47.6313 57.4238Z" fill="#1C1B1A"/>
<path d="M18.7275 24.6832L29.9056 17.6582L41.0837 24.6832V63.0007H18.7275V24.6832Z" fill="white"/>
<path fill-rule="evenodd" clip-rule="evenodd" d="M29.3735 16.8115C29.6988 16.6071 30.1124 16.6071 30.4377 16.8115L41.6158 23.8365C41.907 24.0195 42.0837 24.3393 42.0837 24.6832V63.0007C42.0837 63.553 41.636 64.0007 41.0837 64.0007H18.7275C18.1753 64.0007 17.7275 63.553 17.7275 63.0007V24.6832C17.7275 24.3393 17.9043 24.0195 18.1954 23.8365L29.3735 16.8115ZM19.7275 25.2358V62.0007H40.0837V25.2358L29.9056 18.8393L19.7275 25.2358Z" fill="#1C1B1A"/>
<path d="M25.96 30.8085C25.96 28.6296 27.7263 26.8633 29.9052 26.8633L-nan -nanL29.9052 26.8633C32.084 26.8633 33.8504 28.6296 33.8504 30.8085V40.014H25.96V30.8085Z" fill="#E7E2F2"/>
<path fill-rule="evenodd" clip-rule="evenodd" d="M24.96 30.8085C24.96 28.0773 27.174 25.8633 29.9052 25.8633C32.6363 25.8633 34.8504 28.0773 34.8504 30.8085V40.014C34.8504 40.5663 34.4027 41.014 33.8504 41.014H25.96C25.4077 41.014 24.96 40.5663 24.96 40.014V30.8085ZM29.9052 27.8633C28.2786 27.8633 26.96 29.1819 26.96 30.8085V39.014H32.8504V30.8085C32.8504 29.1819 31.5318 27.8633 29.9052 27.8633Z" fill="#1C1B1A"/>
<path d="M25.96 48.535C25.96 46.3562 27.7263 44.5898 29.9052 44.5898L-nan -nanL29.9052 44.5898C32.084 44.5898 33.8504 46.3562 33.8504 48.535V57.7405H25.96V48.535Z" fill="#E7E2F2"/>
<path fill-rule="evenodd" clip-rule="evenodd" d="M24.96 48.535C24.96 45.8039 27.174 43.5898 29.9052 43.5898C32.6363 43.5898 34.8504 45.8039 34.8504 48.535V57.7405C34.8504 58.2928 34.4027 58.7405 33.8504 58.7405H25.96C25.4077 58.7405 24.96 58.2928 24.96 57.7405V48.535ZM29.9052 45.5898C28.2786 45.5898 26.96 46.9085 26.96 48.535V56.7405H32.8504V48.535C32.8504 46.9085 31.5318 45.5898 29.9052 45.5898Z" fill="#1C1B1A"/>
<path fill-rule="evenodd" clip-rule="evenodd" d="M23.645 57.7402C23.645 57.1879 24.0927 56.7402 24.645 56.7402H35.1656C35.7179 56.7402 36.1656 57.1879 36.1656 57.7402V60.3704C36.1656 60.9227 35.7179 61.3704 35.1656 61.3704H24.645C24.0927 61.3704 23.645 60.9227 23.645 60.3704V57.7402ZM25.645 58.7402V59.3704H34.1656V58.7402H25.645Z" fill="#1C1B1A"/>
<path fill-rule="evenodd" clip-rule="evenodd" d="M22.3301 60.3691C22.3301 59.8169 22.7778 59.3691 23.3301 59.3691H36.4808C37.0331 59.3691 37.4808 59.8169 37.4808 60.3691V62.9993C37.4808 63.5516 37.0331 63.9993 36.4808 63.9993H23.3301C22.7778 63.9993 22.3301 63.5516 22.3301 62.9993V60.3691ZM24.3301 61.3691V61.9993H35.4808V61.3691H24.3301Z" fill="#1C1B1A"/>
<path fill-rule="evenodd" clip-rule="evenodd" d="M29 40.014L29 26.8633L31 26.8633L31 40.014L29 40.014Z" fill="#1C1B1A"/>
<path fill-rule="evenodd" clip-rule="evenodd" d="M33.8504 36.7266H25.96V34.7266H33.8504V36.7266Z" fill="#1C1B1A"/>
<path fill-rule="evenodd" clip-rule="evenodd" d="M20.3574 17C20.3574 16.4477 20.8051 16 21.3574 16H25.9602C26.5124 16 26.9602 16.4477 26.9602 17V19.9589C26.9602 20.2992 26.7871 20.6161 26.5009 20.8001L21.8982 23.759C21.5905 23.9568 21.1993 23.9708 20.8782 23.7955C20.5572 23.6202 20.3574 23.2836 20.3574 22.9178V17ZM22.3574 18V21.0861L24.9602 19.413V18H22.3574Z" fill="#1C1B1A"/>
<path d="M29.2754 52.1641C29.2754 52.7163 28.8277 53.1641 28.2754 53.1641C27.7231 53.1641 27.2754 52.7163 27.2754 52.1641C27.2754 51.6118 27.7231 51.1641 28.2754 51.1641C28.8277 51.1641 29.2754 51.6118 29.2754 52.1641Z" fill="#1C1B1A"/>
<path fill-rule="evenodd" clip-rule="evenodd" d="M17.5868 49.3929L15 54.0004L19.0195 62.0529C20.4826 61.3226 21.7191 60.2074 22.5962 58.8272C23.4732 57.447 23.9576 55.8539 23.9973 54.219C24.0371 52.5842 23.6306 50.9695 22.8217 49.5483C22.5734 49.1121 22.2901 48.6992 21.9755 48.3133C22.0335 47.6222 21.9886 46.9251 21.8412 46.245C21.6465 45.3466 21.2767 44.4953 20.753 43.7398C20.2293 42.9843 19.5619 42.3394 18.789 41.8418L15 47.7277L17.5868 49.3929Z" fill="#1C1B1A" fill-opacity="0.1"/>
<path fill-rule="evenodd" clip-rule="evenodd" d="M57.0245 48.3138C57.019 48.2473 57.0143 48.1806 57.0106 48.1138C56.9438 46.9029 57.1927 45.6955 57.733 44.6097C58.2733 43.524 59.0863 42.5972 60.0925 41.9203C61.0987 41.2433 62.2635 40.8394 63.4728 40.748L64 47.7282L59.8598 50.3934L64 54.0009L62.9183 62.9356C61.2948 62.7391 59.7556 62.1039 58.466 61.0984C57.1764 60.0929 56.1851 58.755 55.5986 57.2284C55.0122 55.7019 54.8527 54.0445 55.1374 52.4341C55.405 50.9206 56.0554 49.5025 57.0245 48.3138Z" fill="#1C1B1A" fill-opacity="0.1"/>
<path fill-rule="evenodd" clip-rule="evenodd" d="M72 64L8 64L8 62L72 62L72 64Z" fill="#1C1B1A"/>
<path fill-rule="evenodd" clip-rule="evenodd" d="M67.399 49.0597C67.6667 48.5531 67.8183 47.9757 67.8183 47.3629C67.8183 45.3546 66.1902 43.7266 64.1819 43.7266C62.1736 43.7266 60.5455 45.3546 60.5455 47.3629C60.5455 47.9758 60.6971 48.5532 60.9649 49.0597C59.3971 50.1021 58.3638 51.8846 58.3638 53.9084C58.3638 57.1217 60.9687 59.7266 64.182 59.7266C67.3952 59.7266 70.0001 57.1217 70.0001 53.9084C70.0001 51.8845 68.9668 50.102 67.399 49.0597Z" fill="#FEE7E7"/>
<path fill-rule="evenodd" clip-rule="evenodd" d="M64.1819 44.7266C62.7259 44.7266 61.5455 45.9069 61.5455 47.3629C61.5455 47.809 61.6555 48.2264 61.849 48.5924L62.2715 49.3919L61.5185 49.8925C60.2176 50.7573 59.3638 52.2333 59.3638 53.9083C59.3638 56.5693 61.5209 58.7265 64.182 58.7265C66.843 58.7265 69.0001 56.5693 69.0001 53.9083C69.0001 52.2333 68.1462 50.7573 66.8453 49.8924L66.0923 49.3918L66.5148 48.5924C66.7083 48.2264 66.8183 47.809 66.8183 47.3629C66.8183 45.9069 65.6379 44.7266 64.1819 44.7266ZM59.5455 47.3629C59.5455 44.8023 61.6213 42.7266 64.1819 42.7266C66.7425 42.7266 68.8183 44.8023 68.8183 47.3629C68.8183 47.8368 68.7469 48.2952 68.614 48.7271C70.0732 49.9765 71.0001 51.834 71.0001 53.9083C71.0001 57.6739 67.9475 60.7265 64.182 60.7265C60.4164 60.7265 57.3638 57.6739 57.3638 53.9083C57.3638 51.834 58.2907 49.9766 59.7498 48.7272C59.6169 48.2952 59.5455 47.8369 59.5455 47.3629Z" fill="#1C1B1A"/>
<path fill-rule="evenodd" clip-rule="evenodd" d="M63.1816 63.9993L63.1816 48.7266L65.1816 48.7266L65.1816 63.9993L63.1816 63.9993Z" fill="#1C1B1A"/>
<path fill-rule="evenodd" clip-rule="evenodd" d="M18.0352 49.0597C18.3029 48.5531 18.4545 47.9757 18.4545 47.3629C18.4545 45.3546 16.8264 43.7266 14.8181 43.7266C12.8098 43.7266 11.1818 45.3546 11.1818 47.3629C11.1818 47.9758 11.3334 48.5532 11.6011 49.0597C10.0333 50.1021 9 51.8846 9 53.9084C9 57.1217 11.6049 59.7266 14.8182 59.7266C18.0315 59.7266 20.6364 57.1217 20.6364 53.9084C20.6364 51.8845 19.603 50.102 18.0352 49.0597Z" fill="#FEE7E7"/>
<path fill-rule="evenodd" clip-rule="evenodd" d="M14.8181 44.7266C13.3621 44.7266 12.1818 45.9069 12.1818 47.3629C12.1818 47.809 12.2917 48.2264 12.4852 48.5924L12.9077 49.3919L12.1547 49.8925C10.8539 50.7573 10 52.2333 10 53.9083C10 56.5693 12.1572 58.7265 14.8182 58.7265C17.4792 58.7265 19.6364 56.5693 19.6364 53.9083C19.6364 52.2333 18.7825 50.7573 17.4816 49.8924L16.7286 49.3918L17.1511 48.5924C17.3445 48.2264 17.4545 47.809 17.4545 47.3629C17.4545 45.9069 16.2741 44.7266 14.8181 44.7266ZM10.1818 47.3629C10.1818 44.8023 12.2575 42.7266 14.8181 42.7266C17.3787 42.7266 19.4545 44.8023 19.4545 47.3629C19.4545 47.8368 19.3831 48.2952 19.2503 48.7271C20.7094 49.9765 21.6364 51.834 21.6364 53.9083C21.6364 57.6739 18.5838 60.7265 14.8182 60.7265C11.0526 60.7265 8 57.6739 8 53.9083C8 51.834 8.92691 49.9766 10.386 48.7272C10.2532 48.2952 10.1818 47.8369 10.1818 47.3629Z" fill="#1C1B1A"/>
<path fill-rule="evenodd" clip-rule="evenodd" d="M13.8184 63.9993L13.8184 48.7266L15.8184 48.7266L15.8184 63.9993L13.8184 63.9993Z" fill="#1C1B1A"/>
</svg>
