<svg width="80" height="80" viewBox="0 0 80 80" fill="none" xmlns="http://www.w3.org/2000/svg">
<path d="M48.71 37.73H42.66L40.47 30.83C40.34 30.42 39.66 30.42 39.53 30.83L37.34 37.73H31.29C31.07 37.73 30.88 37.87 30.82 38.08C30.76 38.29 30.83 38.51 31.01 38.63L35.95 42L33.85 48.84C33.79 49.05 33.86 49.27 34.04 49.39C34.22 49.51 34.45 49.51 34.62 49.38L40 45.3L45.38 49.38C45.47 49.45 45.57 49.48 45.68 49.48C45.78 49.48 45.88 49.45 45.96 49.39C46.14 49.27 46.21 49.05 46.15 48.84L44.05 42L48.99 38.63C49.17 38.51 49.25 38.28 49.18 38.08C49.12 37.87 48.92 37.73 48.71 37.73Z" fill="#FEE7E7" stroke="#1C1B1A" stroke-width="2" stroke-miterlimit="10"/>
</svg>
