<svg width="80" height="80" viewBox="0 0 80 80" fill="none" xmlns="http://www.w3.org/2000/svg">
<path fill-rule="evenodd" clip-rule="evenodd" d="M15.4536 66.3544C15.7623 66.2356 16.0666 66.2002 16.3501 66.2002C16.6335 66.2002 16.9378 66.2356 17.2465 66.3544C17.5597 66.4748 17.8247 66.6606 18.0572 66.8931L18.0699 66.9061L20.0501 68.9596L22.0302 66.9061C22.0673 66.8676 22.1073 66.8322 22.1501 66.8002C22.6985 66.3889 23.2047 66.2002 23.8501 66.2002C24.1335 66.2002 24.4378 66.2356 24.7465 66.3544C25.0597 66.4748 25.3247 66.6606 25.5572 66.8931L25.5699 66.9061L27.5363 68.9453L29.4173 66.9197C29.4579 66.876 29.5023 66.836 29.5501 66.8002C30.0985 66.3889 30.6047 66.2002 31.2501 66.2002C31.5335 66.2002 31.8378 66.2356 32.1465 66.3544C32.4597 66.4748 32.7247 66.6606 32.9572 66.8931L32.9704 66.9066L34.8501 68.8585L36.7297 66.9066L36.7429 66.8931C36.9755 66.6606 37.2404 66.4748 37.5536 66.3544C37.8623 66.2356 38.1666 66.2002 38.4501 66.2002C38.7335 66.2002 39.0378 66.2356 39.3465 66.3544C39.6597 66.4748 39.9247 66.6606 40.1572 66.8931L40.1699 66.9061L42.1363 68.9453L44.0173 66.9197C44.0579 66.876 44.1023 66.836 44.1501 66.8002C44.6985 66.3889 45.2047 66.2002 45.8501 66.2002C46.1335 66.2002 46.4378 66.2356 46.7465 66.3544C47.0597 66.4748 47.3246 66.6606 47.5572 66.8931L47.5699 66.9061L50.2699 69.7061L48.8302 71.0943L46.1377 68.3021C46.0736 68.2391 46.0401 68.2255 46.0286 68.221C46.0123 68.2148 45.9666 68.2002 45.8501 68.2002C45.7099 68.2002 45.6198 68.2095 45.417 68.3515L42.8828 71.0807C42.6959 71.282 42.4343 71.3976 42.1595 71.4002C41.8847 71.4027 41.621 71.2921 41.4302 71.0943L38.7377 68.3021C38.6736 68.2391 38.6401 68.2255 38.6286 68.221C38.6123 68.2148 38.5666 68.2002 38.4501 68.2002C38.3335 68.2002 38.2878 68.2148 38.2715 68.221C38.26 68.2255 38.2265 68.239 38.1626 68.3019L35.5704 70.9938C35.3819 71.1896 35.1218 71.3002 34.8501 71.3002C34.5783 71.3002 34.3182 71.1896 34.1297 70.9938L31.5375 68.3019C31.4736 68.239 31.4401 68.2255 31.4286 68.221C31.4123 68.2148 31.3666 68.2002 31.2501 68.2002C31.1099 68.2002 31.0198 68.2095 30.817 68.3515L28.2828 71.0807C28.0959 71.282 27.8343 71.3976 27.5595 71.4002C27.2847 71.4027 27.021 71.2921 26.8302 71.0943L24.1377 68.3021C24.0736 68.2391 24.0401 68.2255 24.0286 68.221C24.0123 68.2148 23.9666 68.2002 23.8501 68.2002C23.7083 68.2002 23.6177 68.2097 23.4099 68.3565L20.7699 71.0943C20.5814 71.2898 20.3216 71.4002 20.0501 71.4002C19.7785 71.4002 19.5187 71.2898 19.3302 71.0943L16.6377 68.3021C16.5736 68.2391 16.5401 68.2255 16.5286 68.221C16.5123 68.2148 16.4666 68.2002 16.3501 68.2002C16.2335 68.2002 16.1878 68.2148 16.1715 68.221C16.1608 68.2252 16.1308 68.2373 16.0748 68.2902L12.9986 71.7632L11.5015 70.4372L14.6015 66.9372C14.6148 66.9221 14.6287 66.9074 14.6429 66.8931C14.8755 66.6606 15.1404 66.4748 15.4536 66.3544Z" fill="#1C1B1A"/>
<path fill-rule="evenodd" clip-rule="evenodd" d="M49.9502 69.3567V50.3994H47.9502V69.3994C47.9502 69.9746 48.2277 70.4662 48.5556 70.794C48.8834 71.1219 49.375 71.3994 49.9502 71.3994H54.4502C55.6663 71.3994 56.4502 70.3856 56.4502 69.3994V50.3994H54.4502V69.3994H49.9929C49.9928 69.3993 49.9926 69.3992 49.9925 69.3991C49.9854 69.3941 49.9776 69.3876 49.9698 69.3798C49.962 69.372 49.9555 69.3642 49.9505 69.3571C49.9504 69.357 49.9503 69.3568 49.9502 69.3567Z" fill="#1C1B1A"/>
<path fill-rule="evenodd" clip-rule="evenodd" d="M30.8502 21.5999C25.3025 21.5999 20.8502 26.0521 20.8502 31.5999V34.2446H18.8502V31.5999C18.8502 24.9476 24.1979 19.5999 30.8502 19.5999C37.5015 19.5999 42.8486 24.946 42.8502 31.5969C42.8502 31.5979 42.8502 31.5989 42.8502 31.5999L42.9515 49.6333L42.8446 49.8471L41.9502 49.3999C42.8446 49.8471 42.8447 49.8469 42.8446 49.8471L42.8438 49.8487L42.8429 49.8506L42.8403 49.8557L42.8329 49.8701C42.8299 49.8759 42.8264 49.8827 42.8223 49.8904C42.8184 49.8978 42.8141 49.906 42.8092 49.915C42.7897 49.9516 42.7623 50.0013 42.7281 50.06C42.6608 50.1752 42.5615 50.3348 42.4377 50.4999C42.3183 50.6591 42.1511 50.8573 41.9421 51.0245C41.747 51.1806 41.4033 51.3999 40.9502 51.3999H20.8502V49.3999H40.7563C40.7795 49.374 40.8069 49.3409 40.8377 49.2999C40.8781 49.246 40.9158 49.1899 40.9487 49.1376L40.8502 31.6055L40.8502 31.5999C40.8502 26.0521 36.3979 21.5999 30.8502 21.5999Z" fill="#1C1B1A"/>
<path fill-rule="evenodd" clip-rule="evenodd" d="M72.0502 31.5999V49.3999C72.0502 50.386 71.2663 51.3999 70.0502 51.3999H8.9502V49.3999H70.0502V31.5999H72.0502Z" fill="#1C1B1A"/>
<path fill-rule="evenodd" clip-rule="evenodd" d="M49.319 19.5999V21.5999H30.9502V19.5999H49.319ZM54.9408 19.5999H59.9502C66.6025 19.5999 71.9502 24.9476 71.9502 31.5999H69.9502C69.9502 26.0521 65.4979 21.5999 59.9502 21.5999H54.9408V19.5999Z" fill="#1C1B1A"/>
<path fill-rule="evenodd" clip-rule="evenodd" d="M54.61 32.9165C54.7011 32.6262 54.7503 32.3181 54.7503 31.9994L54.6811 21.1336H58.0101V32.2336C57.7101 35.6336 54.9101 38.2336 51.7101 38.3336C48.3101 38.3336 45.5101 35.6336 45.2101 32.3336V20.9336H48.5577L48.51 33.6309L49.0308 33.6479C49.3958 34.2229 49.9443 34.6722 50.5911 34.9106C50.8629 35.1682 51.2249 35.3305 51.6101 35.3305C51.9726 35.3305 52.3146 35.1867 52.5803 34.955C53.2175 34.7519 53.7682 34.3466 54.1553 33.8159L54.61 33.8309V32.9165Z" fill="#1C1B1A" fill-opacity="0.1"/>
<path d="M54.6503 16.2994C54.6503 15.7994 55.0503 15.2994 55.6503 15.2994H60.0503C60.5503 15.2994 61.0503 14.8994 61.0503 14.2994V9.89941C61.0503 9.29941 60.5503 8.89941 60.0503 8.89941H49.6503C49.1503 8.89941 48.6503 9.29941 48.6503 9.89941L48.5503 32.0994V31.9994C48.5503 33.6994 49.9503 35.0994 51.6503 35.0994C53.3503 35.0994 54.7503 33.6994 54.7503 31.9994L54.6503 16.2994Z" fill="#E7E2F2"/>
<path fill-rule="evenodd" clip-rule="evenodd" d="M47.6503 9.89682C47.6517 8.68215 48.6648 7.89941 49.6503 7.89941H60.0503C61.0365 7.89941 62.0503 8.68327 62.0503 9.89941V14.2994C62.0503 15.5156 61.0365 16.2994 60.0503 16.2994L55.6503 16.2994L55.7503 31.9994C55.7503 34.2517 53.9026 36.0994 51.6503 36.0994C49.4314 36.0994 47.6052 34.3061 47.5515 32.0994H47.5503V31.9994L47.6503 9.89941C47.6503 9.89855 47.6503 9.89768 47.6503 9.89682ZM49.5506 32.0348C49.5699 33.1666 50.5144 34.0994 51.6503 34.0994C52.7971 34.0994 53.7487 33.1487 53.7503 32.0023C53.7503 32.0013 53.7503 32.0004 53.7503 31.9994L53.6503 16.2994C53.6503 15.3132 54.4341 14.2994 55.6503 14.2994H60.0503V9.89941H49.6503V9.90392L49.5506 32.0348Z" fill="#1C1B1A"/>
<path d="M51.6426 32.3613C52.1949 32.3613 52.6426 31.9136 52.6426 31.3613C52.6426 30.809 52.1949 30.3613 51.6426 30.3613C51.0903 30.3613 50.6426 30.809 50.6426 31.3613C50.6426 31.9136 51.0903 32.3613 51.6426 32.3613Z" fill="#1C1B1A"/>
<path d="M41.0501 34.7002H14.8501V49.4002H41.0501V34.7002Z" fill="#FEE7E7"/>
<path fill-rule="evenodd" clip-rule="evenodd" d="M15.8502 35.3425V49.3571C15.8503 49.3572 15.8504 49.3574 15.8505 49.3575C15.8555 49.3646 15.862 49.3724 15.8698 49.3802C15.8776 49.388 15.8855 49.3945 15.8925 49.3995C15.8927 49.3996 15.8928 49.3997 15.8929 49.3998H41.4502V51.3998H15.8502C15.275 51.3998 14.7835 51.1223 14.4556 50.7944C14.1278 50.4666 13.8502 49.975 13.8502 49.3998V35.2998C13.8502 34.7246 14.1278 34.233 14.4556 33.9052C14.7835 33.5774 15.275 33.2998 15.8502 33.2998H41.4502V35.2998H15.8929C15.8928 35.2999 15.8927 35.3 15.8925 35.3001C15.8855 35.3051 15.8776 35.3116 15.8698 35.3194C15.862 35.3272 15.8555 35.335 15.8505 35.3421C15.8504 35.3422 15.8503 35.3424 15.8502 35.3425Z" fill="#1C1B1A"/>
<path fill-rule="evenodd" clip-rule="evenodd" d="M30.2506 43.6158L15.4854 34.2549L14.4146 35.944L30.2494 45.9831L42.4845 38.2446L41.4155 36.5543L30.2506 43.6158Z" fill="#1C1B1A"/>
<path fill-rule="evenodd" clip-rule="evenodd" d="M57.2539 66.5536C57.5627 66.4348 57.8669 66.3994 58.1504 66.3994C58.4339 66.3994 58.7381 66.4348 59.0469 66.5536C59.36 66.674 59.625 66.8598 59.8575 67.0923L59.8702 67.1053L61.8504 69.1588L63.8306 67.1053C63.8676 67.0668 63.9077 67.0314 63.9504 66.9994C64.4988 66.5881 65.0051 66.3994 65.6504 66.3994C65.9339 66.3994 66.2381 66.4348 66.5469 66.5536C66.86 66.674 67.125 66.8598 67.3575 67.0923L67.3702 67.1053L70.0702 69.9053L68.6305 71.2935L65.938 68.5013C65.874 68.4383 65.8405 68.4247 65.8289 68.4203C65.8127 68.414 65.7669 68.3994 65.6504 68.3994C65.5086 68.3994 65.4181 68.4089 65.2103 68.5557L62.5702 71.2935C62.3818 71.489 62.1219 71.5994 61.8504 71.5994C61.5789 71.5994 61.319 71.489 61.1306 71.2935L58.438 68.5013C58.374 68.4383 58.3405 68.4247 58.3289 68.4203C58.3127 68.414 58.2669 68.3994 58.1504 68.3994C58.0339 68.3994 57.9881 68.414 57.9719 68.4203C57.9604 68.4247 57.9269 68.4383 57.863 68.5011L55.2707 71.1931L53.8301 69.8058L56.4301 67.1058L56.4433 67.0923C56.6758 66.8598 56.9408 66.674 57.2539 66.5536Z" fill="#1C1B1A"/>
</svg>
