<svg width="80" height="80" viewBox="0 0 80 80" fill="none" xmlns="http://www.w3.org/2000/svg">
<path fill-rule="evenodd" clip-rule="evenodd" d="M34.54 32.38C33.4164 32.38 32.5 33.2947 32.5 34.43C32.5 35.5653 33.4164 36.48 34.54 36.48C35.6636 36.48 36.58 35.5653 36.58 34.43C36.58 33.2947 35.6636 32.38 34.54 32.38ZM30.5 34.43C30.5 32.1964 32.3057 30.38 34.54 30.38C36.7743 30.38 38.58 32.1964 38.58 34.43C38.58 36.6637 36.7743 38.48 34.54 38.48C32.3057 38.48 30.5 36.6637 30.5 34.43Z" fill="#1C1B1A"/>
<path fill-rule="evenodd" clip-rule="evenodd" d="M45.67 43.5304C44.5464 43.5304 43.63 44.4451 43.63 45.5804C43.63 46.7157 44.5464 47.6304 45.67 47.6304C46.7936 47.6304 47.71 46.7157 47.71 45.5804C47.71 44.4451 46.7936 43.5304 45.67 43.5304ZM41.63 45.5804C41.63 43.3467 43.4357 41.5304 45.67 41.5304C47.9043 41.5304 49.71 43.3467 49.71 45.5804C49.71 47.8141 47.9043 49.6304 45.67 49.6304C43.4357 49.6304 41.63 47.8141 41.63 45.5804Z" fill="#1C1B1A"/>
<path fill-rule="evenodd" clip-rule="evenodd" d="M31.2623 47.4536L47.5323 31.1536L48.9478 32.5665L32.6778 48.8665L31.2623 47.4536Z" fill="#1C1B1A"/>
<path d="M32.15 61.8495C26 58.3195 23.37 53.5795 23.37 46.0395L27.11 45.6495C27.5 57.6895 42.45 62.8395 42.45 62.8395C42.45 62.8395 35.19 63.5795 32.16 61.8395L32.15 61.8495Z" fill="#1C1B1A" fill-opacity="0.1"/>
<path d="M58.8801 33.0504C58.8901 33.3404 58.7901 33.6204 58.5901 33.8304C58.3901 34.0404 58.1201 34.1604 57.8301 34.1604H55.1001L61.2201 40.9504L67.3301 34.1604H64.0701C63.1801 34.1604 63.0701 33.5104 62.9101 32.5104L62.8201 31.9404C62.6901 31.2204 62.3901 30.5204 62.1101 29.8604C60.8701 27.0204 59.1601 24.5004 57.0301 22.3804C55.1401 20.5004 52.9301 18.9704 50.4601 17.7804C55.3301 21.3904 58.5901 26.9004 58.8901 33.0604L58.8801 33.0504Z" fill="#FEE7E7"/>
<path fill-rule="evenodd" clip-rule="evenodd" d="M40.2701 15.38C36.9781 15.38 33.9048 15.9953 31.0488 17.2371L31.0462 17.2382C28.1703 18.479 25.6659 20.1782 23.5263 22.308C21.3868 24.4476 19.6875 26.9426 18.4366 29.8099C17.1944 32.6574 16.5701 35.7205 16.5701 39C16.5701 42.2795 17.1944 45.3426 18.4366 48.1902C19.6882 51.059 21.3879 53.5632 23.5256 55.6913C25.6653 57.8214 28.17 59.5209 31.0462 60.7618C33.9056 61.9955 36.9802 62.62 40.2701 62.62C43.562 62.62 46.6353 62.0047 49.4913 60.7629C52.3708 59.511 54.8755 57.8206 57.0137 55.6922C59.1532 53.5524 60.8527 51.0574 62.1035 48.1902C62.9666 46.2116 63.5383 43.5975 63.802 41.066L62.4858 42.5285L62.4672 42.5471C61.7606 43.2537 60.6258 43.2378 59.9243 42.5582L61.1511 41.2919L61.0168 41.171L67.3987 34.08H64.0301C63.6957 34.08 63.4717 33.9183 63.3804 33.8403C63.2817 33.756 63.2224 33.6716 63.1962 33.6321C63.1418 33.55 63.1124 33.4785 63.1038 33.4573C63.0819 33.4038 63.0694 33.3596 63.0662 33.3479C63.0571 33.3159 63.0511 33.2883 63.049 33.279C63.0468 33.2688 63.0446 33.2583 63.0426 33.2482C63.0398 33.234 63.0372 33.2205 63.0351 33.2091C63.0272 33.1667 63.0174 33.111 63.007 33.0501C62.9859 32.9268 62.9589 32.7632 62.932 32.5995L62.8563 32.1368C62.8454 32.071 62.8362 32.0151 62.8291 31.973C62.8207 31.9229 62.8183 31.91 62.8195 31.9161L62.8181 31.9091L62.8168 31.9021C62.689 31.2121 62.4293 30.5505 62.1048 29.8127L62.1035 29.8099C60.852 26.941 59.1522 24.4368 57.0146 22.3087C54.8764 20.1801 52.3718 18.4896 49.4923 17.2375C46.6334 16.0043 43.5594 15.38 40.2701 15.38ZM61.181 41.261L61.3159 41.1218C61.2543 41.0622 61.1396 41.0463 61.053 41.1329L61.181 41.261ZM65.9611 38.6671C65.8779 42.0347 65.216 46.0573 63.9366 48.9899C62.5876 52.0822 60.7473 54.787 58.4272 57.1071L58.4256 57.1087C56.104 59.4199 53.389 61.2492 50.2888 62.5971C47.1648 63.9553 43.8181 64.62 40.2701 64.62C36.72 64.62 33.3745 63.9445 30.2539 62.5982C27.1502 61.2591 24.4348 59.4186 22.1146 57.1087C19.7922 54.7968 17.952 52.081 16.6035 48.9899C15.2457 45.8774 14.5701 42.5405 14.5701 39C14.5701 35.4595 15.2457 32.1226 16.6035 29.0102C17.9525 25.9178 19.7928 23.213 22.113 20.8929L22.1146 20.8913C24.4345 18.5818 27.1494 16.7414 30.2526 15.4024C33.3762 14.0445 36.7225 13.38 40.2701 13.38C43.8202 13.38 47.1656 14.0555 50.2862 15.4018L50.2888 15.4029C53.389 16.7508 56.104 18.5802 58.4256 20.8913C60.7477 23.203 62.5877 25.9184 63.9362 29.009C63.9363 29.0094 63.9365 29.0098 63.9366 29.0102L63.0201 29.41L63.9354 29.0073C63.9356 29.0079 63.9359 29.0084 63.9362 29.009C64.2713 29.7709 64.6113 30.6086 64.7833 31.5379C64.7823 31.5324 64.7814 31.5277 64.7806 31.5239L63.8001 31.72L64.7833 31.5379C64.7974 31.6133 64.834 31.8379 64.8718 32.069C64.8724 32.0727 64.873 32.0763 64.8736 32.08H64.0301C64.3644 32.08 64.5883 32.2417 64.6795 32.3196C64.7781 32.4039 64.8373 32.4881 64.8634 32.5275C64.9176 32.6092 64.9468 32.6803 64.9552 32.7008C64.9764 32.7527 64.9882 32.7948 64.991 32.8047C64.9984 32.8312 65.0028 32.8516 65.0031 32.8526C65.0037 32.8556 65.004 32.8568 65.0037 32.8555C65.0034 32.8541 65.0026 32.85 65.0012 32.8423C64.9961 32.8153 64.9885 32.7718 64.9784 32.713C64.9586 32.597 64.9325 32.4393 64.9056 32.2756C64.8952 32.2122 64.8844 32.1459 64.8736 32.08H68.9001C69.0942 32.08 69.3259 32.1061 69.554 32.2019C69.788 32.3002 70.0679 32.4967 70.2193 32.8471C70.5171 33.5364 70.0839 34.1019 69.8695 34.3244L69.8834 34.309L69.1401 33.64L69.8472 34.3471C69.8543 34.34 69.8618 34.3324 69.8695 34.3244L65.9611 38.6671Z" fill="#1C1B1A"/>
<path fill-rule="evenodd" clip-rule="evenodd" d="M38.3092 13.4512C48.7069 13.9627 58.2712 22.0551 58.789 33.0228C58.8019 33.2959 58.7024 33.5624 58.5137 33.7602C58.325 33.958 58.0635 34.07 57.7901 34.07H54.9414L61.3234 41.161L61.1801 41.29L62.4272 42.5371C61.7206 43.2437 60.5858 43.2278 59.8843 42.5482C59.8679 42.5323 59.8521 42.5159 59.8368 42.4989L52.4717 34.3155C52.3418 34.1819 52.2056 34.0064 52.1168 33.7875C52.0202 33.5493 51.9623 33.2057 52.113 32.8467C52.2634 32.4884 52.5483 32.2893 52.7842 32.1909C53.0134 32.0953 53.2462 32.07 53.4401 32.07H56.7101C55.7094 22.801 47.3908 15.9004 38.2109 15.4488L38.3092 13.4512ZM61.141 41.2509L61.2759 41.1117C61.2144 41.0521 61.0996 41.0363 61.013 41.1229L61.141 41.2509ZM53.9026 32.9179C53.9026 32.9179 53.9036 32.9189 53.9053 32.921C53.9034 32.919 53.9025 32.918 53.9026 32.9179ZM53.4353 34.07C53.4326 34.0703 53.4311 34.0703 53.431 34.0703Z" fill="#1C1B1A"/>
<path d="M21.75 44.94C21.74 44.65 21.84 44.37 22.04 44.16C22.24 43.95 22.51 43.83 22.8 43.83H25.53L19.41 37.04L13.3 43.83H16.56C17.45 43.83 17.56 44.48 17.72 45.48L17.81 46.05C17.94 46.77 18.24 47.47 18.52 48.13C19.76 50.97 21.47 53.49 23.6 55.61C25.49 57.49 27.7 59.02 30.17 60.21C25.3 56.6 22.04 51.09 21.74 44.93L21.75 44.94Z" fill="#E7E2F2"/>
<path fill-rule="evenodd" clip-rule="evenodd" d="M19.3243 36.8786C19.3858 36.9382 19.5006 36.9541 19.5872 36.8675L19.4591 36.7394L19.3243 36.8786ZM19.4891 36.7085L20.7158 35.4421C20.0143 34.7625 18.8795 34.7466 18.1729 35.4533L18.1543 35.4718L10.7706 43.676C10.5562 43.8985 10.123 44.464 10.4208 45.1533C10.5723 45.5037 10.8522 45.7002 11.0861 45.7984C11.3142 45.8942 11.5459 45.9204 11.7401 45.9204H15.7665C15.7671 45.9242 15.7677 45.928 15.7684 45.9318C15.8061 46.1627 15.8428 46.3871 15.8568 46.4624C16.0289 47.3919 16.3689 48.2298 16.7041 48.9917C18.0525 52.0822 19.8926 54.7975 22.2145 57.1091C24.5361 59.4202 27.2512 61.2495 30.3513 62.5974L30.3539 62.5985C33.4745 63.9449 36.8199 64.6204 40.37 64.6204C43.9181 64.6204 47.2648 63.9557 50.3888 62.5974L49.5913 60.7633C46.7353 62.0051 43.662 62.6204 40.37 62.6204C37.0806 62.6204 34.0065 61.996 31.1474 60.7627C28.2681 59.5107 25.7637 57.8202 23.6256 55.6917C21.4879 53.5636 19.7882 51.0594 18.5366 48.1905L18.5354 48.1876C18.2108 47.4499 17.9511 46.7882 17.8233 46.0983L17.822 46.0912L17.8206 46.0842C17.8212 46.0869 17.821 46.086 17.8199 46.0797C17.8186 46.0718 17.8157 46.0555 17.811 46.0274C17.8039 45.9853 17.7947 45.9294 17.7839 45.8635L17.7081 45.4009C17.6812 45.2371 17.6542 45.0736 17.6331 44.9502C17.6227 44.8894 17.6129 44.8337 17.605 44.7913C17.6014 44.7717 17.5964 44.746 17.5911 44.7213C17.5891 44.7121 17.5831 44.6849 17.5741 44.6529C17.5708 44.6412 17.5582 44.5965 17.5364 44.543C17.5277 44.5219 17.4983 44.4503 17.4439 44.3683C17.4177 44.3287 17.3584 44.2444 17.2597 44.1601C17.1684 44.0821 16.9444 43.9204 16.6101 43.9204H13.2414L19.6233 36.8293L19.4891 36.7085ZM11.7401 43.9206C11.7401 43.9206 11.7401 43.9206 11.7401 43.9206ZM11.7335 43.9202C11.7336 43.9201 11.7349 43.9201 11.7374 43.9203Z" fill="#1C1B1A"/>
<path fill-rule="evenodd" clip-rule="evenodd" d="M19.3542 36.8786C19.4157 36.9382 19.5305 36.9541 19.6171 36.8675L19.489 36.7394L19.3542 36.8786ZM18.2029 35.4533C18.9095 34.7466 20.0443 34.7625 20.7458 35.4421C20.7622 35.458 20.778 35.4744 20.7933 35.4914L28.1584 43.6749C28.2883 43.8085 28.4245 43.984 28.5132 44.2028C28.6098 44.441 28.6677 44.7846 28.5171 45.1436C28.3667 45.5019 28.0818 45.701 27.8458 45.7994C27.6166 45.895 27.3839 45.9204 27.19 45.9204H23.92C24.9207 55.1894 33.2393 62.0899 42.4191 62.5416L42.3209 64.5392C31.9232 64.0276 22.3588 55.9353 21.8411 44.9675C21.8282 44.6944 21.9277 44.428 22.1164 44.2301C22.3051 44.0323 22.5666 43.9204 22.84 43.9204H25.6886L19.3067 36.8293L19.45 36.7004L18.2029 35.4533ZM26.7275 45.0724C26.7275 45.0724 26.7265 45.0714 26.7247 45.0693C26.7267 45.0714 26.7276 45.0724 26.7275 45.0724ZM27.1948 43.9203C27.1976 43.92 27.199 43.92 27.1991 43.9201Z" fill="#1C1B1A"/>
<path d="M47.8701 16.63C54.0201 20.16 56.6501 24.9 56.6501 32.44L52.9101 32.83C52.5201 20.79 37.5701 15.64 37.5701 15.64C37.5701 15.64 44.8301 14.9 47.8601 16.64L47.8701 16.63Z" fill="#1C1B1A" fill-opacity="0.1"/>
</svg>
