<svg width="80" height="80" viewBox="0 0 80 80" fill="none" xmlns="http://www.w3.org/2000/svg">
<path d="M11 11C11 10.4477 11.4477 10 12 10H56C56.5523 10 57 10.4477 57 11V66C57 66.5523 56.5523 67 56 67H12C11.4477 67 11 66.5523 11 66V11Z" fill="white"/>
<path d="M10 11C10 9.89543 10.8954 9 12 9H24V11L12 11V66H56V59L58 58V66C58 67.1046 57.1046 68 56 68H12C10.8954 68 10 67.1046 10 66V11Z" fill="#1C1B1A"/>
<path d="M56 9C57.1046 9 58 9.89543 58 11V38L56 37V11H44V9H56Z" fill="#1C1B1A"/>
<path opacity="0.1" d="M21 10H47V14C47 15.1046 46.1046 16 45 16H23C21.8954 16 21 15.1046 21 14V10Z" fill="#1C1B1A"/>
<path fill-rule="evenodd" clip-rule="evenodd" d="M30.126 8C30.5701 6.27477 32.1362 5 34 5C35.8638 5 37.4299 6.27477 37.874 8H44V13H34H24V8H30.126Z" fill="#E7E2F2"/>
<path fill-rule="evenodd" clip-rule="evenodd" d="M34 6C32.6035 6 31.4275 6.95512 31.0945 8.24926C30.9807 8.69114 30.5823 9 30.126 9H25V12H43V9H37.874C37.4177 9 37.0193 8.69114 36.9055 8.24926C36.5725 6.95512 35.3965 6 34 6ZM29.4164 7C30.1878 5.23448 31.9488 4 34 4C36.0512 4 37.8122 5.23448 38.5836 7H44C44.5523 7 45 7.44772 45 8V13C45 13.5523 44.5523 14 44 14H24C23.4477 14 23 13.5523 23 13V8C23 7.44772 23.4477 7 24 7H29.4164Z" fill="#1C1B1A"/>
<path d="M18 21.8125H26.8344V30.6469H18V21.8125Z" fill="#E7E2F2"/>
<path fill-rule="evenodd" clip-rule="evenodd" d="M17 20.8125H27.8344V31.6469H17V20.8125ZM19 22.8125V29.6469H25.8344V22.8125H19Z" fill="#1C1B1A"/>
<path d="M18 36.959H26.8344V45.7933H18V36.959Z" fill="#E7E2F2"/>
<path fill-rule="evenodd" clip-rule="evenodd" d="M17 35.959H27.8344V46.7933H17V35.959ZM19 37.959V44.7933H25.8344V37.959H19Z" fill="#1C1B1A"/>
<path d="M18 52.1035H26.8344V60.9379H18V52.1035Z" fill="#E7E2F2"/>
<path fill-rule="evenodd" clip-rule="evenodd" d="M17 51.1035H27.8344V61.9379H17V51.1035ZM19 53.1035V59.9379H25.8344V53.1035H19Z" fill="#1C1B1A"/>
<path fill-rule="evenodd" clip-rule="evenodd" d="M40.717 25.3379H30.6206V23.3379H40.717V25.3379Z" fill="#1C1B1A"/>
<path fill-rule="evenodd" clip-rule="evenodd" d="M46 40H31V38H46V40Z" fill="#1C1B1A"/>
<path fill-rule="evenodd" clip-rule="evenodd" d="M44 55H31V53H44V55Z" fill="#1C1B1A"/>
<path fill-rule="evenodd" clip-rule="evenodd" d="M48.6206 29.125H30.6206V27.125H48.6206V29.125Z" fill="#1C1B1A"/>
<path fill-rule="evenodd" clip-rule="evenodd" d="M43 44H31V42H43V44Z" fill="#1C1B1A"/>
<path fill-rule="evenodd" clip-rule="evenodd" d="M41 59H31V57H41V59Z" fill="#1C1B1A"/>
<path fill-rule="evenodd" clip-rule="evenodd" d="M30.4633 21.0966L22.4288 28.5955L19.4165 25.5284L20.4867 24.4773L22.4744 26.5011L29.4399 20L30.4633 21.0966Z" fill="#1C1B1A"/>
<path fill-rule="evenodd" clip-rule="evenodd" d="M30.4988 35.0611L22.4274 43.6706L19.3828 40.1278L20.5204 39.1502L22.4759 41.4256L29.4045 34.0352L30.4988 35.0611Z" fill="#1C1B1A"/>
<path d="M51.1983 36.8668C51.8958 36.5983 52.5721 36.4004 53.1 36.4004L53.1739 36.7002C53.1826 36.7002 53.1913 36.7002 53.2 36.7002C54.8 36.7002 56.2 37.0002 57.6 37.6002C57.9936 37.7689 58.3634 37.9533 58.714 38.1536L58.7 34.4004C55.2 32.9004 50.9 32.9004 47.4 34.4004C45.6 35.2004 44.1 36.2004 42.8 37.5004C41.5 38.8004 40.5 40.4004 39.7 42.1004C38.9 43.9004 38.5 45.8004 38.5 47.8004C38.5 49.8004 38.9 51.7004 39.7 53.5004C40.5 55.3004 41.5 56.8004 42.8 58.1004C44.1 59.4004 45.7 60.4004 47.4 61.2004C49.2 62.0004 51.1 62.4004 53.1 62.4004C55.1 62.4004 57 62.0004 58.8 61.2004L58.7865 57.5791C58.4028 57.8056 58.0063 58.0127 57.6 58.2002C56.3 58.8002 54.8 59.1002 53.2 59.1002C51.6 59.1002 50.2 58.8002 48.8 58.2002C47.4 57.6002 46.3 56.8002 45.3 55.8002C44.3 54.8002 43.5 53.6002 42.9 52.3002C42.6919 51.8147 42.5199 51.3292 42.384 50.8353C42.2139 50.3892 42.1 49.9391 42.1 49.5004C42.1 49.4808 42.1 49.461 42.1 49.4409C42.0333 48.9446 42 48.4335 42 47.9002C42 46.3002 42.3 44.9002 42.9 43.5002C43.5 42.1002 44.3 41.0002 45.3 40.0002C46.3 39.0002 47.5 38.2002 48.8 37.6002C49.5407 37.2583 50.3463 37.0139 51.1983 36.8668Z" fill="#1C1B1A" fill-opacity="0.1"/>
<path d="M53.2 59.0992C51.6 59.0992 50.2 58.7992 48.8 58.1992C47.4 57.5992 46.3 56.7992 45.3 55.7992C44.3 54.7992 43.5 53.5992 42.9 52.2992C42.3 50.8992 42 49.4992 42 47.8992C42 46.2992 42.3 44.8992 42.9 43.4992C43.5 42.0992 44.3 40.9992 45.3 39.9992C46.3 38.9992 47.5 38.1992 48.8 37.5992C50.1 36.9992 51.6 36.6992 53.2 36.6992C54.8 36.6992 56.2 36.9992 57.6 37.5992C59 38.1992 60.1 38.9992 61.1 39.9992C62.1 40.9992 62.9 42.1992 63.5 43.4992C64.1 44.8992 64.4 46.2992 64.4 47.8992C64.4 49.4992 64.1 50.8992 63.5 52.2992C62.9 53.6992 62.1 54.7992 61.1 55.7992C60.1 56.7992 58.9 57.5992 57.6 58.1992C56.3 58.7992 54.8 59.0992 53.2 59.0992Z" fill="#FEE7E7"/>
<path fill-rule="evenodd" clip-rule="evenodd" d="M53.2 37.6992C51.7227 37.6992 50.3691 37.9764 49.2191 38.5072C48.012 39.0643 46.9133 39.8001 46.0071 40.7063C45.0845 41.6289 44.3625 42.6253 43.8191 43.8931C43.2716 45.1706 43 46.4368 43 47.8992C43 49.3568 43.2699 50.6195 43.8137 51.8927C44.3701 53.0948 45.104 54.189 46.0071 55.0921C46.9297 56.0147 47.9261 56.7367 49.1939 57.2801C50.4714 57.8276 51.7376 58.0992 53.2 58.0992C54.6773 58.0992 56.0309 57.822 57.1809 57.2913C58.388 56.7342 59.4866 55.9984 60.3929 55.0921C61.3155 54.1695 62.0375 53.1731 62.5809 51.9053C63.1284 50.6278 63.4 49.3617 63.4 47.8992C63.4 46.4416 63.1301 45.179 62.5862 43.9057C62.0299 42.7036 61.296 41.6094 60.3929 40.7063C59.4703 39.7837 58.4739 39.0617 57.2061 38.5184C55.9286 37.9709 54.6624 37.6992 53.2 37.6992ZM48.3809 36.6913C49.8309 36.022 51.4773 35.6992 53.2 35.6992C54.9376 35.6992 56.4714 36.0276 57.9939 36.6801C59.5261 37.3367 60.7297 38.2147 61.8071 39.2921C62.9009 40.3859 63.765 41.6872 64.408 43.0802L64.4137 43.0927L64.4191 43.1053C65.0716 44.6278 65.4 46.1617 65.4 47.8992C65.4 49.6368 65.0716 51.1706 64.4191 52.6931C63.7625 54.2253 62.8845 55.4289 61.8071 56.5063C60.7133 57.6001 59.412 58.4643 58.0191 59.1072C56.5691 59.7764 54.9227 60.0992 53.2 60.0992C51.4624 60.0992 49.9286 59.7709 48.4061 59.1184C46.8739 58.4617 45.6703 57.5837 44.5929 56.5063C43.4991 55.4126 42.635 54.1113 41.992 52.7183L41.9863 52.7058L41.9809 52.6931C41.3284 51.1706 41 49.6368 41 47.8992C41 46.1617 41.3284 44.6278 41.9809 43.1053C42.6375 41.5731 43.5155 40.3695 44.5929 39.2921C45.6866 38.1984 46.988 37.3342 48.3809 36.6913Z" fill="#1C1B1A"/>
<path fill-rule="evenodd" clip-rule="evenodd" d="M72.7959 67.91L60.7959 56.01L62.2042 54.5898L74.2042 66.4898L72.7959 67.91Z" fill="#1C1B1A"/>
</svg>
