<svg width="80" height="80" viewBox="0 0 80 80" fill="none" xmlns="http://www.w3.org/2000/svg">
<path fill-rule="evenodd" clip-rule="evenodd" d="M40.0102 7.5C37.9386 7.5 35.9273 8.29067 34.3354 9.74767L34.3317 9.75103C30.9784 12.7897 30.4156 17.8964 33.0202 21.6276L33.04 21.6559L33.1975 21.9184L33.2059 21.9353L33.2121 21.945C33.2121 21.945 33.2123 21.9453 33.2113 21.946L33.2147 21.9528C33.2135 21.9504 33.2124 21.9481 33.2113 21.946C33.2085 21.9479 33.1981 21.9548 33.1604 21.9799C33.0814 22.0326 32.8823 22.1653 32.3803 22.5C31.5482 23.0547 31.5482 23.0547 31.5482 23.0546L31.5464 23.0519L31.5435 23.0477L31.5353 23.035C31.5288 23.025 31.5198 23.0111 31.5098 22.995C31.4982 22.9765 31.4743 22.938 31.4492 22.8919L31.3601 22.7434C28.2083 18.1978 28.8907 11.9842 32.9869 8.27065C34.9347 6.48871 37.4228 5.5 40.0102 5.5C42.6022 5.5 45.3195 6.58251 47.283 8.46886L47.2873 8.47299C49.6705 10.7899 50.7853 14.011 50.5883 17.1624L48.5922 17.0376C48.7552 14.4299 47.8307 11.792 45.8953 9.90909C44.299 8.3767 42.0773 7.5 40.0102 7.5Z" fill="#1C1B1A"/>
<path fill-rule="evenodd" clip-rule="evenodd" d="M22.6982 18.4575C20.7308 19.6154 19.288 21.415 18.625 23.5274C17.9848 25.6031 18.0938 27.8496 18.941 29.8504L18.9411 29.8506C20.3571 33.1967 23.4884 35.2003 26.8102 35.2003C27.7029 35.2003 28.6061 35.0575 29.4939 34.7616L30.1264 36.659C29.0342 37.023 27.9174 37.2003 26.8102 37.2003C22.672 37.2003 18.8233 34.704 17.0993 30.6302M22.6982 18.4575C24.6601 17.3584 26.8447 17.1119 28.8486 17.6107L28.8527 17.6117C29.2452 17.7076 29.6354 17.8401 30.024 18.0027L30.7963 16.1579C30.3256 15.9608 29.8364 15.7934 29.3297 15.6694C26.837 15.0495 24.1258 15.3619 21.7105 16.7184L21.7021 16.7231L21.6938 16.728C19.3062 18.1299 17.5324 20.3274 16.716 22.9311L16.716 22.9311L16.7147 22.9353C15.9356 25.459 16.0668 28.1915 17.0992 30.63" fill="#1C1B1A"/>
<path fill-rule="evenodd" clip-rule="evenodd" d="M23.4125 43.904C22.9069 41.1916 23.6223 38.556 25.1829 36.5918L23.617 35.3477C21.698 37.763 20.8334 40.9865 21.4469 44.2732L21.4469 44.2732L21.4477 44.2776C21.9723 47.0206 23.4416 49.4332 25.6193 51.0692L25.6231 51.0721C27.4378 52.4221 29.6277 53.1397 31.8999 53.1397C32.2118 53.1397 32.5378 53.129 32.8721 53.0945C38.3349 52.5398 42.4371 47.8606 42.4699 42.2556L40.47 42.2439C40.4428 46.8785 37.0656 50.6589 32.669 51.1048L32.667 51.105C32.4215 51.1304 32.1678 51.1397 31.8999 51.1397C30.053 51.1397 28.2836 50.5579 26.8187 49.4688C25.058 48.1453 23.8482 46.1792 23.4125 43.904Z" fill="#1C1B1A"/>
<path fill-rule="evenodd" clip-rule="evenodd" d="M50.6852 33.7287C50.6135 33.698 50.5635 33.6767 50.508 33.6559L51.2102 31.7832C51.2969 31.8157 51.3735 31.8479 51.4361 31.8746C56.6657 33.6476 59.666 39.1374 58.4869 44.6293C57.937 47.1919 56.4858 49.4789 54.4172 51.0634L54.4099 51.069L54.4099 51.0689C52.5866 52.4392 50.4157 53.1595 48.1591 53.1595C47.6997 53.1595 47.2582 53.1259 46.8181 53.0722L46.8085 53.071L46.8085 53.071C43.5363 52.6398 40.7967 50.7476 39.166 48.0813L40.8722 47.0378C42.2008 49.2102 44.4194 50.7375 47.0651 51.0875C47.4431 51.1334 47.8001 51.1595 48.1591 51.1595C49.981 51.1595 51.7287 50.5808 53.2046 49.4729C54.8941 48.1775 56.0816 46.3057 56.5314 44.2097L56.5314 44.2096C57.5092 39.6554 55.0077 35.1791 50.7617 33.7578L50.7229 33.7448L50.6852 33.7287Z" fill="#1C1B1A"/>
<path fill-rule="evenodd" clip-rule="evenodd" d="M57.5259 18.6116C55.1276 17.1547 52.3266 17.0229 49.9352 18.0223L49.9338 18.0229C48.4997 18.6197 47.1982 19.6391 46.2051 21.0384L44.5741 19.8809C45.7809 18.1804 47.3791 16.9199 49.1647 16.1767C52.1318 14.937 55.6086 15.1046 58.5692 16.9053L58.5774 16.9102L58.5774 16.9103C60.8354 18.3133 62.5 20.4457 63.2735 22.9296C64.1085 25.5579 63.9306 28.402 62.78 30.9334L62.7769 30.9403L62.7737 30.947C61.3474 33.9641 58.7396 36.0617 55.7539 36.8468L55.2453 34.9125C57.6574 34.2782 59.7879 32.5783 60.9623 30.099C61.9084 28.0132 62.0499 25.6813 61.3666 23.5327L61.3647 23.5267L61.3647 23.5267C60.7384 21.5133 59.3849 19.768 57.5259 18.6116Z" fill="#1C1B1A"/>
<path fill-rule="evenodd" clip-rule="evenodd" d="M39.9999 20.7803C37.9607 20.7803 36.0221 21.4373 34.3834 22.6776L34.3804 22.6799L34.3804 22.6799C31.9071 24.5372 30.4199 27.5383 30.4199 30.7003C30.4199 36.1979 34.7516 40.6203 39.9999 40.6203H40.4142L40.4154 40.6214C45.4795 40.4007 49.5899 36.0656 49.5899 30.7103C49.5899 27.6192 48.1847 24.7229 45.8535 22.8976L45.7793 22.8396L45.7173 22.7688C45.7055 22.7553 45.6806 22.7302 45.6204 22.6831C43.9728 21.4355 42.0362 20.7803 39.9999 20.7803ZM33.1779 21.0818C35.159 19.5828 37.5197 18.7803 39.9999 18.7803C42.4814 18.7803 44.8429 19.5836 46.8341 21.0934L46.8439 21.1009L46.8439 21.1009C46.9389 21.1748 47.0455 21.2642 47.151 21.3738C49.9406 23.5908 51.5899 27.0495 51.5899 30.7103C51.5899 37.2527 46.4216 42.6303 40.0099 42.6303H39.5956L39.5778 42.6125C33.3629 42.3826 28.4199 37.0985 28.4199 30.7003C28.4199 26.9229 30.1922 23.3246 33.1779 21.0818Z" fill="#1C1B1A"/>
<path d="M39.9999 41.6203C34.1699 41.6203 29.4199 36.7203 29.4199 30.7003C29.4199 27.2303 31.0499 23.9303 33.7799 21.8803C35.5899 20.5103 37.7399 19.7803 39.9999 19.7803C42.2599 19.7803 44.4099 20.5103 46.2299 21.8903C46.3199 21.9603 46.3999 22.0303 46.4699 22.1103C49.0499 24.1303 50.5899 27.3203 50.5899 30.7103C50.5899 36.7303 45.8399 41.6303 40.0099 41.6303L39.9999 41.6203Z" fill="#FEE7E7"/>
<path fill-rule="evenodd" clip-rule="evenodd" d="M39.9999 20.2803C37.8503 20.2803 35.806 20.9738 34.0817 22.2789L34.0802 22.2801C31.4785 24.2337 29.9199 27.3843 29.9199 30.7003C29.9199 36.4591 34.4608 41.1203 39.9999 41.1203H40.2071L40.215 41.1281C45.6607 41.0148 50.0899 36.3979 50.0899 30.7103C50.0899 27.4698 48.6173 24.4266 46.1617 22.504L46.1246 22.4749L46.0936 22.4395C46.053 22.3931 46.0007 22.3456 45.9253 22.2868C44.1914 20.9729 42.1481 20.2803 39.9999 20.2803ZM33.4789 21.481C35.3745 20.0465 37.6298 19.2803 39.9999 19.2803C42.3707 19.2803 44.6264 20.047 46.532 21.4919L46.5369 21.4956L46.5369 21.4956C46.6285 21.5669 46.7231 21.6473 46.8124 21.7435C49.4961 23.8622 51.0899 27.1857 51.0899 30.7103C51.0899 36.9915 46.1308 42.1303 40.0099 42.1303H39.8028L39.7908 42.1183C33.7665 42.0028 28.9199 36.9098 28.9199 30.7003C28.9199 27.0766 30.621 23.6274 33.4789 21.481Z" fill="#1C1B1A"/>
<path fill-rule="evenodd" clip-rule="evenodd" d="M25.918 30.6319C25.918 38.5378 32.2492 44.9717 40.0397 44.9717V44.9598C47.8302 44.9598 54.1615 38.5259 54.1615 30.62C54.1615 26.1804 52.1114 21.9901 48.6623 19.331C48.5658 19.2242 48.4694 19.1292 48.3488 19.0461C45.9248 17.2418 43.0546 16.2803 40.0397 16.2803C37.0248 16.2803 34.1547 17.2418 31.7427 19.0461C28.0887 21.7408 25.918 26.0736 25.918 30.6319ZM28.7915 30.7308C28.7915 37.2643 33.8226 42.5822 39.9978 42.5822L40.0083 42.5931C46.1835 42.5931 51.2146 37.2752 51.2146 30.7417C51.2146 27.0625 49.5835 23.6004 46.8508 21.4082C46.7766 21.3213 46.6919 21.2454 46.5966 21.1694C44.6688 19.6717 42.3915 18.8794 39.9978 18.8794C37.604 18.8794 35.3267 19.6717 33.4096 21.1585C30.5179 23.3834 28.7915 26.9649 28.7915 30.7308Z" fill="#1C1B1A" fill-opacity="0.1"/>
<path d="M70.8795 55.62C71.4195 55.87 71.6495 56.53 71.3995 57.1C65.8095 69.29 52.6295 75.86 40.0595 72.71H40.0195C40.0195 72.71 50.5895 50.85 70.5395 55.53C71.1195 55.67 71.5695 56.13 71.4995 56.75" fill="#E7E2F2"/>
<path fill-rule="evenodd" clip-rule="evenodd" d="M39.9369 73.7099H38.4248L39.1188 72.2746L40.0191 72.7099C39.1188 72.2746 39.119 72.2741 39.1193 72.2736L39.1222 72.2677L39.1294 72.2529L39.1556 72.2001C39.1782 72.1548 39.2113 72.0896 39.2546 72.0058C39.3413 71.8383 39.4694 71.5967 39.6387 71.293C39.9772 70.6856 40.4808 69.8285 41.1475 68.817C42.479 66.797 44.4708 64.1465 47.1091 61.6399C52.387 56.6253 60.3471 52.1118 70.7675 54.5563L70.7737 54.5578C70.9451 54.5992 71.1179 54.6616 71.2845 54.7442L71.2992 54.7124C71.8096 54.9487 72.1656 55.3579 72.3508 55.8323C72.4784 56.1308 72.5364 56.4755 72.4928 56.8621L72.4857 56.8613C72.4619 57.079 72.4054 57.2951 72.3149 57.5015L72.3115 57.5092L72.3081 57.5167C66.5458 70.0824 52.9615 76.9108 39.9369 73.7099ZM70.4992 56.6056C70.4985 56.6047 70.4977 56.6038 70.4969 56.6028C70.4764 56.5783 70.4169 56.5296 70.3068 56.5026C60.7791 54.269 53.4805 58.3451 48.4866 63.0898C45.9886 65.4632 44.0911 67.9853 42.8173 69.9177C42.2698 70.7483 41.8394 71.4672 41.5276 72.0147C53.2272 74.3338 65.2651 68.0647 70.4853 56.6936C70.4984 56.6617 70.5017 56.6315 70.4992 56.6056Z" fill="#1C1B1A"/>
<path fill-rule="evenodd" clip-rule="evenodd" d="M39.5361 71.5041L55.2961 63.2441L56.2246 65.0156L40.4646 73.2756L39.5361 71.5041Z" fill="#1C1B1A"/>
<path d="M9.12035 55.4901C8.58035 55.7401 8.35036 56.4001 8.60036 56.9701C14.1904 69.1601 27.3704 75.7301 39.9404 72.5801H39.9804C39.9804 72.5801 29.4104 50.7201 9.46036 55.4001C8.88036 55.5401 8.43036 56.0001 8.50036 56.6201" fill="#E7E2F2"/>
<path fill-rule="evenodd" clip-rule="evenodd" d="M40.8802 72.1437C40.8804 72.1443 40.8807 72.1447 39.9804 72.58L40.8807 72.1447L41.5747 73.58H40.0626C27.038 76.781 13.4537 69.9526 7.6914 57.3869L7.68794 57.3793L7.6846 57.3717C7.59405 57.1652 7.53754 56.9491 7.51379 56.7314L7.5067 56.7322C7.46305 56.3456 7.52109 56.001 7.64872 55.7024C7.83384 55.228 8.18984 54.8189 8.70026 54.5826L8.71496 54.6143C8.88158 54.5318 9.05435 54.4693 9.22574 54.4279L9.23199 54.4264C19.6524 51.9819 27.6125 56.4954 32.8904 61.5101C35.5286 64.0167 37.5205 66.6672 38.852 68.6872C39.5187 69.6986 40.0223 70.5557 40.3608 71.1631C40.53 71.4669 40.6582 71.7085 40.7449 71.876C40.7882 71.9597 40.8212 72.025 40.8439 72.0703L40.8701 72.123L40.8773 72.1378L40.8802 72.1437ZM9.50027 56.4758C9.49775 56.5017 9.50109 56.5318 9.51422 56.5638C14.7344 67.9349 26.7723 74.2039 38.4719 71.8849C38.1601 71.3374 37.7297 70.6185 37.1822 69.7879C35.9084 67.8554 34.0109 65.3334 31.5128 62.96C26.519 58.2153 19.2203 54.1392 9.69264 56.3727C9.58253 56.3998 9.52309 56.4485 9.50261 56.4729C9.50175 56.4739 9.50097 56.4749 9.50027 56.4758Z" fill="#1C1B1A"/>
<path fill-rule="evenodd" clip-rule="evenodd" d="M24.7047 63.1045L40.4647 71.3745L39.5354 73.1455L23.7754 64.8755L24.7047 63.1045Z" fill="#1C1B1A"/>
<path fill-rule="evenodd" clip-rule="evenodd" d="M37.4856 25.4499C38.8722 24.3136 40.9349 24.3152 42.3534 25.318L42.3599 25.3226L42.3663 25.3273C42.6476 25.5352 42.9117 25.7853 43.1405 26.0904L41.9405 26.9904C41.8109 26.8176 41.6572 26.6692 41.4811 26.5383C40.5801 25.9059 39.2674 25.9288 38.436 26.6104L38.4348 26.6114C38.149 26.8447 37.9805 27.1742 37.9805 27.7204C37.9805 28.1681 38.1068 28.4854 38.3214 28.7325C38.556 28.9909 39.0489 29.3049 39.9223 29.6168L40.5991 29.8159L40.6158 29.8217C41.6989 30.1966 42.5538 30.659 43.0811 31.2521L43.0818 31.2529C43.6086 31.8473 43.8605 32.5915 43.8605 33.4204C43.8605 34.4037 43.5194 35.2635 42.7767 35.8698C41.2658 37.1207 39.0228 37.1022 37.4792 36.014C36.9687 35.6563 36.5691 35.1732 36.2568 34.6181L37.5642 33.8827C37.7917 34.2872 38.0517 34.5837 38.3406 34.786L38.3428 34.7876C39.3783 35.518 40.873 35.4998 41.8218 34.7131L41.8267 34.709C42.1624 34.4355 42.3605 34.036 42.3605 33.4204C42.3605 32.9096 42.2126 32.5339 41.9596 32.2483C41.6883 31.9433 41.128 31.5881 40.1416 31.2449L39.4591 31.0441L39.4397 31.0372C38.4693 30.6929 37.6882 30.2712 37.203 29.7321L37.196 29.7243C36.7128 29.1721 36.4805 28.4903 36.4805 27.7204C36.4805 26.8069 36.7918 26.0166 37.4856 25.4499Z" fill="#1C1B1A"/>
<path fill-rule="evenodd" clip-rule="evenodd" d="M39.2605 25.1102V23.4102H40.7605V25.1102H39.2605Z" fill="#1C1B1A"/>
<path fill-rule="evenodd" clip-rule="evenodd" d="M39.2605 37.9902V36.2902H40.7605V37.9902H39.2605Z" fill="#1C1B1A"/>
<path fill-rule="evenodd" clip-rule="evenodd" d="M39.0498 72.3902V48.6602H41.0498V72.3902H39.0498Z" fill="#1C1B1A"/>
</svg>
