<svg width="80" height="80" viewBox="0 0 80 80" fill="none" xmlns="http://www.w3.org/2000/svg">
<path d="M53.0001 68.2997C49.4001 68.2997 43.8001 66.3997 42.8001 65.7997C42.1001 65.4997 41.3001 64.8997 41.2001 63.5997V63.3997C41.1001 62.4997 41.3001 61.7997 41.5001 61.1997C41.5001 61.0997 41.5001 61.0997 41.6001 60.9997C41.7001 60.4997 41.9001 59.9997 42.0001 59.4997C42.1001 59.0997 42.2001 58.5997 42.3001 58.1997C42.4001 57.6997 42.5001 57.1997 42.6001 56.5997L45.5001 56.3997C45.4001 57.0997 44.7001 62.1997 44.7001 62.4997C46.6001 63.0997 52.9001 64.4997 54.1001 64.3997C54.1001 64.1997 54.4001 59.5997 54.4001 58.6997L58.4001 59.9997C58.4001 60.8997 58.3001 61.7997 58.2001 62.6997V62.7997C58.1001 64.1997 57.9001 66.9997 54.8001 67.9997C54.3001 68.1997 53.7001 68.2997 53.0001 68.2997Z" fill="#1C1B1A" fill-opacity="0.1"/>
<path fill-rule="evenodd" clip-rule="evenodd" d="M13.1729 70.0996C13.6244 66.9992 16.165 64.0353 20.4261 61.7291C25.1035 59.1975 31.6334 57.5996 38.9001 57.5996C41.1476 57.5996 43.3034 57.7949 45.5096 57.9955C46.0596 58.0455 46.546 57.6402 46.596 57.0901C46.646 56.5401 46.2407 56.0537 45.6906 56.0037L45.6709 56.0019C43.4834 55.8031 41.2455 55.5996 38.9001 55.5996C31.3668 55.5996 24.4967 57.2517 19.4741 59.9702C14.4914 62.667 11.1001 66.5577 11.1001 71.0996C11.1001 71.6519 11.5478 72.0996 12.1001 72.0996H65.7001C66.2524 72.0996 66.7001 71.6519 66.7001 71.0996C66.7001 65.7639 61.9843 61.2156 55.2666 58.5692C54.7528 58.3668 54.1721 58.6192 53.9697 59.1331C53.7673 59.6469 54.0197 60.2276 54.5336 60.43C60.4837 62.774 64.0763 66.3801 64.6261 70.0996H13.1729Z" fill="#1C1B1A"/>
<path fill-rule="evenodd" clip-rule="evenodd" d="M50.8743 27.2948C51.374 27.0596 51.9698 27.2741 52.2049 27.7738C53.8727 31.3177 54.589 35.3504 55.1872 39.0395C55.1888 39.0494 55.1903 39.0592 55.1916 39.0691C55.6962 42.9047 55.9989 46.8395 56.0998 50.6733C56.1 50.682 56.1001 50.6908 56.1001 50.6996V50.7091C56.1001 53.1963 56.1001 55.6069 56.0001 58.1197C55.9992 59.4614 55.9093 60.7134 55.8169 62.0012C55.8104 62.0909 55.804 62.1807 55.7976 62.2708L55.7967 62.2826L55.7966 62.2826C55.7912 62.3484 55.7859 62.418 55.7804 62.4907C55.7425 62.9908 55.6935 63.6388 55.4884 64.1953C55.2108 64.9489 54.6564 65.5593 53.6942 65.8554L53.6823 65.859L53.6823 65.8589C53.029 66.0511 52.1401 65.9896 51.3298 65.8758C50.4665 65.7546 49.4957 65.5419 48.5762 65.3056C47.6537 65.0686 46.7636 64.8029 46.0559 64.5696C45.4189 64.3597 44.8304 64.1447 44.5376 63.9865C44.4979 63.9673 44.4739 63.9588 44.4485 63.9498L44.4467 63.9492C44.4351 63.9452 44.3744 63.9241 44.3191 63.8996C44.2472 63.8678 44.1118 63.8005 43.9805 63.6692C43.7326 63.4213 43.6782 63.1142 43.669 63.0626C43.6686 63.0599 43.6682 63.0579 43.668 63.0566C43.6612 63.0227 43.6539 62.9819 43.6484 62.9503C43.6472 62.9436 43.6461 62.9374 43.6451 62.9317C43.6381 62.8923 43.6301 62.8485 43.6195 62.7957C43.6066 62.7311 43.6001 62.6654 43.6001 62.5996C43.6001 62.2969 43.6882 61.9511 43.7491 61.7319C43.8138 61.4989 43.8892 61.2702 43.9392 61.12C44.0341 60.7387 44.1295 60.3336 44.2267 59.9205L44.2276 59.9168C44.324 59.5068 44.4223 59.0891 44.521 58.693C45.428 53.4454 47.4651 40.0879 44.9311 30.1466C44.7947 29.6114 45.1179 29.067 45.6531 28.9306C46.1883 28.7941 46.7327 29.1174 46.8691 29.6526C49.5292 40.0885 47.3816 53.8924 46.4854 59.0701C46.4813 59.0943 46.4762 59.1183 46.4702 59.1421C46.3722 59.5342 46.2738 59.9522 46.1735 60.3786L46.1726 60.3825C46.0732 60.8049 45.9719 61.2354 45.8702 61.6421C45.864 61.6669 45.8569 61.6915 45.8488 61.7158C45.7981 61.868 45.7309 62.0701 45.6761 62.2672C45.6725 62.2803 45.6689 62.2932 45.6655 62.3059C45.7175 62.3271 45.7784 62.3512 45.8482 62.3777C46.0645 62.4601 46.348 62.5601 46.6818 62.6701C47.3491 62.89 48.1965 63.1431 49.074 63.3685C49.9545 63.5948 50.8462 63.7883 51.6079 63.8952C52.4158 64.0086 52.9128 63.9982 53.1129 63.9417C53.4451 63.838 53.5399 63.6989 53.6118 63.5039C53.7133 63.2281 53.7407 62.8902 53.7848 62.3461C53.7905 62.2751 53.7965 62.2007 53.8031 62.1224C53.809 62.0391 53.8149 61.9563 53.8209 61.874C53.9147 60.5653 54.0001 59.3746 54.0001 58.0996C54.0001 58.0862 54.0004 58.0729 54.0009 58.0596C54.0998 55.5871 54.1001 53.2109 54.1001 50.7128C54.0008 46.9556 53.7042 43.1002 53.2106 39.3449C52.6094 35.6387 51.9255 31.8771 50.3953 28.6254C50.1601 28.1257 50.3746 27.5299 50.8743 27.2948Z" fill="#1C1B1A"/>
<path fill-rule="evenodd" clip-rule="evenodd" d="M54.3744 37.7805C52.8944 38.5774 50.9219 38.9 49.8003 38.9V36.9C50.6787 36.9 52.3062 36.6226 53.4262 36.0195L54.3744 37.7805Z" fill="#1C1B1A"/>
<path fill-rule="evenodd" clip-rule="evenodd" d="M52.2457 47.5983C49.9277 47.7037 48.2947 47.3886 47.0586 46.9392L47.7421 45.0596C48.706 45.4101 50.073 45.695 52.1549 45.6004L52.2457 47.5983Z" fill="#1C1B1A"/>
<path fill-rule="evenodd" clip-rule="evenodd" d="M50.1991 56.4009C49.9665 56.3573 49.7528 56.3173 49.5587 56.2895L49.8416 54.3096C50.1181 54.3491 50.388 54.3979 50.6566 54.4463C51.8953 54.6699 53.1066 54.8886 54.8155 54.1765L55.5848 56.0227C53.2873 56.9799 51.4628 56.6379 50.1991 56.4009Z" fill="#1C1B1A"/>
<path d="M27.4001 46.1996C27.4001 49.5996 24.7001 52.2996 21.3001 52.2996C17.9001 52.2996 15.2001 49.5996 15.2001 46.1996C15.2001 42.7996 17.9001 40.0996 21.3001 40.0996C24.6001 40.0996 27.4001 42.7996 27.4001 46.1996Z" fill="#E7E2F2"/>
<path fill-rule="evenodd" clip-rule="evenodd" d="M21.3001 41.0996C18.4524 41.0996 16.2001 43.3519 16.2001 46.1996C16.2001 49.0473 18.4524 51.2996 21.3001 51.2996C24.1478 51.2996 26.4001 49.0473 26.4001 46.1996C26.4001 43.3625 24.0585 41.0996 21.3001 41.0996ZM14.2001 46.1996C14.2001 42.2473 17.3478 39.0996 21.3001 39.0996C25.1417 39.0996 28.4001 42.2367 28.4001 46.1996C28.4001 50.1519 25.2524 53.2996 21.3001 53.2996C17.3478 53.2996 14.2001 50.1519 14.2001 46.1996Z" fill="#1C1B1A"/>
<path d="M41.5001 23.1999C39.7001 22.2999 33.3001 18.1999 31.0001 17.0999C34.4001 15.4999 38.6001 15.4999 42.1001 17.5999C44.7001 19.0999 46.2001 21.0999 47.2001 23.8999L48.0001 26.9999" fill="#FEE7E7"/>
<path fill-rule="evenodd" clip-rule="evenodd" d="M33.4451 17.2857C34.5142 17.8994 35.7564 18.6454 36.9544 19.3685C37.1795 19.5043 37.403 19.6393 37.6237 19.7727C39.5039 20.9086 41.1836 21.9233 41.9473 22.3052C42.4413 22.5522 42.6415 23.1528 42.3945 23.6468C42.1476 24.1408 41.5469 24.341 41.0529 24.094C40.2113 23.6732 38.4557 22.6124 36.6131 21.4989C36.3832 21.36 36.1519 21.2202 35.9209 21.0808C33.7875 19.7931 31.6637 18.5255 30.5687 18.0017C30.2202 17.8351 29.9989 17.4827 30.0001 17.0965C30.0013 16.7102 30.2249 16.3592 30.5743 16.1948C34.2492 14.4654 38.8003 14.4571 42.6072 16.7377C45.4362 18.372 47.0746 20.5748 48.1419 23.5633C48.152 23.5917 48.1609 23.6205 48.1684 23.6497L48.9684 26.7497C49.1064 27.2845 48.7848 27.8299 48.25 27.9679C47.7152 28.1059 47.1698 27.7843 47.0318 27.2495L46.2433 24.194C45.312 21.6077 43.9542 19.8237 41.6004 18.4658L41.5856 18.4571C39.0544 16.9384 36.1121 16.6196 33.4451 17.2857Z" fill="#1C1B1A"/>
<path d="M52.5002 19.8996C53.6002 18.2996 56.5002 12.0996 58.0002 10.0996C54.2002 10.3996 50.6002 12.4996 48.6002 15.9996C47.1002 18.5996 46.8002 21.0996 47.3002 23.8996" fill="#FEE7E7"/>
<path fill-rule="evenodd" clip-rule="evenodd" d="M58.8763 9.61753C59.0658 9.96185 59.036 10.3852 58.8002 10.6996C58.1099 11.6199 57.0519 13.5833 55.9856 15.6145C55.8453 15.8817 55.7047 16.1504 55.5649 16.4176C54.684 18.1015 53.8372 19.72 53.3242 20.4662C53.0113 20.9213 52.3888 21.0365 51.9336 20.7237C51.4785 20.4108 51.3632 19.7882 51.6761 19.3331C52.1141 18.696 52.8912 17.2119 53.7903 15.4948C53.9291 15.2296 54.0709 14.9588 54.2148 14.6848C54.7857 13.5974 55.3896 12.4588 55.9524 11.4754C53.2901 12.2227 50.9172 13.9605 49.4684 16.4958L49.4664 16.4993L49.4664 16.4993C48.0984 18.8705 47.8207 21.1263 48.2846 23.7238C48.3817 24.2675 48.0196 24.787 47.476 24.884C46.9323 24.9811 46.4128 24.6191 46.3157 24.0754C45.7797 21.0736 46.1018 18.3299 47.733 15.5017C49.9073 11.698 53.813 9.42708 57.9215 9.10272C58.3133 9.07179 58.6868 9.27321 58.8763 9.61753Z" fill="#1C1B1A"/>
<path d="M40.9001 28.0997C37.6001 28.7997 28.4001 30.1997 25.0001 30.8997C26.9001 26.7997 30.7001 23.6997 35.5001 22.8997C39.0001 22.2997 42.4001 22.9997 45.3001 24.7997C46.2001 25.3997 47.3001 26.1997 48.0001 26.9997" fill="#FEE7E7"/>
<path fill-rule="evenodd" clip-rule="evenodd" d="M44.7591 25.6408C42.0678 23.9748 38.9204 23.3279 35.6691 23.8853L35.6645 23.8861L35.6645 23.8861C31.9377 24.5072 28.8609 26.6183 26.9189 29.5196C28.5258 29.2323 30.5232 28.8981 32.5204 28.564C32.6211 28.5471 32.7219 28.5302 32.8226 28.5134C35.9719 27.9864 39.0694 27.4658 40.6926 27.1214C41.2329 27.0068 41.7638 27.3519 41.8784 27.8922C41.993 28.4324 41.6479 28.9633 41.1076 29.0779C39.4309 29.4336 36.2784 29.9629 33.1527 30.486L32.8909 30.5298C29.8316 31.0416 26.832 31.5435 25.2018 31.8791C24.8319 31.9553 24.4507 31.8166 24.2163 31.5206C23.9818 31.2246 23.9341 30.8218 24.0928 30.4792C26.1256 26.0926 30.1952 22.7708 35.3335 21.9137C39.0759 21.2727 42.7224 22.0227 45.8275 23.95C45.8367 23.9558 45.8458 23.9616 45.8548 23.9676C46.7591 24.5704 47.9578 25.4327 48.7527 26.3412C49.1164 26.7568 49.0743 27.3886 48.6586 27.7523C48.243 28.1159 47.6112 28.0738 47.2476 27.6582C46.6455 26.9701 45.6514 26.2364 44.7591 25.6408Z" fill="#1C1B1A"/>
<path d="M48.1001 26.9993C47.0001 26.8993 45.8001 26.8993 44.6001 27.0993C41.3001 27.4993 38.2001 29.2993 35.9001 31.9993C32.8001 35.6993 31.9001 40.4993 33.0001 44.7993C35.3001 41.5993 48.1001 26.9993 48.1001 26.9993Z" fill="#FEE7E7"/>
<path fill-rule="evenodd" clip-rule="evenodd" d="M44.4576 26.1092C45.7541 25.8956 47.0347 25.8983 48.1905 26.0034C48.5651 26.0374 48.889 26.2789 49.0286 26.6282C49.1682 26.9775 49.0999 27.3756 48.8519 27.6585L48.1 26.9993C48.8519 27.6585 48.852 27.6584 48.8519 27.6585L48.2983 28.2911C47.9442 28.6962 47.4356 29.2785 46.818 29.9874C45.5829 31.4052 43.9124 33.3287 42.1702 35.3518C38.6665 39.4207 34.9295 43.8281 33.812 45.3829C33.5853 45.6983 33.1964 45.8539 32.8147 45.782C32.4329 45.71 32.1274 45.4234 32.0312 45.0471C30.8554 40.451 31.8163 35.3162 35.1335 31.3571L35.1387 31.3508C37.5741 28.4919 40.8844 26.5487 44.4576 26.1092ZM45.9361 27.9555C45.5462 27.9785 45.1543 28.0207 44.7644 28.0857C44.7497 28.0881 44.735 28.0902 44.7203 28.092C41.7032 28.4577 38.8232 30.1112 36.6639 32.6446C34.2908 35.4787 33.3037 39.0071 33.6019 42.4003C35.3411 40.2526 38.0911 37.0238 40.6547 34.0468C42.4001 32.0199 44.0733 30.0933 45.31 28.6737C45.5337 28.4169 45.7431 28.1767 45.9361 27.9555Z" fill="#1C1B1A"/>
<path d="M52.5002 24.8999C55.7002 23.8999 66.7002 20.0999 70.0002 19.1999C66.3002 16.5999 61.5002 15.7999 57.0002 17.3999C53.6002 18.5999 51.0002 20.8999 49.4002 23.7999C48.9002 24.7999 48.4002 25.9999 48.1002 26.9999" fill="#FEE7E7"/>
<path fill-rule="evenodd" clip-rule="evenodd" d="M56.6661 16.4574C61.4847 14.7445 66.6218 15.604 70.5749 18.3818C70.892 18.6046 71.0518 18.9906 70.985 19.3723C70.9183 19.754 70.637 20.0628 70.2631 20.1648C68.2043 20.7263 63.1661 22.4123 58.8798 23.8466C56.3189 24.7036 54.0264 25.4707 52.7983 25.8545C52.2711 26.0192 51.7102 25.7254 51.5455 25.1983C51.3808 24.6712 51.6746 24.1103 52.2017 23.9455C53.344 23.5886 55.56 22.8474 58.0721 22.0072C61.2775 20.9351 64.9651 19.7018 67.5196 18.8995C64.4178 17.4047 60.7809 17.117 57.335 18.3422L57.3328 18.343C54.1752 19.4575 51.7699 21.5844 50.2853 24.2655C49.8073 25.224 49.3357 26.3612 49.0578 27.2874C48.8991 27.8164 48.3416 28.1165 47.8126 27.9579C47.2837 27.7992 46.9835 27.2417 47.1422 26.7127C47.4626 25.6447 47.9867 24.3905 48.5056 23.3528C48.5116 23.3407 48.5179 23.3288 48.5244 23.3169C50.2404 20.2067 53.0311 17.7407 56.6661 16.4574Z" fill="#1C1B1A"/>
<path d="M48.1002 26.9992C49.0002 26.2992 50.1002 25.7992 51.2002 25.2992C54.3002 23.9992 57.9002 23.9992 61.2002 25.2992C65.7002 26.9992 68.9002 30.6992 70.0002 35.0992C66.3002 33.3992 48.1002 26.9992 48.1002 26.9992Z" fill="#FEE7E7"/>
<path fill-rule="evenodd" clip-rule="evenodd" d="M51.6003 26.2158C51.1912 26.4018 50.8003 26.5804 50.4305 26.762C50.7093 26.8608 51.0123 26.9683 51.3365 27.0835C53.1017 27.7104 55.4942 28.5642 58.0028 29.4713C61.7302 30.8191 65.756 32.2996 68.3462 33.326C66.9669 30.1455 64.3283 27.5499 60.8468 26.2347L60.8337 26.2297C57.7662 25.0213 54.4427 25.0282 51.6003 26.2158ZM48.1002 26.9992L47.7685 27.9426C47.4234 27.8212 47.1721 27.5211 47.1132 27.16C47.0544 26.7989 47.1975 26.4345 47.4863 26.2099C48.4798 25.4371 49.6706 24.896 50.7343 24.4125C50.7517 24.4046 50.7691 24.3967 50.7864 24.3889C50.7954 24.3848 50.8044 24.3808 50.8135 24.377C54.1661 22.9711 58.0342 22.9791 61.5602 24.3662C66.3644 26.1836 69.7916 30.1416 70.9704 34.8567C71.0637 35.2298 70.9347 35.6233 70.6387 35.8688C70.3428 36.1144 69.9322 36.1685 69.5827 36.0079C67.7809 35.18 62.3568 33.1724 57.3227 31.3521C54.8188 30.4467 52.43 29.5943 50.6671 28.9681C49.7857 28.655 49.0609 28.3986 48.5565 28.2205L47.7685 27.9426C47.7684 27.9425 47.7685 27.9426 48.1002 26.9992Z" fill="#1C1B1A"/>
</svg>
