<svg width="80" height="80" viewBox="0 0 80 80" fill="none" xmlns="http://www.w3.org/2000/svg">
<path d="M63.3699 10H15.9199V15.67H63.3699V10Z" fill="#E7E2F2"/>
<path fill-rule="evenodd" clip-rule="evenodd" d="M15.0801 10.9102C15.0801 9.80559 15.9755 8.91016 17.0801 8.91016H62.3601C63.4646 8.91016 64.3601 9.80559 64.3601 10.9102V23.1208H62.3601V10.9102H17.0801V23.1208H15.0801V10.9102ZM34.7412 41.6202H45.2184V43.6202H34.7412V41.6202Z" fill="#1C1B1A"/>
<path d="M28.1304 26.2797C27.2004 26.2797 26.4204 25.9697 25.8004 25.3397C25.1804 24.7097 24.8704 23.9297 24.8704 22.9797C24.8704 22.0297 25.1804 21.2497 25.8004 20.6197C26.4204 19.9897 27.1904 19.6797 28.1304 19.6797C29.0704 19.6797 29.8404 19.9897 30.4604 20.6197C31.0804 21.2497 31.3904 22.0297 31.3904 22.9797C31.3904 23.9297 31.0804 24.7097 30.4604 25.3397C29.8404 25.9697 29.0704 26.2797 28.1304 26.2797Z" fill="#E7E2F2"/>
<path fill-rule="evenodd" clip-rule="evenodd" d="M28.1304 20.6797C27.4386 20.6797 26.9317 20.8957 26.5131 21.3211C26.0897 21.7513 25.8704 22.2737 25.8704 22.9797C25.8704 23.6857 26.0897 24.208 26.5131 24.6383C26.9306 25.0625 27.447 25.2797 28.1304 25.2797C28.8221 25.2797 29.329 25.0637 29.7476 24.6383C30.171 24.208 30.3904 23.6857 30.3904 22.9797C30.3904 22.2737 30.171 21.7513 29.7476 21.3211C29.329 20.8957 28.8221 20.6797 28.1304 20.6797ZM25.0876 19.9183C25.909 19.0837 26.9421 18.6797 28.1304 18.6797C29.3186 18.6797 30.3517 19.0837 31.1731 19.9183C31.9897 20.748 32.3904 21.7857 32.3904 22.9797C32.3904 24.1737 31.9897 25.2113 31.1731 26.0411C30.3517 26.8757 29.3186 27.2797 28.1304 27.2797C26.9537 27.2797 25.9101 26.8768 25.0876 26.0411C24.271 25.2113 23.8704 24.1737 23.8704 22.9797C23.8704 21.7857 24.271 20.748 25.0876 19.9183Z" fill="#1C1B1A"/>
<path d="M21.2772 36.0191C21.2772 34.7599 20.7895 33.8547 21.4818 32.8624C21.8945 32.2707 22.3971 31.7265 22.9499 31.2297C24.4299 29.8997 25.8999 29.2297 28.1299 29.2297C30.36 29.2297 31.84 29.8997 33.32 31.2297C34.8 32.5597 35.91 34.2297 35.91 36.2397H29.997L27.0358 34.3679L21.2772 36.0191Z" fill="#E7E2F2"/>
<path fill-rule="evenodd" clip-rule="evenodd" d="M28.13 30.2295C26.1688 30.2295 24.932 30.7929 23.6184 31.9733C23.1115 32.4288 22.5173 33.0807 22.1562 33.5984L20.5159 32.4541C20.9802 31.7884 21.6829 31.0237 22.2816 30.4857C23.9281 29.0061 25.6312 28.2295 28.13 28.2295C30.6274 28.2295 32.3408 29.0051 33.9884 30.4857C35.5766 31.9129 36.91 33.8319 36.91 36.2395C36.91 36.7918 36.4623 37.2395 35.91 37.2395H29.9971V35.2395H34.7942C34.5122 34.0329 33.7325 32.9446 32.6516 31.9733C31.3392 30.7939 30.0926 30.2295 28.13 30.2295Z" fill="#1C1B1A"/>
<path fill-rule="evenodd" clip-rule="evenodd" d="M63.3698 15.7002H15.7598V13.7002H63.3698V15.7002Z" fill="#1C1B1A"/>
<path fill-rule="evenodd" clip-rule="evenodd" d="M27.4404 30.72C28.903 30.8965 30.1644 31.5739 31.1323 32.6419L31.1655 32.6786L36.3938 38.9279L43.8081 38.9735L48.9861 32.7862L49.0212 32.7476C50.0053 31.6667 51.2588 30.9798 52.7346 30.8006C53.6469 30.681 54.4658 30.9291 55.0999 31.165C55.7699 31.4141 56.6289 31.8103 57.7291 32.3309L57.7536 32.3425L57.7778 32.3546C57.9517 32.4415 58.1532 32.5343 58.3743 32.6348L56.4785 36.577C56.2666 36.4807 56.0412 36.4237 55.7829 36.2953C54.6572 35.7628 54.1796 35.4019 53.75 35.2422C53.6806 35.2164 53.344 35.1038 53.3008 35.0898C53.1569 35.1299 52.3294 35.3456 52.1681 35.5155L45.1422 43.1004L34.576 43.5199L27.9329 35.5492C27.7967 35.4061 27.3505 35.2394 27.1992 35.1992C27.1559 35.2131 26.7322 34.8634 26.6605 34.8902C26.2339 35.0492 25.4981 35.3428 24.3744 35.8768C24.2422 35.9426 23.6213 36.4001 23.3877 36.5145L23.4985 37.3063L21.3018 32.8147L21.7771 32.5821C22.0337 32.4563 22.3028 32.3241 22.4017 32.2746L22.424 32.2635L22.4465 32.2528C23.5397 31.7332 24.396 31.3356 25.0666 31.0856C25.716 30.8436 26.529 30.6028 27.4404 30.72Z" fill="#1C1B1A" fill-opacity="0.1"/>
<path fill-rule="evenodd" clip-rule="evenodd" d="M64.5292 24.1436C64.324 24.1897 64.12 24.2541 63.9165 24.3368C63.4717 24.5175 63.3311 24.719 63.274 24.9006C63.2673 24.9218 63.2599 24.9428 63.2518 24.9635L57.0918 40.7635C57.0297 40.9228 56.9279 41.0634 56.796 41.1721L51.006 45.9421L49.7343 44.3985L55.3231 39.7942L56.5154 36.7361C56.4473 36.7045 56.3786 36.6724 56.3101 36.6402C56.1172 36.5497 55.9213 36.4566 55.7204 36.3611C55.459 36.2368 55.189 36.1085 54.9063 35.9766C54.4187 35.7493 53.9566 35.5418 53.5863 35.3968C53.4 35.3238 53.2558 35.2742 53.1538 35.2457C53.1401 35.2419 53.1281 35.2388 53.1178 35.2362C52.7853 35.2967 52.5272 35.441 52.3059 35.6854L41.0001 49.1936V64.5803H39.0001V48.8303C39.0001 48.5956 39.0827 48.3684 39.2333 48.1885L50.7833 34.3885C50.7899 34.3805 50.7967 34.3727 50.8036 34.3649C51.3802 33.718 52.1127 33.3486 52.9501 33.2388L52.9661 33.2368C53.2532 33.2039 53.5366 33.2762 53.6906 33.3191C53.8855 33.3735 54.1004 33.4502 54.3155 33.5345C54.748 33.7038 55.2578 33.9338 55.7514 34.164C56.0289 34.2934 56.3229 34.433 56.598 34.5638C56.8001 34.6598 56.992 34.751 57.1598 34.8297C57.1883 34.8431 57.2162 34.8561 57.2434 34.8688L61.3776 24.2648C61.667 23.3865 62.3395 22.8187 63.1637 22.4838C63.9303 22.1724 64.7333 22.0246 65.5642 22.0613C66.0956 22.0847 66.5156 22.52 66.5201 23.0519L66.6701 40.9519C66.671 41.0597 66.6545 41.1669 66.6212 41.2694L66.4912 41.6694C66.4554 41.7795 66.4007 41.8826 66.3297 41.974L53.2801 58.7632V63.4204H51.2801V58.4203C51.2801 58.198 51.3542 57.9821 51.4906 57.8066L64.6432 40.8848L64.6688 40.806L64.5292 24.1436ZM53.0673 35.2252C53.0673 35.2252 53.0681 35.2253 53.0697 35.2256L53.0673 35.2252Z" fill="#1C1B1A"/>
<path fill-rule="evenodd" clip-rule="evenodd" d="M15.471 24.0865L15.3314 40.746L15.357 40.8248L28.5096 57.7467C28.646 57.9222 28.7201 58.1381 28.7201 58.3603V63.4203H26.7201V58.7033L13.6705 41.914C13.5995 41.8226 13.5448 41.7195 13.509 41.6094L13.379 41.2094C13.3457 41.1069 13.3292 40.9997 13.3301 40.892L13.4801 22.992C13.4846 22.4544 13.9133 22.0166 14.4507 22.0008C15.2616 21.9769 16.0606 22.1087 16.8365 22.4239C17.6685 22.7619 18.3339 23.3418 18.6217 24.2025L22.7539 34.8015C22.7837 34.7876 22.8143 34.7733 22.8457 34.7585C23.0162 34.6784 23.2168 34.5829 23.4283 34.4822C23.6997 34.3529 23.9891 34.2152 24.2553 34.0907C24.7488 33.86 25.2585 33.6294 25.6902 33.4603C25.905 33.3762 26.1201 33.2995 26.3154 33.2456C26.4653 33.2043 26.7496 33.1319 27.04 33.1675C27.8978 33.2674 28.6288 33.658 29.1966 34.295C29.2035 34.3027 29.2103 34.3106 29.2169 34.3185L40.7669 48.1185C40.9175 48.2985 41.0001 48.5257 41.0001 48.7603V64.5103H39.0001V49.1236L27.6943 35.6154C27.4636 35.3605 27.2024 35.2165 26.8824 35.1644C26.8724 35.1669 26.8607 35.1699 26.8472 35.1736C26.7475 35.2011 26.605 35.25 26.4196 35.3226C26.0511 35.4669 25.5901 35.6745 25.1023 35.9025C24.8231 36.033 24.5627 36.1571 24.3095 36.2778C24.1023 36.3765 23.9 36.4729 23.6961 36.5687C23.6246 36.6023 23.553 36.6358 23.4819 36.6687L24.6771 39.7343L30.2659 44.3385L28.9942 45.8822L23.2042 41.1122C23.0723 41.0035 22.9705 40.8628 22.9084 40.7036L16.7484 24.9036C16.741 24.8845 16.7341 24.8652 16.7279 24.8458C16.6697 24.6644 16.5213 24.4546 16.0837 24.2768C15.8824 24.195 15.6784 24.1318 15.471 24.0865ZM26.9298 35.1544C26.9297 35.1544 26.928 35.1547 26.9248 35.1551C26.9282 35.1545 26.9298 35.1543 26.9298 35.1544ZM26.8011 35.1532C26.7968 35.1527 26.7924 35.1522 26.7879 35.1516L26.8011 35.1532Z" fill="#1C1B1A"/>
<path d="M54.9 63.3301H41C40.4477 63.3301 40 63.7778 40 64.3301V69.0801C40 69.6324 40.4477 70.0801 41 70.0801H54.9C55.4523 70.0801 55.9 69.6324 55.9 69.0801V64.3301C55.9 63.7778 55.4523 63.3301 54.9 63.3301Z" fill="#FEE7E7"/>
<path fill-rule="evenodd" clip-rule="evenodd" d="M39 64.3301C39 63.2255 39.8954 62.3301 41 62.3301H54.9C56.0046 62.3301 56.9 63.2255 56.9 64.3301V69.0801C56.9 70.1846 56.0046 71.0801 54.9 71.0801H41C39.8954 71.0801 39 70.1846 39 69.0801V64.3301ZM54.9 64.3301H41V69.0801H54.9V64.3301Z" fill="#1C1B1A"/>
<path d="M38.9997 63.25H25.1797C24.6274 63.25 24.1797 63.6977 24.1797 64.25V69C24.1797 69.5523 24.6274 70 25.1797 70H38.9997C39.552 70 39.9997 69.5523 39.9997 69V64.25C39.9997 63.6977 39.552 63.25 38.9997 63.25Z" fill="#FEE7E7"/>
<path fill-rule="evenodd" clip-rule="evenodd" d="M23.1797 64.25C23.1797 63.1454 24.0751 62.25 25.1797 62.25H38.9997C40.1043 62.25 40.9997 63.1454 40.9997 64.25V69C40.9997 70.1046 40.1043 71 38.9997 71H25.1797C24.0751 71 23.1797 70.1046 23.1797 69V64.25ZM38.9997 64.25H25.1797V69H38.9997V64.25Z" fill="#1C1B1A"/>
<path fill-rule="evenodd" clip-rule="evenodd" d="M37.7402 23.5303H63.0102V25.5303H37.7402V23.5303Z" fill="#1C1B1A"/>
<path fill-rule="evenodd" clip-rule="evenodd" d="M37.7402 28.8604H60.0002V30.8604H37.7402V28.8604Z" fill="#1C1B1A"/>
</svg>
