<svg width="80" height="80" viewBox="0 0 80 80" fill="none" xmlns="http://www.w3.org/2000/svg">
<path d="M9.39765 20.2344C9.28186 19.6897 9.62592 19.155 10.1661 19.0401L34.2147 13.9285C34.4741 13.8733 34.745 13.9244 34.9677 14.0703L53.2768 26.0696C53.4996 26.2156 53.656 26.4446 53.7116 26.7062L61.1724 61.8069C61.2882 62.3516 60.9442 62.8863 60.404 63.0011L21.2781 71.3176C20.7378 71.4324 20.206 71.0839 20.0902 70.5392L9.39765 20.2344Z" fill="white"/>
<path fill-rule="evenodd" clip-rule="evenodd" d="M27.6642 54.2059C29.1025 54.1861 30.1968 55.4611 30.0608 57.0537C29.9958 57.814 29.6596 58.5913 29.2356 59.3064C28.8026 60.0367 28.2296 60.7823 27.5983 61.494C27.5577 61.5397 27.5169 61.5853 27.4758 61.6308C27.616 61.8742 27.7594 62.0118 27.8829 62.0855C28.0197 62.1671 28.2169 62.2228 28.5476 62.1525C28.7592 62.1076 29.0612 61.957 29.4413 61.6442C29.8112 61.3399 30.1953 60.9319 30.5707 60.4659C31.3223 59.5331 31.9683 58.4574 32.3263 57.7622C32.5395 57.3482 33.0103 57.1362 33.4617 57.2509C33.913 57.3657 34.2254 57.7768 34.215 58.2424C34.205 58.6917 34.2092 59.582 34.3635 60.2971C34.4184 60.5514 34.4808 60.7262 34.5342 60.8359C34.595 60.7859 34.6827 60.6992 34.7954 60.5502C35.0193 60.2542 35.2383 59.8533 35.4767 59.3835C35.5209 59.2964 35.5665 59.2054 35.6131 59.1123C35.798 58.7429 35.9994 58.3407 36.1984 58.016C36.3258 57.8078 36.4803 57.5834 36.6651 57.3924C36.8425 57.209 37.1242 56.9765 37.5167 56.8931C37.8824 56.8154 38.2609 56.9481 38.4979 57.2372C38.735 57.5263 38.7909 57.9234 38.6431 58.2668C38.4497 58.7157 38.3647 59.0859 38.3924 59.3646C38.4121 59.5621 38.4894 59.7807 38.8389 60.0069C38.8701 60.0075 38.9937 60.0106 39.2539 59.9238C39.6187 59.8021 40.0713 59.5584 40.5144 59.2192C40.9557 58.8812 41.3435 58.4822 41.6062 58.0825C41.8745 57.6744 41.9642 57.3418 41.9503 57.1057C41.9178 56.5543 42.3384 56.0811 42.8898 56.0486C43.4411 56.0161 43.9144 56.4367 43.9468 56.988C43.995 57.8056 43.6825 58.565 43.2775 59.1811C42.867 59.8055 42.3105 60.3628 41.7302 60.8071C41.1517 61.2501 40.5051 61.6147 39.8868 61.821C39.3365 62.0046 38.5242 62.1567 37.8473 61.7456C37.4587 61.5095 37.1532 61.2316 36.9243 60.9236C36.7634 61.2105 36.5857 61.4986 36.3905 61.7567C36.0633 62.1892 35.564 62.7058 34.8486 62.8579C34.4946 62.9332 34.1319 62.9123 33.7907 62.7726C33.4577 62.6363 33.2088 62.4132 33.0277 62.1827C32.7956 61.8874 32.6405 61.5361 32.5331 61.1952C32.4023 61.3724 32.267 61.5484 32.1281 61.7208C31.7009 62.251 31.2216 62.7694 30.712 63.1887C30.2127 63.5995 29.619 63.9695 28.9634 64.1088C28.2099 64.269 27.4856 64.1776 26.8576 63.8027C26.5378 63.6118 26.2701 63.3635 26.0468 63.0801C25.1741 63.8953 24.2638 64.6329 23.4397 65.2037C22.9857 65.5182 22.3627 65.405 22.0482 64.951C21.7337 64.497 21.8469 63.874 22.3009 63.5596C23.2 62.9368 24.2317 62.0784 25.1775 61.1416C24.9277 60.0859 24.876 58.8424 24.9695 57.5546C25.1119 55.594 26.154 54.2267 27.6642 54.2059ZM26.9339 59.1503C27.1551 58.8536 27.3506 58.564 27.5153 58.2863C27.8732 57.6826 28.0402 57.2098 28.068 56.8836C28.1176 56.303 27.7868 56.2044 27.6917 56.2057C27.6289 56.2066 27.5037 56.2317 27.3587 56.4108C27.2051 56.6007 27.0159 56.9893 26.9643 57.6995C26.9265 58.2192 26.9174 58.7047 26.9339 59.1503ZM38.118 58.7684C38.118 58.7686 38.1161 58.7703 38.1124 58.7732C38.1161 58.7698 38.118 58.7683 38.118 58.7684Z" fill="#1C1B1A"/>
<path fill-rule="evenodd" clip-rule="evenodd" d="M8.41932 20.4434C8.18774 19.3539 8.87586 18.2845 9.9563 18.0549L34.0048 12.9432C34.5237 12.8329 35.0654 12.935 35.5109 13.227L53.8201 25.2263C54.2656 25.5182 54.5783 25.9762 54.6895 26.4994L62.1504 61.6001C62.382 62.6896 61.6939 63.759 60.6134 63.9886L21.4875 72.3051C20.4071 72.5347 19.3435 71.8377 19.1119 70.7482L8.41932 20.4434ZM34.4241 14.9159L10.3756 20.0276L21.0682 70.3323L60.1941 62.0159L52.7332 26.9152L34.4241 14.9159Z" fill="#1C1B1A"/>
<path d="M34.8722 15.0311C34.7794 14.5944 35.262 14.2642 35.6354 14.5089L52.621 25.6408C52.9927 25.8845 52.8856 26.4557 52.4509 26.5481L38.9525 29.4173C38.4122 29.5321 37.8812 29.1873 37.7664 28.6471L34.8722 15.0311Z" fill="#E7E2F2"/>
<path fill-rule="evenodd" clip-rule="evenodd" d="M33.894 15.2377C33.6156 13.9276 35.0632 12.9371 36.1835 13.6713L53.1691 24.8032C54.2843 25.5341 53.963 27.2478 52.6588 27.525L39.1603 30.3942C38.0799 30.6238 37.0179 29.9342 36.7882 28.8537L33.894 15.2377ZM36.1028 16.0097L38.7445 28.4379L51.0692 25.8182L36.1028 16.0097Z" fill="#1C1B1A"/>
<path fill-rule="evenodd" clip-rule="evenodd" d="M18.7124 44.8184L42.1879 39.8285L42.6038 41.7848L19.1282 46.7747L18.7124 44.8184Z" fill="#1C1B1A"/>
<path fill-rule="evenodd" clip-rule="evenodd" d="M17.4648 38.9492L44.853 33.1277L45.2688 35.084L17.8807 40.9055L17.4648 38.9492Z" fill="#1C1B1A"/>
<path fill-rule="evenodd" clip-rule="evenodd" d="M19.96 50.6875L47.3481 44.866L47.7639 46.8223L20.3758 52.6438L19.96 50.6875Z" fill="#1C1B1A"/>
<path d="M48.6295 56.6035L47.5925 56.1418L47.7702 48.7651L53.9925 51.5355L48.6295 56.6035Z" fill="white"/>
<path fill-rule="evenodd" clip-rule="evenodd" d="M49.3164 57.3303C49.023 57.6076 48.5916 57.6813 48.2228 57.5171L47.1858 57.0553C46.817 56.8911 46.5831 56.5213 46.5928 56.1177L46.7705 48.7411C46.7786 48.4068 46.9531 48.0987 47.2357 47.92C47.5183 47.7413 47.8715 47.7156 48.177 47.8516L54.3993 50.622C54.7047 50.758 54.922 51.0376 54.9783 51.3672C55.0346 51.6968 54.9224 52.0327 54.6794 52.2623L49.3164 57.3303ZM48.6145 55.2419L52.2155 51.839L48.7338 50.2888L48.6145 55.2419Z" fill="#1C1B1A"/>
<path d="M53.9927 51.5352L47.7703 48.7648L63.48 13.4802L69.7024 16.2506L53.9927 51.5352Z" fill="#FEE7E7"/>
<path fill-rule="evenodd" clip-rule="evenodd" d="M54.9062 51.9419C54.6816 52.4465 54.0905 52.6734 53.586 52.4487L47.3636 49.6784C46.8591 49.4537 46.6322 48.8626 46.8568 48.3581L62.5665 13.0735C62.7912 12.569 63.3823 12.3421 63.8868 12.5667L70.1091 15.3371C70.6137 15.5617 70.8406 16.1528 70.6159 16.6574L54.9062 51.9419ZM53.4859 50.2149L68.3821 16.7574L63.9869 14.8006L49.0907 48.258L53.4859 50.2149Z" fill="#1C1B1A"/>
<path d="M71.1865 12.9169C71.6358 11.9079 71.182 10.7256 70.1729 10.2764L67.6048 9.13296C66.5957 8.68369 65.4135 9.1375 64.9642 10.1466L63.469 13.5048L69.6914 16.2751L71.1865 12.9169Z" fill="white"/>
<path fill-rule="evenodd" clip-rule="evenodd" d="M72.1001 13.3246C72.774 11.811 72.0933 10.0377 70.5797 9.36377L68.0115 8.22036C66.4979 7.54646 64.7246 8.22718 64.0507 9.74079L62.1488 14.0125L70.1982 17.5963L72.1001 13.3246ZM69.7662 11.1909C70.2707 11.4155 70.4976 12.0066 70.273 12.5111L69.1846 14.9558L64.7894 12.9989L65.8778 10.5543C66.1024 10.0497 66.6935 9.82282 67.1981 10.0475L69.7662 11.1909Z" fill="#1C1B1A"/>
<path fill-rule="evenodd" clip-rule="evenodd" d="M46.274 58.04L47.1974 55.9659L49.0245 56.7794L48.1011 58.8535L46.274 58.04Z" fill="#1C1B1A"/>
<path fill-rule="evenodd" clip-rule="evenodd" d="M68.9252 12.1071L59.1635 34.0322L57.3364 33.2188L67.0981 11.2937L68.9252 12.1071Z" fill="#1C1B1A"/>
<path d="M54 51.291L48 56.791H53.6528C54.5097 56.791 55.3257 56.4246 55.895 55.7841L59 52.291L57.5 44.791L54 51.291Z" fill="#1C1B1A" fill-opacity="0.1"/>
<path d="M38 29.791L34.5 14.291L30.5 15.291L34.1006 30.8935C34.5973 33.046 36.745 34.3883 38.8976 33.8916L54.5 30.291L53.5 26.291L38 29.791Z" fill="#1C1B1A" fill-opacity="0.1"/>
</svg>
