<svg width="80" height="80" viewBox="0 0 80 80" fill="none" xmlns="http://www.w3.org/2000/svg">
<path d="M47.8002 41.7004H45.3002V68.1004H47.8002V41.7004Z" fill="#1C1B1A" fill-opacity="0.1"/>
<path fill-rule="evenodd" clip-rule="evenodd" d="M57.2997 44.7801L44.5997 42.1801L45.0008 40.2207L57.6963 42.8198C57.6971 42.82 57.6979 42.8201 57.6987 42.8203C57.8685 42.8542 58.0685 42.8962 58.281 42.9408C58.7445 43.0381 59.2671 43.1477 59.6646 43.214L59.6823 43.2169L70.4963 45.4198C70.497 45.4199 70.4976 45.4201 70.4982 45.4202C71.0372 45.5286 71.4723 45.8698 71.7559 46.2102C72.0384 46.5492 72.3002 47.0432 72.3002 47.6004V68.1004C72.3002 68.6276 72.1201 69.1447 71.7323 69.5325C71.3446 69.9203 70.8275 70.1004 70.3002 70.1004H34.6002V68.1004H70.3002V47.6231C70.299 47.6195 70.2971 47.6146 70.2946 47.6086C70.2815 47.578 70.2568 47.5354 70.2195 47.4906C70.1822 47.4459 70.1435 47.4123 70.1127 47.3918C70.1017 47.3845 70.0939 47.3802 70.0895 47.378L59.3178 45.1838C58.8796 45.11 58.2821 44.9847 57.8087 44.8855C57.6124 44.8443 57.4375 44.8076 57.3041 44.781L57.2997 44.7801Z" fill="#1C1B1A"/>
<path fill-rule="evenodd" clip-rule="evenodd" d="M49.1387 15.0502C50.9928 13.4141 53.1211 12.5 55.5003 12.5C57.876 12.5 60.0153 13.4121 61.7842 15.0705C63.4486 16.6309 64.4211 18.6606 64.7325 21.0182C66.33 21.7699 67.6084 22.8109 68.614 24.2188C69.7255 25.7749 70.3003 27.4756 70.3003 29.3C70.3003 31.6991 69.3695 33.645 67.7074 35.3071L67.696 35.3185L67.6842 35.3295C65.8957 37.0063 63.8499 37.8 61.4003 37.8H49.2003C47.0765 37.8 45.1417 37.124 43.5495 35.7593L44.8511 34.2407C46.0588 35.276 47.5241 35.8 49.2003 35.8H61.4003C63.3452 35.8 64.8963 35.1971 66.3046 33.8815C67.6349 32.5467 68.3003 31.0958 68.3003 29.3C68.3003 27.9244 67.875 26.6251 66.9866 25.3812C66.1053 24.1475 64.9617 23.2597 63.4195 22.6247L62.8545 22.392L62.8037 21.783C62.6215 19.5964 61.8126 17.8386 60.4163 16.5295C58.9853 15.1879 57.3246 14.5 55.5003 14.5C53.6839 14.5 52.0159 15.1825 50.4733 16.5398C49.0619 17.8677 48.1878 19.6208 48.0994 21.7416L48.0728 22.381L47.481 22.6247C45.944 23.2576 44.8029 24.1416 43.9229 25.3688C43.8591 25.4642 43.7965 25.5549 43.736 25.6426C43.5665 25.8881 43.4132 26.1102 43.2947 26.3472L41.5059 25.4528C41.6946 25.0752 41.9685 24.6799 42.1499 24.4179C42.1964 24.3507 42.2368 24.2924 42.2682 24.2453L42.2772 24.2319L42.2866 24.2188C43.2877 22.8171 44.5592 21.7792 46.1468 21.0283C46.3953 18.6313 47.476 16.6083 49.1163 15.0705L49.1273 15.0601L49.1387 15.0502Z" fill="#1C1B1A"/>
<path fill-rule="evenodd" clip-rule="evenodd" d="M54.4004 43.5V29.5H56.4004V43.5H54.4004Z" fill="#1C1B1A"/>
<path d="M17.9001 19.0004V12.7004H12.9001V24.1004" fill="#FEE7E7"/>
<path fill-rule="evenodd" clip-rule="evenodd" d="M11.9001 12.7004C11.9001 12.1482 12.3479 11.7004 12.9001 11.7004H17.9001C18.4524 11.7004 18.9001 12.1482 18.9001 12.7004V19.0004H16.9001V13.7004H13.9001V24.1004H11.9001V12.7004Z" fill="#1C1B1A"/>
<path fill-rule="evenodd" clip-rule="evenodd" d="M26.5002 11.915L10.1126 28.8022L10.1073 28.8075C10.0359 28.8789 9.92411 29.0457 9.82867 29.2843C9.73299 29.5235 9.7002 29.7183 9.7002 29.8004V68.2004H43.4002V29.8004C43.4002 29.7183 43.3674 29.5235 43.2717 29.2843C43.1763 29.0457 43.0645 28.8789 42.9931 28.8075L39.8879 25.7023L26.5002 11.915ZM25.0931 10.4933C25.8836 9.70276 27.1168 9.70276 27.9073 10.4933L27.9125 10.4985L41.3124 24.2984L44.4073 27.3933C44.7359 27.7219 44.9741 28.1551 45.1287 28.5415C45.283 28.9273 45.4002 29.3825 45.4002 29.8004V68.2004C45.4002 69.4165 44.3864 70.2004 43.4002 70.2004H9.7002C9.17295 70.2004 8.65587 70.0203 8.26809 69.6325C7.88031 69.2447 7.7002 68.7276 7.7002 68.2004V29.8004C7.7002 29.3825 7.8174 28.9273 7.97172 28.5415C8.12533 28.1575 8.36157 27.7272 8.68709 27.3993L25.0878 10.4986L25.0931 10.4933Z" fill="#1C1B1A"/>
<path d="M49.9001 68.5003V51.6003H66.1001V68.5003" fill="#FEE7E7"/>
<path fill-rule="evenodd" clip-rule="evenodd" d="M48.9001 50.6003H67.1001V68.5003H65.1001V52.6003H50.9001V68.5003H48.9001V50.6003Z" fill="#1C1B1A"/>
<path fill-rule="evenodd" clip-rule="evenodd" d="M63.7004 57.3008H52.4004V55.3008H63.7004V57.3008Z" fill="#1C1B1A"/>
<path fill-rule="evenodd" clip-rule="evenodd" d="M63.7004 61.5H52.4004V59.5H63.7004V61.5Z" fill="#1C1B1A"/>
<path fill-rule="evenodd" clip-rule="evenodd" d="M63.7001 65.7004H52.4001V63.7004H63.7001V65.7004Z" fill="#1C1B1A"/>
<path d="M20.5002 68.2004V48.9004H32.7002V68.2004" fill="#FEE7E7"/>
<path fill-rule="evenodd" clip-rule="evenodd" d="M19.5002 47.9004H33.7002V68.2004H31.7002V49.9004H21.5002V68.2004H19.5002V47.9004Z" fill="#1C1B1A"/>
<path d="M23.5001 60.1008C23.9972 60.1008 24.4001 59.6978 24.4001 59.2008C24.4001 58.7037 23.9972 58.3008 23.5001 58.3008C23.003 58.3008 22.6001 58.7037 22.6001 59.2008C22.6001 59.6978 23.003 60.1008 23.5001 60.1008Z" fill="#1C1B1A"/>
<path d="M19.3001 31.8008H13.6001V41.7008H19.3001V31.8008Z" fill="#E7E2F2"/>
<path fill-rule="evenodd" clip-rule="evenodd" d="M12.6001 30.8008H20.3001V42.7008H12.6001V30.8008ZM14.6001 32.8008V40.7008H18.3001V32.8008H14.6001Z" fill="#1C1B1A"/>
<path d="M29.4002 31.8008H23.7002V41.7008H29.4002V31.8008Z" fill="#E7E2F2"/>
<path fill-rule="evenodd" clip-rule="evenodd" d="M22.7002 30.8008H30.4002V42.7008H22.7002V30.8008ZM24.7002 32.8008V40.7008H28.4002V32.8008H24.7002Z" fill="#1C1B1A"/>
<path d="M39.6004 31.8008H33.9004V41.7008H39.6004V31.8008Z" fill="#E7E2F2"/>
<path fill-rule="evenodd" clip-rule="evenodd" d="M32.9004 30.8008H40.6004V42.7008H32.9004V30.8008ZM34.9004 32.8008V40.7008H38.6004V32.8008H34.9004Z" fill="#1C1B1A"/>
<path d="M48.0003 35.1002C48.0003 35.6002 47.5003 36.1002 47.0003 36.1002H45.0003C44.5003 36.1002 44.0003 35.6002 44.0003 35.1002V30.2002C44.0003 29.7002 43.7003 28.9002 43.3003 28.5002L42.1003 27.3002C41.7003 26.9002 41.7003 26.3002 42.1003 25.9002L43.5003 24.5002C43.9003 24.1002 44.5003 24.1002 44.9003 24.5002L47.2003 26.8002C47.6003 27.2002 47.9003 28.0002 47.9003 28.5002V35.1002H48.0003Z" fill="#1C1B1A" fill-opacity="0.1"/>
</svg>
