<svg width="80" height="80" viewBox="0 0 80 80" fill="none" xmlns="http://www.w3.org/2000/svg">
<path fill-rule="evenodd" clip-rule="evenodd" d="M12 17C12 15.8954 12.8954 15 14 15H54C55.1046 15 56 15.8954 56 17V36H54V17L14 17V69H54V57H56V69C56 70.1046 55.1046 71 54 71H14C12.8954 71 12 70.1046 12 69V17Z" fill="#1C1B1A"/>
<path fill-rule="evenodd" clip-rule="evenodd" d="M17.6001 25.5H50.6001V33.5H17.6001V25.5ZM19.6001 27.5V31.5H48.6001V27.5H19.6001Z" fill="#1C1B1A"/>
<path d="M37.4001 11.6C38.3001 12.3 38.9001 13.3 39.1001 14.5H46.9001V20C46.9001 20.6 46.5001 21 45.9001 21H22.6001C22.0001 21 21.6001 20.6 21.6001 20V14.5H29.4001C29.6001 13.4 30.2001 12.4 31.1001 11.6C32.0001 10.9 33.1001 10.5 34.2001 10.5C35.4001 10.5 36.5001 10.9 37.4001 11.6Z" fill="#E7E2F2"/>
<path fill-rule="evenodd" clip-rule="evenodd" d="M31.7398 12.3694C30.9987 13.0367 30.5372 13.8361 30.384 14.6789L30.2347 15.5H22.6001V20H45.9001V15.5H38.253L38.1137 14.6644C37.9539 13.7055 37.4828 12.9312 36.7862 12.3894C36.056 11.8214 35.1706 11.5 34.2001 11.5C33.3498 11.5 32.4733 11.8076 31.7398 12.3694ZM30.4862 10.8106C31.5475 9.98514 32.8604 9.5 34.2001 9.5C35.6296 9.5 36.9442 9.97858 38.014 10.8106C38.8973 11.4976 39.5406 12.42 39.8853 13.5H47.9001V20C47.9001 20.5272 47.72 21.0443 47.3322 21.4321C46.9444 21.8199 46.4273 22 45.9001 22H22.6001C22.0728 22 21.5558 21.8199 21.168 21.4321C20.7802 21.0443 20.6001 20.5272 20.6001 20V13.5H28.631C28.9791 12.4879 29.6089 11.5876 30.4357 10.8526L30.4603 10.8308L30.4862 10.8106Z" fill="#1C1B1A"/>
<path fill-rule="evenodd" clip-rule="evenodd" d="M35 38.5H17.6001V36.5H35V38.5Z" fill="#1C1B1A"/>
<path fill-rule="evenodd" clip-rule="evenodd" d="M28.6001 44.5H17.6001V42.5H28.6001V44.5Z" fill="#1C1B1A"/>
<path fill-rule="evenodd" clip-rule="evenodd" d="M32 50.5H17.6001V48.5H32V50.5Z" fill="#1C1B1A"/>
<path fill-rule="evenodd" clip-rule="evenodd" d="M28.6001 56.5H17.6001V54.5H28.6001V56.5Z" fill="#1C1B1A"/>
<path fill-rule="evenodd" clip-rule="evenodd" d="M37.6001 62.5H17.6001V60.5H37.6001V62.5Z" fill="#1C1B1A"/>
<path d="M54.1468 35.3898C53.2134 34.6659 52.1895 34.0621 51.1002 33.6C49.4002 32.9 47.6002 32.5 45.7002 32.5C43.9002 32.5 42.0002 32.9 40.3002 33.6C38.7002 34.3 37.2002 35.3 35.9002 36.6C34.6002 37.8 33.5002 39.3 32.8002 40.9C32.1002 42.7 31.7002 44.5 31.7002 46.4C31.7002 48.3 32.1002 50.2 32.8002 51.9C34.2002 55.3 36.9002 58 40.3002 59.4C42.0002 60.1 43.8002 60.5 45.7002 60.5C47.5002 60.5 49.4002 60.2 51.1002 59.5C52.2682 58.989 53.3829 58.3181 54.4054 57.4874L55.6528 59.0439L54.8287 62C52.6241 63.2841 50.1906 64.0985 47.7002 64.4004C44.3002 64.7004 40.9002 64.2004 37.9002 62.7004C34.9002 61.2004 32.3002 58.9004 30.5002 56.1004C28.7002 53.3004 27.7002 50.0004 27.7002 46.6004C27.7002 43.3004 28.6002 40.0004 30.4002 37.1004C32.2002 34.2004 34.7002 31.9004 37.7002 30.4004C40.7002 28.9004 44.0002 28.3004 47.4002 28.6004C50.108 28.8466 52.7485 29.766 55.1006 31.193C55.615 31.5051 54.1468 35.3898 54.1468 35.3898Z" fill="#1C1B1A" fill-opacity="0.1"/>
<path fill-rule="evenodd" clip-rule="evenodd" d="M40.691 34.5205C39.2051 35.172 37.8135 36.1009 36.6073 37.3071L36.5932 37.3212L36.5785 37.3348C35.3772 38.4437 34.3655 39.8251 33.7246 41.282C33.0655 42.9825 32.7002 44.653 32.7002 46.4C32.7002 48.1631 33.0721 49.9341 33.7249 51.5193C35.0233 54.6727 37.5275 57.1769 40.6809 58.4753C42.2732 59.1309 43.9442 59.5 45.7002 59.5C47.3931 59.5 49.1555 59.2174 50.7095 58.5794C52.1954 57.9279 53.587 56.999 54.7931 55.7929L54.8072 55.7788L54.8219 55.7652C56.0008 54.677 56.9209 53.3058 57.5718 51.7283C58.2334 50.0243 58.6002 48.3506 58.6002 46.6C58.6002 44.8369 58.2282 43.0659 57.5755 41.4807C56.2766 38.3261 53.7707 35.8207 50.7145 34.5226C49.1238 33.8683 47.4544 33.5 45.7002 33.5C44.0441 33.5 42.2771 33.869 40.691 34.5205ZM39.9194 32.6753C41.7308 31.9295 43.7598 31.5 45.7002 31.5C47.7442 31.5 49.6732 31.9309 51.4809 32.6753L51.4908 32.6794L51.4907 32.6794C55.0323 34.1819 57.9245 37.0756 59.4249 40.7192C60.1721 42.5341 60.6002 44.5631 60.6002 46.6C60.6002 48.6463 60.1683 50.5696 59.4322 52.4624L59.4286 52.4716L59.4249 52.4807C58.6786 54.2931 57.6048 55.9138 56.1932 57.2212C54.8053 58.6054 53.2056 59.6704 51.501 60.4162L51.491 60.4205L51.4809 60.4247C49.6374 61.1838 47.6036 61.5 45.7002 61.5C43.6562 61.5 41.7272 61.0691 39.9194 60.3247C36.2729 58.8231 33.377 55.9273 31.8755 52.2808C31.1282 50.4659 30.7002 48.4369 30.7002 46.4C30.7002 44.3537 31.1321 42.4304 31.8682 40.5376L31.8757 40.5182L31.884 40.4992C32.6409 38.7691 33.8201 37.1629 35.2072 35.8788C36.5951 34.4945 38.1948 33.4296 39.8994 32.6838L39.9094 32.6795L39.9194 32.6753Z" fill="#1C1B1A"/>
<path fill-rule="evenodd" clip-rule="evenodd" d="M36.0627 55.8626C36.6769 54.926 37.4473 54.072 38.3001 53.3004C39.3001 52.3004 40.4001 51.6004 41.7001 51.1004C43.0001 50.6004 44.3001 50.4004 45.7001 50.4004C47.1001 50.4004 48.4001 50.6004 49.7001 51.1004C51.0001 51.6004 52.1001 52.3004 53.1001 53.3004C54.0626 54.1712 54.9201 55.1472 55.5666 56.2281C55.6451 56.1531 55.7229 56.0771 55.8 56C57.1 54.8 58.1 53.3 58.8 51.6C59.5 49.8 59.9 48 59.9 46.1C59.9 44.2 59.5 42.3 58.8 40.6C57.4 37.2 54.7 34.5 51.4 33.1C49.7 32.4 47.9 32 46 32C44.2 32 42.3 32.4 40.6 33.1C39 33.8 37.5 34.8 36.2 36.1C34.9 37.3 33.8 38.8 33.1 40.4C32.4 42.2 32 44 32 45.9C32 47.8 32.4 49.7 33.1 51.4C33.7932 53.0834 34.805 54.5952 36.0627 55.8626ZM45.8002 46.8996C45.2002 46.8996 44.6002 46.7996 44.0002 46.5996C43.4002 46.3996 42.9002 45.9996 42.5002 45.5996C42.1002 45.1996 41.7002 44.5996 41.5002 44.0996C41.3002 43.4996 41.2002 42.8996 41.2002 42.2996C41.2002 41.6996 41.3002 41.0996 41.5002 40.4996C41.7002 39.8996 42.1002 39.3996 42.5002 38.8996C43.4002 37.9996 44.6002 37.5996 45.8002 37.5996C47.0002 37.5996 48.2002 38.0996 49.1002 38.8996C49.5002 39.2996 49.9002 39.8996 50.1002 40.4996C50.3002 41.0996 50.4002 41.6996 50.4002 42.2996C50.4002 42.8996 50.3002 43.4996 50.1002 44.0996C49.9002 44.6996 49.5002 45.1996 49.1002 45.6996C48.7002 46.0996 48.1001 46.4996 47.6001 46.6996C47.0002 46.7996 46.4002 46.8996 45.8002 46.8996Z" fill="#FEE7E7"/>
<path fill-rule="evenodd" clip-rule="evenodd" d="M43.2443 39.5703C42.8437 40.0722 42.5789 40.4257 42.4489 40.8158C42.281 41.3194 42.2002 41.8128 42.2002 42.2996C42.2002 42.7769 42.2779 43.2605 42.4391 43.7539C42.5907 44.1186 42.9053 44.5905 43.2073 44.8925C43.5596 45.2448 43.929 45.5218 44.3164 45.6509C44.82 45.8188 45.3134 45.8996 45.8002 45.8996C46.2712 45.8996 46.755 45.8261 47.3191 45.7326C47.6586 45.5793 48.0724 45.3015 48.3566 45.0282C48.757 44.5267 49.0215 44.1733 49.1515 43.7834C49.3194 43.2798 49.4002 42.7864 49.4002 42.2996C49.4002 41.8128 49.3194 41.3194 49.1515 40.8158C49.0093 40.3893 48.71 39.9307 48.4131 39.627C47.6803 38.985 46.7218 38.5996 45.8002 38.5996C44.8359 38.5996 43.9223 38.9136 43.2443 39.5703ZM41.7931 38.1925C42.9115 37.0741 44.3821 36.5996 45.8002 36.5996C47.2691 36.5996 48.7002 37.2061 49.7646 38.1522L49.7865 38.1717L49.8073 38.1925C50.304 38.6892 50.7942 39.4195 51.0489 40.1834C51.281 40.8798 51.4002 41.5864 51.4002 42.2996C51.4002 43.0128 51.281 43.7194 51.0489 44.4158C50.7917 45.1873 50.2944 45.8082 49.9194 46.2764C49.9065 46.2925 49.8937 46.3085 49.8811 46.3243L49.8465 46.3676L49.8073 46.4067C49.3165 46.8976 48.6036 47.3753 47.9716 47.6281L47.8712 47.6682L47.7304 47.6917C47.1528 47.788 46.4835 47.8996 45.8002 47.8996C45.087 47.8996 44.3804 47.7804 43.684 47.5483C42.8714 47.2774 42.2408 46.7545 41.7931 46.3067C41.3022 45.8159 40.8245 45.103 40.5717 44.471L40.5608 44.4437L40.5515 44.4158C40.3194 43.7194 40.2002 43.0128 40.2002 42.2996C40.2002 41.5864 40.3194 40.8798 40.5515 40.1834C40.8087 39.4119 41.3059 38.7911 41.6809 38.3229C41.6939 38.3067 41.7067 38.2907 41.7193 38.2749L41.7539 38.2317L41.7931 38.1925Z" fill="#1C1B1A"/>
<path fill-rule="evenodd" clip-rule="evenodd" d="M45.7001 51.4004C44.4011 51.4004 43.2258 51.585 42.059 52.0337C40.8847 52.4854 39.9046 53.1101 39.0072 54.0075C38.9954 54.0193 38.9833 54.0308 38.971 54.0419C37.9865 54.9326 37.1456 55.9158 36.5506 56.9859L34.8026 56.0141C35.5266 54.7119 36.5173 53.5675 37.6108 52.5755C38.7087 51.4823 39.9231 50.7124 41.3411 50.167C42.7743 49.6158 44.199 49.4004 45.7001 49.4004C47.2011 49.4004 48.6258 49.6158 50.059 50.167C51.477 50.7124 52.6914 51.4823 53.7893 52.5755C54.8828 53.5676 55.8735 54.7119 56.5975 56.0141L54.8495 56.9859C54.2545 55.9158 53.4136 54.9326 52.4291 54.0419C52.4168 54.0308 52.4047 54.0193 52.3929 54.0075C51.4955 53.1101 50.5154 52.4854 49.3411 52.0337C48.1743 51.585 46.999 51.4004 45.7001 51.4004Z" fill="#1C1B1A"/>
<path fill-rule="evenodd" clip-rule="evenodd" d="M40.691 34.5205C39.2051 35.172 37.8135 36.1009 36.6073 37.3071L36.5932 37.3212L36.5785 37.3348C35.3772 38.4437 34.3655 39.8251 33.7246 41.282C33.0655 42.9825 32.7002 44.653 32.7002 46.4C32.7002 48.1631 33.0721 49.9341 33.7249 51.5193C35.0233 54.6727 37.5275 57.1769 40.6809 58.4753C42.2732 59.1309 43.9442 59.5 45.7002 59.5C47.3931 59.5 49.1555 59.2174 50.7095 58.5794C52.1954 57.9279 53.587 56.999 54.7931 55.7929L54.8072 55.7788L54.8219 55.7652C56.0008 54.677 56.9209 53.3058 57.5718 51.7283C58.2334 50.0243 58.6002 48.3506 58.6002 46.6C58.6002 44.8369 58.2282 43.0659 57.5755 41.4807C56.2766 38.3261 53.7707 35.8207 50.7145 34.5226C49.1238 33.8683 47.4544 33.5 45.7002 33.5C44.0441 33.5 42.2771 33.869 40.691 34.5205ZM39.9194 32.6753C41.7308 31.9295 43.7598 31.5 45.7002 31.5C47.7442 31.5 49.6732 31.9309 51.4809 32.6753L51.4908 32.6794L51.4907 32.6794C55.0323 34.1819 57.9245 37.0756 59.4249 40.7192C60.1721 42.5341 60.6002 44.5631 60.6002 46.6C60.6002 48.6463 60.1683 50.5696 59.4322 52.4624L59.4286 52.4716L59.4249 52.4807C58.6786 54.2931 57.6048 55.9138 56.1932 57.2212C54.8053 58.6054 53.2056 59.6704 51.501 60.4162L51.491 60.4205L51.4809 60.4247C49.6374 61.1838 47.6036 61.5 45.7002 61.5C43.6562 61.5 41.7272 61.0691 39.9194 60.3247C36.2729 58.8231 33.377 55.9273 31.8755 52.2808C31.1282 50.4659 30.7002 48.4369 30.7002 46.4C30.7002 44.3537 31.1321 42.4304 31.8682 40.5376L31.8757 40.5182L31.884 40.4992C32.6409 38.7691 33.8201 37.1629 35.2072 35.8788C36.5951 34.4945 38.1948 33.4296 39.8994 32.6838L39.9094 32.6795L39.9194 32.6753Z" fill="#1C1B1A"/>
<path fill-rule="evenodd" clip-rule="evenodd" d="M65.8282 70.2361L55.0282 57.1361L56.5714 55.8639L67.3714 68.9639L65.8282 70.2361Z" fill="#1C1B1A"/>
</svg>
