<svg width="80" height="80" viewBox="0 0 80 80" fill="none" xmlns="http://www.w3.org/2000/svg">
<path d="M68 40C68 55.464 55.464 68 40 68C24.536 68 12 55.464 12 40C12 24.536 24.536 12 40 12C55.464 12 68 24.536 68 40Z" fill="#E7E2F2"/>
<path fill-rule="evenodd" clip-rule="evenodd" d="M56.1698 29.6516L33.9941 51.4114L23.8252 41.1011L24.5372 40.3989L34.0057 49.9991L55.4694 28.9378L56.1698 29.6516Z" fill="#1C1B1A" stroke="#1C1B1A" stroke-width="1" shape-rendering="optimizeQuality"/>
<path fill-rule="evenodd" clip-rule="evenodd" d="M40 12.5C24.8122 12.5 12.5 24.8122 12.5 40C12.5 55.1878 24.8122 67.5 40 67.5C55.1878 67.5 67.5 55.1878 67.5 40C67.5 24.8122 55.1878 12.5 40 12.5ZM11.5 40C11.5 24.2599 24.2599 11.5 40 11.5C55.7401 11.5 68.5 24.2599 68.5 40C68.5 55.7401 55.7401 68.5 40 68.5C24.2599 68.5 11.5 55.7401 11.5 40Z" fill="#1C1B1A" stroke="#1C1B1A" stroke-width="1" shape-rendering="optimizeQuality"/>
</svg>
