<svg width="38" height="38" viewBox="0 0 38 38" fill="none" xmlns="http://www.w3.org/2000/svg">
<rect opacity="0.15" x="0.75" y="0.75" width="36.3647" height="36.3646" rx="18.1823" stroke="#232F3E" stroke-width="1.5"/>
<path d="M19.0004 11.25C15.2728 11.25 12.25 14.272 12.25 18.0004C12.25 20.7636 13.9122 23.1386 16.2912 24.1824C16.2721 23.7117 16.288 23.145 16.4079 22.6322C16.5381 22.0845 17.2763 18.9545 17.2763 18.9545C17.2763 18.9545 17.0612 18.5235 17.0612 17.8861C17.0612 16.8859 17.6414 16.139 18.363 16.139C18.9766 16.139 19.2735 16.6001 19.2735 17.1526C19.2735 17.7694 18.8797 18.6926 18.6773 19.5475C18.5082 20.2643 19.0361 20.8477 19.7426 20.8477C21.0214 20.8477 21.8827 19.2054 21.8827 17.259C21.8827 15.7802 20.8864 14.6728 19.0742 14.6728C17.027 14.6728 15.7514 16.1993 15.7514 17.9043C15.7514 18.4933 15.9245 18.9077 16.1959 19.2284C16.3214 19.3768 16.338 19.4356 16.2928 19.6054C16.261 19.7285 16.1864 20.0285 16.1555 20.1468C16.1102 20.3175 15.9721 20.3794 15.8181 20.3159C14.8743 19.9309 14.4353 18.8982 14.4353 17.7369C14.4353 15.8199 16.0523 13.5194 19.2592 13.5194C21.8366 13.5194 23.5329 15.3856 23.5329 17.3868C23.5329 20.0349 22.0613 22.013 19.8902 22.013C19.1623 22.013 18.4765 21.6193 18.2415 21.1724C18.2415 21.1724 17.8494 22.7274 17.7668 23.0275C17.624 23.5474 17.3438 24.0681 17.0874 24.473C17.6946 24.6524 18.336 24.75 19.0004 24.75C22.728 24.75 25.75 21.728 25.75 18.0004C25.75 14.272 22.728 11.25 19.0004 11.25Z" fill="#146EB4"/>
</svg>
