<svg width="38" height="38" viewBox="0 0 38 38" fill="none" xmlns="http://www.w3.org/2000/svg">
<rect opacity="0.15" x="0.75" y="0.75" width="36.3647" height="36.3646" rx="18.1823" stroke="#232F3E" stroke-width="1.5"/>
<path fill-rule="evenodd" clip-rule="evenodd" d="M25.0784 14.2273C25.483 14.648 25.615 15.6032 25.615 15.6032C25.615 15.6032 25.75 16.7252 25.75 17.8467V18.8985C25.75 20.0205 25.615 21.1421 25.615 21.1421C25.615 21.1421 25.483 22.0973 25.0784 22.5179C24.6158 23.0155 24.1029 23.0669 23.813 23.096C23.7812 23.0992 23.752 23.1021 23.7258 23.1053C21.8367 23.2457 19 23.25 19 23.25C19 23.25 15.49 23.2171 14.41 23.1105C14.3588 23.1007 14.2968 23.0931 14.2266 23.0844C13.8845 23.0423 13.3475 22.9761 12.9212 22.5179C12.5166 22.0973 12.385 21.1421 12.385 21.1421C12.385 21.1421 12.25 20.0205 12.25 18.8985V17.8467C12.25 16.7252 12.385 15.6032 12.385 15.6032C12.385 15.6032 12.5166 14.648 12.9212 14.2273C13.3848 13.729 13.8982 13.6782 14.1881 13.6495C14.2195 13.6463 14.2483 13.6435 14.2742 13.6404C16.1633 13.5 18.997 13.5 18.997 13.5H19.003C19.003 13.5 21.8367 13.5 23.7258 13.6404C23.7517 13.6435 23.7805 13.6464 23.812 13.6495C24.1017 13.6782 24.6152 13.7291 25.0784 14.2273ZM17.6057 16.2783L17.6061 20.1732L21.2532 18.2324L17.6057 16.2783Z" fill="#146EB4"/>
</svg>
