<svg version="1.2" xmlns="http://www.w3.org/2000/svg" viewBox="0 0 45 44" width="45" height="44"><defs><clipPath clipPathUnits="userSpaceOnUse" id="cp1"><path d="m-902-26254h1920v33413h-1920z"/></clipPath></defs><style>.a{fill:#ff9f00}</style><g clip-path="url(#cp1)"><path fill-rule="evenodd" class="a" d="m22.5 43c11.6 0 21-9.4 21-21 0-11.6-9.4-21-21-21-11.5 0-21 9.4-21 21 0 11.6 9.5 21 21 21zm0-40.1c10.6 0 19.1 8.6 19.1 19.1 0 10.5-8.5 19.1-19.1 19.1-10.5 0-19-8.6-19-19.1 0-10.5 8.5-19.1 19-19.1zm8.5 32.8l-8.2-13.8 8.2-13.4-23.5 13.6z"/></g></svg>