<svg width="25" height="22" viewBox="0 0 25 22" fill="none" xmlns="http://www.w3.org/2000/svg">
<path d="M12.0408 0.641154C12.1185 0.416977 12.4355 0.416977 12.5132 0.641153L15.1459 8.2373C15.1808 8.33794 15.2756 8.40543 15.3821 8.40543H23.8655C24.1116 8.40543 24.2096 8.72353 24.0063 8.86205L17.1714 13.5175C17.078 13.5811 17.0389 13.6993 17.0759 13.806L19.693 21.3573C19.7719 21.5849 19.5151 21.7814 19.3161 21.6458L12.4177 16.9471C12.3328 16.8893 12.2212 16.8893 12.1362 16.9471L5.23789 21.6458C5.03887 21.7814 4.78208 21.5849 4.86093 21.3573L7.47808 13.806C7.51505 13.6993 7.47592 13.5811 7.3826 13.5175L0.547698 8.86205C0.344324 8.72353 0.442367 8.40543 0.688436 8.40543H9.17188C9.27839 8.40543 9.37321 8.33794 9.40809 8.2373L12.0408 0.641154Z" fill="#E2E2E2"/>
</svg>
