<svg width="24" height="23" viewBox="0 0 24 23" fill="none" xmlns="http://www.w3.org/2000/svg">
<path d="M11.8055 1.14726C11.8832 0.923081 12.2002 0.923081 12.2779 1.14726L14.9106 8.7434C14.9455 8.84404 15.0403 8.91153 15.1468 8.91153H23.6302C23.8763 8.91153 23.9744 9.22963 23.771 9.36816L16.9361 14.0236C16.8428 14.0872 16.8036 14.2054 16.8406 14.3121L19.4577 21.8634C19.5366 22.091 19.2798 22.2875 19.0808 22.1519L12.1824 17.4532C12.0975 17.3954 11.9859 17.3954 11.901 17.4532L5.00259 22.1519C4.80358 22.2875 4.54679 22.091 4.62564 21.8634L7.24279 14.3121C7.27976 14.2054 7.24063 14.0872 7.14731 14.0236L0.312407 9.36815C0.109034 9.22963 0.207076 8.91153 0.453145 8.91153H8.93658C9.0431 8.91153 9.13792 8.84404 9.1728 8.7434L11.8055 1.14726Z" fill="#F89705"/>
</svg>
